<svg width="72" height="72" viewBox="0 0 72 72" fill="none" xmlns="http://www.w3.org/2000/svg">
<path d="M49.5004 42.4479H49.1116V32.8545C49.1116 26.706 45.1919 21.4842 39.778 19.6445V19.6415L38.8424 19.3763C37.7712 19.0958 36.6553 18.9297 35.4993 18.9297C34.288 18.9297 33.1185 19.108 31.9997 19.4128L31.222 19.6415V19.6445C25.8081 21.4857 21.8884 26.706 21.8884 32.8545V42.4479H21.4996C19.5703 42.4479 18 44.0544 18 46.0282C18 48.002 19.5703 49.6085 21.4996 49.6085H29.686H30.4592H40.5408H41.314H49.5004C51.4297 49.6085 53 48.002 53 46.0282C53 44.0544 51.4297 42.4479 49.5004 42.4479Z" fill="#919599"/>
<path d="M31.9715 19.8745C33.0903 19.5696 34.2598 19.3913 35.4711 19.3913C36.6271 19.3913 37.7415 19.5575 38.8142 19.8379L39.7498 20.1031V20.1062V19.0804C39.7498 16.6661 38.5868 14 35.4725 14C32.4104 14 31.1953 16.6661 31.1953 19.0789V20.1016L31.9715 19.8745Z" fill="#919599"/>
<path d="M40.5383 51.9473H30.4568H29.6836C29.8847 55.052 32.4114 57.5166 35.4968 57.5166C38.5822 57.5166 41.1089 55.052 41.31 51.9473H40.5383Z" fill="#919599"/>
</svg>
