<svg width="72" height="72" viewBox="0 0 72 72" fill="none" xmlns="http://www.w3.org/2000/svg">
<path d="M48.6249 41.6536H48.2742V33.0025C48.2742 27.458 44.7396 22.7491 39.8575 21.0902V21.0874L39.0138 20.8483C38.0478 20.5954 37.0416 20.4456 35.999 20.4456C34.9068 20.4456 33.8522 20.6064 32.8432 20.8813L32.142 21.0874V21.0902C27.2598 22.7505 23.7252 27.458 23.7252 33.0025V41.6536H23.3745C21.6348 41.6536 20.2188 43.1022 20.2188 44.8822C20.2188 46.6621 21.6348 48.1107 23.3745 48.1107H30.7569H31.4541H40.5453H41.2426H48.6249C50.3647 48.1107 51.7807 46.6621 51.7807 44.8822C51.7807 43.1022 50.3647 41.6536 48.6249 41.6536Z" fill="#919599"/>
<path d="M32.8196 21.2974C33.8285 21.0225 34.8831 20.8617 35.9754 20.8617C37.0179 20.8617 38.0228 21.0115 38.9901 21.2644L39.8338 21.5036V21.5063V20.5813C39.8338 18.4042 38.7851 16 35.9767 16C33.2153 16 32.1196 18.4042 32.1196 20.58V21.5022L32.8196 21.2974Z" fill="#919599"/>
<path d="M40.5448 50.218H31.4536H30.7563C30.9377 53.0178 33.2162 55.2402 35.9985 55.2402C38.7808 55.2402 41.0593 53.0178 41.2407 50.218H40.5448Z" fill="#919599"/>
</svg>
