<svg width="56" height="56" viewBox="0 0 56 56" fill="none" xmlns="http://www.w3.org/2000/svg">
<path d="M56 39.9725C56 45.4175 49 51.3407 30.2968 52.7739C12.6383 54.1264 0 49.3346 0 40.45C0 31.3743 10.6094 28.7575 18.9211 28.7575C28.4376 28.7575 34.4498 32.645 46.5939 34.0497C54.0314 34.9089 56 37.4886 56 39.9725Z" fill="#41A033"/>
<path d="M20.5467 42.8784C20.5467 44.3127 18.3922 45.4759 15.7343 45.4759C13.0763 45.4759 10.9219 44.3131 10.9219 42.8784C10.9219 41.4438 13.0763 40.2809 15.7343 40.2809C18.3922 40.2809 20.5467 41.4438 20.5467 42.8784Z" fill="#0F5500"/>
<path d="M40.0503 44.8237C42.7839 43.7033 44.0821 40.6023 42.9497 37.8974C41.8174 35.1924 38.6834 33.908 35.9497 35.0284C33.2161 36.1488 31.9179 39.2499 33.0503 41.9548C34.1826 44.6597 37.3166 45.9442 40.0503 44.8237Z" fill="white"/>
<path d="M15 23.0014V5.13268C15 5.13268 19.67 4.55409 24.2276 5.82626C28.7048 7.07486 32.1068 10.3754 36.0105 11.8967C39.1965 13.138 44 13.407 44 13.407C44 13.407 40.9955 18.4168 36.3408 19.8644C31.6217 21.3319 30.6946 19.8158 24.3891 20.2964C19.8727 20.6406 15 23.0014 15 23.0014Z" fill="#FFAF00"/>
<path d="M15.3823 43.206C14.6189 43.206 14 42.5936 14 41.8382V3.3675C14 2.61137 14.6189 1.99969 15.3823 1.99969C16.1457 1.99969 16.7647 2.61137 16.7647 3.3675V41.8382C16.7647 42.5936 16.1457 43.206 15.3823 43.206Z" fill="#FFAF00"/>
</svg>
