<svg width="36" height="36" viewBox="0 0 36 36" fill="none" xmlns="http://www.w3.org/2000/svg">
<rect x="2" y="2" width="32" height="32" rx="16" fill="#C1C5C9"/>
<path d="M23.5472 11.5813C23.2454 10.9266 22.8224 10.3623 22.2776 9.88795C21.7328 9.41382 21.0791 9.04434 20.3167 8.78003C19.5543 8.51546 18.712 8.3833 17.7902 8.3833C16.9184 8.3833 16.1163 8.52819 15.3831 8.81771C14.6497 9.10723 14.1338 9.54623 13.5809 10.0833C13.0279 10.6205 12.5795 11.2711 12.236 12.0348C12.1826 12.1535 12.1267 12.2721 12.0852 12.3972C11.7441 13.4302 12.463 14.6031 13.6005 14.6031H13.6132C14.3192 14.6031 14.9507 14.243 15.3185 13.4778C15.9811 12.1002 16.5287 11.2663 17.8156 11.2663C18.2178 11.2663 18.5844 11.3315 18.9154 11.4614C19.2464 11.5915 19.5314 11.7741 19.7701 12.0091C20.0088 12.2441 20.1952 12.5189 20.3294 12.8339C20.4634 13.1486 20.5305 13.4949 20.5305 13.8725C20.5305 14.0739 20.5158 14.2608 20.4865 14.4327C20.457 14.6049 20.3798 14.7895 20.2539 14.9866C20.1281 15.1839 19.9417 15.4105 19.6946 15.6664C19.4472 15.9226 19.1101 16.231 18.6828 16.5918C17.6938 17.4145 17.0618 18.0335 16.6848 18.8056C16.4918 19.2003 16.3772 19.6569 16.2892 20.3281C16.2605 20.5468 16.2361 20.7811 16.216 21.0309C16.1395 21.9753 16.8871 22.7833 17.8331 22.7833C18.6792 22.7833 19.3822 22.1314 19.45 21.2865C19.4968 20.7037 19.5438 20.2761 19.6567 20.0355C19.7488 19.8257 19.916 19.6423 20.2171 19.3785C20.5244 19.1094 20.8074 18.9334 21.2599 18.5558C22.3073 17.6913 23.0197 16.8897 23.3967 16.151C23.7989 15.4207 24 14.611 24 13.721C23.9997 12.9495 23.849 12.236 23.5472 11.5813Z" fill="white"/>
<path d="M17.8253 24.1833H17.7752C16.7949 24.1833 16.0002 24.9892 16.0002 25.9834C16.0002 26.9775 16.7949 27.7833 17.7752 27.7833H17.8253C18.8055 27.7833 19.6002 26.9775 19.6002 25.9834C19.6002 24.9892 18.8055 24.1833 17.8253 24.1833Z" fill="white"/>
</svg>
