<svg width="56" height="56" viewBox="0 0 56 56" fill="none" xmlns="http://www.w3.org/2000/svg">
<path fill-rule="evenodd" clip-rule="evenodd" d="M8 24.2329V45C8 47.2091 9.79086 49 12 49H23.1436V27.0181C23.1436 25.0697 25.2736 23.8701 26.9397 24.8803L34.32 29.355C35.9388 30.3364 35.9218 32.6912 34.2889 33.6491L27.1436 37.8409V49H44C46.2091 49 48 47.2091 48 45V24.2329C48 23.0759 47.4991 21.9757 46.6265 21.216L30.6265 7.28657C29.1208 5.97576 26.8792 5.97576 25.3735 7.28657L9.37353 21.216C8.50093 21.9757 8 23.0759 8 24.2329Z" fill="white"/>
</svg>
