<svg width="56" height="56" viewBox="0 0 56 56" fill="none" xmlns="http://www.w3.org/2000/svg">
<path fill-rule="evenodd" clip-rule="evenodd" d="M32.333 26.2215C34.0106 23.913 35.0001 21.072 35.0001 18C35.0001 14.928 34.0106 12.087 32.333 9.77851C33.453 9.27818 34.6941 9 36.0001 9C40.9707 9 45.0001 13.0294 45.0001 18C45.0001 22.9706 40.9707 27 36.0001 27C34.6941 27 33.4531 26.7218 32.333 26.2215ZM41.4186 48C41.7936 47.0736 42.0001 46.0609 42.0001 45V44C42.0001 38.4596 39.6287 33.473 35.8455 30H38.0001C45.7321 30 52.0001 36.268 52.0001 44V45C52.0001 46.6569 50.6569 48 49.0001 48H41.4186Z" fill="white"/>
<path fill-rule="evenodd" clip-rule="evenodd" d="M19 30C17.5758 30 16.2014 30.2126 14.9066 30.6079C9.17165 32.3587 5 37.6922 5 44V45C5 46.6569 6.34315 48 8 48H34C35.6569 48 37 46.6569 37 45V44C37 37.6922 32.8283 32.3587 27.0934 30.6079C25.7986 30.2126 24.4242 30 23 30H19ZM19 26.777C17.7941 26.5033 16.6802 25.9876 15.712 25.2835C13.4624 23.6474 12 20.9945 12 18C12 13.0294 16.0294 9 21 9C25.9706 9 30 13.0294 30 18C30 20.9945 28.5376 23.6474 26.288 25.2835C25.3198 25.9876 24.2059 26.5033 23 26.777C22.3568 26.9229 21.6874 27 21 27C20.3126 27 19.6432 26.9229 19 26.777Z" fill="white"/>
</svg>
