<svg width="72" height="72" viewBox="0 0 72 72" fill="none" xmlns="http://www.w3.org/2000/svg">
<path d="M19.4142 51.87C18.6332 51.089 18.6332 49.8226 19.4142 49.0416L49.0416 19.4142C49.8227 18.6331 51.089 18.6331 51.8701 19.4142C52.6511 20.1952 52.6511 21.4616 51.8701 22.2426L22.2426 51.87C21.4616 52.6511 20.1953 52.6511 19.4142 51.87Z" fill="white"/>
<path d="M19.5855 19.4142C20.3666 18.6332 21.6329 18.6332 22.414 19.4142L52.0414 49.0416C52.8224 49.8227 52.8224 51.089 52.0414 51.8701C51.2603 52.6511 49.994 52.6511 49.213 51.8701L19.5855 22.2426C18.8045 21.4616 18.8045 20.1953 19.5855 19.4142Z" fill="white"/>
</svg>
