<svg width="102" height="102" viewBox="0 0 102 102" fill="none" xmlns="http://www.w3.org/2000/svg">
<rect x="3" y="3" width="96" height="96" rx="48" fill="white" stroke="#EEEEEE" stroke-width="6"/>
<g opacity="0.7">
<mask id="mask0_340_167217" style="mask-type:alpha" maskUnits="userSpaceOnUse" x="1" y="1" width="100" height="100">
<circle cx="51" cy="51" r="50" fill="black"/>
</mask>
<g mask="url(#mask0_340_167217)">
<g opacity="0.2">
<path d="M83.896 60.7295C81.56 60.6649 79.7144 58.7226 79.7725 56.3866C79.837 54.0505 81.7794 52.205 84.1154 52.2631C86.4514 52.3276 88.297 54.27 88.2389 56.606C88.1744 58.942 86.232 60.7875 83.896 60.7295Z" fill="#989B9D"/>
<path d="M91.0981 49.5654C88.7621 49.5009 86.9166 47.5585 86.9746 45.2225C87.0392 42.8865 88.9815 41.0409 91.3175 41.099C93.6536 41.1571 95.4991 43.1059 95.441 45.4419C95.383 47.7779 93.4406 49.6235 91.0981 49.5654Z" fill="#989B9D"/>
<path d="M73.0267 69.5834C71.9663 67.4998 72.7956 64.951 74.8792 63.8905C76.9628 62.8301 79.5115 63.6594 80.572 65.743C81.6325 67.8266 80.8031 70.3753 78.7196 71.4358C76.636 72.4963 74.0872 71.6669 73.0267 69.5834Z" fill="#989B9D"/>
<path d="M67.6147 81.2451C65.2787 81.1806 63.4332 79.2382 63.4912 76.9022C63.5493 74.5662 65.4981 72.7206 67.8341 72.7787C70.1702 72.8432 72.0157 74.7856 71.9577 77.1216C71.8996 79.4576 69.9507 81.3032 67.6147 81.2451Z" fill="#989B9D"/>
<path d="M56.6704 88.7763C54.3344 88.7118 52.4888 86.7694 52.5469 84.4334C52.6114 82.0974 54.5538 80.2519 56.8898 80.3099C59.2258 80.3745 61.0714 82.3168 61.0133 84.6528C60.9488 86.9953 59.0064 88.8409 56.6704 88.7763Z" fill="#989B9D"/>
<path d="M45.7261 96.3115C43.3901 96.247 41.5445 94.3046 41.6026 91.9686C41.6671 89.6326 43.6095 87.787 45.9455 87.8451C48.2815 87.9032 50.1271 89.852 50.069 92.188C50.0044 94.524 48.0621 96.3696 45.7261 96.3115Z" fill="#989B9D"/>
<path d="M92.4468 69.2803C90.1108 69.2157 88.2652 67.2733 88.3233 64.9373C88.3878 62.6013 90.3302 60.7558 92.6662 60.8138C95.0022 60.8784 96.8478 62.8207 96.7897 65.1567C96.7252 67.4992 94.7828 69.3383 92.4468 69.2803Z" fill="#989B9D"/>
<path d="M81.5732 78.1293C80.512 76.046 81.3406 73.4968 83.4239 72.4356C85.5073 71.3744 88.0564 72.203 89.1176 74.2864C90.1788 76.3697 89.3502 78.9189 87.2669 79.98C85.1835 81.0412 82.6344 80.2126 81.5732 78.1293Z" fill="#989B9D"/>
<path d="M76.1655 89.7959C73.8295 89.7313 71.9839 87.789 72.042 85.453C72.1065 83.117 74.0489 81.2714 76.3849 81.3295C78.7209 81.394 80.5665 83.3364 80.5084 85.6724C80.4504 88.0084 78.5015 89.854 76.1655 89.7959Z" fill="#989B9D"/>
<path d="M65.2202 97.3271C62.8842 97.2626 61.0386 95.3202 61.0967 92.9842C61.1612 90.6482 63.1036 88.8026 65.4396 88.8607C67.7756 88.9252 69.6212 90.8676 69.5631 93.2036C69.4986 95.5461 67.5562 97.3917 65.2202 97.3271Z" fill="#989B9D"/>
</g>
</g>
</g>
<rect x="3" y="3" width="96" height="96" rx="48" stroke="#EEEEEE" stroke-width="6"/>
<rect x="28" y="48" width="46" height="6" rx="3" fill="#00A789"/>
<rect x="48" y="28" width="6" height="46" rx="3" fill="#00A789"/>
</svg>
