<svg width="104" height="105" viewBox="0 0 104 105" fill="none" xmlns="http://www.w3.org/2000/svg">
<rect x="3" y="3" width="96" height="96" rx="48" fill="white" stroke="#EEEEEE" stroke-width="6"/>
<g opacity="0.7">
<mask id="mask0_749_12415" style="mask-type:alpha" maskUnits="userSpaceOnUse" x="1" y="1" width="100" height="100">
<circle cx="51" cy="51" r="50" fill="black"/>
</mask>
<g mask="url(#mask0_749_12415)">
<g opacity="0.2">
<path d="M83.896 60.7314C81.56 60.6669 79.7144 58.7245 79.7725 56.3885C79.837 54.0525 81.7794 52.2069 84.1154 52.265C86.4514 52.3295 88.297 54.2719 88.2389 56.6079C88.1744 58.9439 86.232 60.7895 83.896 60.7314Z" fill="#989B9D"/>
<path d="M91.0972 49.5678C88.7612 49.5033 86.9156 47.5609 86.9737 45.2249C87.0382 42.8889 88.9806 41.0434 91.3166 41.1014C93.6526 41.1595 95.4981 43.1083 95.4401 45.4443C95.382 47.7804 93.4396 49.6259 91.0972 49.5678Z" fill="#989B9D"/>
<path d="M73.0267 69.5829C71.9663 67.4993 72.7956 64.9505 74.8792 63.8901C76.9628 62.8296 79.5115 63.6589 80.572 65.7425C81.6325 67.8261 80.8031 70.3748 78.7196 71.4353C76.636 72.4958 74.0872 71.6664 73.0267 69.5829Z" fill="#989B9D"/>
<path d="M67.6147 81.2461C65.2787 81.1815 63.4332 79.2392 63.4912 76.9032C63.5493 74.5672 65.4981 72.7216 67.8341 72.7797C70.1702 72.8442 72.0157 74.7866 71.9577 77.1226C71.8996 79.4586 69.9507 81.3041 67.6147 81.2461Z" fill="#989B9D"/>
<path d="M56.6714 88.7768C54.3354 88.7123 52.4898 86.7699 52.5479 84.4339C52.6124 82.0979 54.5548 80.2523 56.8908 80.3104C59.2268 80.3749 61.0724 82.3173 61.0143 84.6533C60.9498 86.9958 59.0074 88.8414 56.6714 88.7768Z" fill="#989B9D"/>
<path d="M45.7261 96.3139C43.3901 96.2494 41.5445 94.307 41.6026 91.971C41.6671 89.635 43.6095 87.7894 45.9455 87.8475C48.2815 87.9056 50.1271 89.8544 50.069 92.1904C50.0044 94.5264 48.0621 96.372 45.7261 96.3139Z" fill="#989B9D"/>
<path d="M92.4468 69.2817C90.1108 69.2172 88.2652 67.2748 88.3233 64.9388C88.3878 62.6028 90.3302 60.7572 92.6662 60.8153C95.0022 60.8798 96.8478 62.8222 96.7897 65.1582C96.7252 67.5007 94.7828 69.3398 92.4468 69.2817Z" fill="#989B9D"/>
<path d="M99.6479 58.1181C97.3119 58.0536 95.4664 56.1112 95.5244 53.7752C95.589 51.4392 97.5313 49.5936 99.8673 49.6517C102.203 49.7163 104.049 51.6586 103.991 53.9946C103.933 56.3306 101.99 58.1762 99.6479 58.1181Z" fill="#989B9D"/>
<path d="M81.5732 78.1317C80.512 76.0484 81.3406 73.4993 83.4239 72.4381C85.5073 71.3769 88.0564 72.2055 89.1176 74.2888C90.1788 76.3722 89.3502 78.9213 87.2669 79.9825C85.1835 81.0437 82.6344 80.2151 81.5732 78.1317Z" fill="#989B9D"/>
<path d="M76.1655 89.7964C73.8295 89.7318 71.9839 87.7895 72.042 85.4535C72.1065 83.1174 74.0489 81.2719 76.3849 81.3299C78.7209 81.3945 80.5665 83.3369 80.5084 85.6729C80.4504 88.0089 78.5015 89.8544 76.1655 89.7964Z" fill="#989B9D"/>
<path d="M65.2202 97.3271C62.8842 97.2626 61.0386 95.3202 61.0967 92.9842C61.1612 90.6482 63.1036 88.8026 65.4396 88.8607C67.7756 88.9252 69.6212 90.8676 69.5631 93.2036C69.4986 95.5461 67.5562 97.3917 65.2202 97.3271Z" fill="#989B9D"/>
<path d="M54.2768 104.864C51.9408 104.8 50.0953 102.857 50.1533 100.521C50.2179 98.1853 52.1602 96.3397 54.4963 96.3978C56.8323 96.4623 58.6778 98.4047 58.6198 100.741C58.5552 103.077 56.6129 104.922 54.2768 104.864Z" fill="#989B9D"/>
<path d="M72.261 95.6878C72.9515 95.7072 73.5903 95.9072 74.1582 96.217C72.1965 97.2237 70.1573 98.1142 68.0536 98.8627C68.544 96.9914 70.2541 95.6297 72.261 95.6878Z" fill="#989B9D"/>
<path d="M83.2105 88.1507C83.8816 88.1701 84.5075 88.3572 85.0625 88.6476C83.1653 90.3642 81.139 91.9387 78.9966 93.3648C78.9127 93.0164 78.8547 92.655 78.8676 92.2743C78.9256 89.9382 80.868 88.0927 83.2105 88.1507Z" fill="#989B9D"/>
<path d="M99.0156 67.6753C98.1961 70.0307 97.2152 72.3021 96.073 74.4833C95.4793 73.7347 95.118 72.7926 95.1502 71.7601C95.2019 69.5854 96.899 67.856 99.0156 67.6753Z" fill="#989B9D"/>
<path d="M92.2858 78.8002C92.6665 78.8131 93.0343 78.8841 93.3828 78.9938C91.9244 81.1878 90.3112 83.2592 88.543 85.1951C88.1494 84.5305 87.9171 83.7561 87.9429 82.9237C88.001 80.5877 89.9498 78.7421 92.2858 78.8002Z" fill="#989B9D"/>
<path d="M93.2458 33.151C93.3039 31.0602 94.8655 29.3695 96.866 29.0791C98.0534 31.5442 99.0342 34.1318 99.8086 36.797C99.1117 37.2616 98.2663 37.5197 97.3629 37.5003C95.0333 37.4358 93.1878 35.487 93.2458 33.151Z" fill="#989B9D"/>
<path d="M34.0666 94.4748C36.4026 94.5393 38.2481 96.4817 38.1901 98.8177C38.1772 99.2565 38.0997 99.6824 37.9642 100.076C35.2088 99.3404 32.5501 98.3725 30.0011 97.2045C30.6206 95.5718 32.221 94.4232 34.0666 94.4748Z" fill="#989B9D"/>
</g>
</g>
</g>
<rect x="3" y="3" width="96" height="96" rx="48" stroke="#E4E7EC" stroke-width="6"/>
</svg>
