<svg width="40" height="40" viewBox="0 0 40 40" fill="none" xmlns="http://www.w3.org/2000/svg">
<path fill-rule="evenodd" clip-rule="evenodd" d="M16.2643 22.6746C14.5543 20.6325 11.9374 16.2708 12.3395 14.5096C12.7387 12.7604 16.0436 13.1125 15.9845 11.4476C15.9445 10.8916 14.6188 3.21505 13.404 3.10864C8.19094 2.25256 4.71421 6.59392 5.0185 11.276C5.38664 16.9332 10.352 23.4022 12.4374 25.8921C14.5227 28.382 20.0191 34.405 25.5149 35.7507C30.0639 36.8645 34.9344 34.1874 34.9989 28.8955C35.1051 27.6784 27.79 25.0372 27.2506 24.9009C25.6247 24.5536 25.3968 27.8757 23.608 27.9653C21.8073 28.0556 17.9744 24.7162 16.2643 22.6746Z" fill="white"/>
<path d="M16.2643 22.6746C14.5543 20.6325 11.9374 16.2708 12.3395 14.5096C12.7387 12.7604 16.0436 13.1125 15.9845 11.4476C15.9445 10.8916 14.6188 3.21505 13.404 3.10864C8.19094 2.25256 4.71421 6.59392 5.0185 11.276C5.38664 16.9332 10.352 23.4022 12.4374 25.8921C14.5227 28.382 20.0191 34.405 25.5149 35.7507C30.0639 36.8645 34.9344 34.1874 34.9989 28.8955C35.1051 27.6784 27.79 25.0372 27.2506 24.9009C25.6247 24.5536 25.3968 27.8757 23.608 27.9653C21.8073 28.0556 17.9744 24.7162 16.2643 22.6746Z" stroke="white" stroke-width="3" stroke-miterlimit="2.6131" stroke-linecap="round" stroke-linejoin="round"/>
</svg>
