<svg width="56" height="56" viewBox="0 0 56 56" fill="none" xmlns="http://www.w3.org/2000/svg">
<path d="M16.7678 39.2228C15.7915 38.2465 15.7915 36.6636 16.7678 35.6873L35.6881 16.767C36.6644 15.7907 38.2473 15.7907 39.2236 16.767C40.1999 17.7433 40.1999 19.3262 39.2236 20.3025L20.3033 39.2228C19.327 40.1992 17.7441 40.1992 16.7678 39.2228Z" fill="#F02121"/>
<path d="M16.2322 16.7678C17.2085 15.7915 18.7915 15.7915 19.7678 16.7678L38.6881 35.6881C39.6644 36.6644 39.6644 38.2473 38.6881 39.2236C37.7118 40.1999 36.1289 40.1999 35.1525 39.2236L16.2322 20.3033C15.2559 19.327 15.2559 17.7441 16.2322 16.7678Z" fill="#F02121"/>
</svg>
