<svg width="48" height="48" viewBox="0 0 48 48" fill="none" xmlns="http://www.w3.org/2000/svg">
<path d="M35.9566 30.4372H35.6184V22.0941C35.6184 16.7471 32.2097 12.2059 27.5014 10.606V10.6034L26.6877 10.3727C25.7562 10.1289 24.7858 9.98438 23.7804 9.98438C22.727 9.98438 21.71 10.1395 20.7369 10.4046L20.0606 10.6034V10.606C15.3524 12.2072 11.9436 16.7471 11.9436 22.0941V30.4372H11.6054C9.92759 30.4372 8.56201 31.8343 8.56201 33.5508C8.56201 35.2673 9.92759 36.6644 11.6054 36.6644H18.7249H19.3973H28.1647H28.8372H35.9566C37.6344 36.6644 39 35.2673 39 33.5508C39 31.8343 37.6344 30.4372 35.9566 30.4372Z" fill="#FCBB2D"/>
<path d="M20.7141 10.808C21.6871 10.5429 22.7042 10.3878 23.7575 10.3878C24.7629 10.3878 25.732 10.5323 26.6649 10.7762L27.4785 11.0068V11.0095V10.1174C27.4785 8.01782 26.4672 5.69922 23.7588 5.69922C21.0957 5.69922 20.0391 8.01782 20.0391 10.1161V11.0055L20.7141 10.808Z" fill="#FCBB2D"/>
<path d="M28.1645 38.6992H19.397H18.7246C18.8995 41.3993 21.0969 43.5426 23.7801 43.5426C26.4633 43.5426 28.6607 41.3993 28.8356 38.6992H28.1645Z" fill="#FCBB2D"/>
</svg>
