<svg width="48" height="48" viewBox="0 0 48 48" fill="none" xmlns="http://www.w3.org/2000/svg">
<path d="M21.8823 12.3529L31.6938 7.44721C33.0236 6.78231 34.5882 7.7493 34.5882 9.23607V31.1062C34.5882 32.6497 32.9138 33.6115 31.5805 32.8337L21.8823 27.1765V12.3529Z" fill="#EB712D"/>
<path d="M36.7061 15.2432L36.7061 25.3426L36.7061 26.1172C39.6574 25.9157 42.0002 23.3845 42.0002 20.2937C42.0002 17.2028 39.6574 14.6716 36.7061 14.4701L36.7061 15.2432Z" fill="#EB712D"/>
<path d="M6 19.7633C6 15.6699 9.31836 12.3516 13.4118 12.3516H21.8824V27.1751H13.4118C9.31836 27.1751 6 23.8567 6 19.7633Z" fill="#EB712D"/>
<path d="M17.6469 42C15.3078 42 13.4116 40.1038 13.4116 37.7647L13.4116 25.0588L21.8822 25.0588L21.8822 37.7647C21.8822 40.1038 19.986 42 17.6469 42Z" fill="#EB712D"/>
</svg>
