<svg width="56" height="58" viewBox="0 0 56 58" fill="none" xmlns="http://www.w3.org/2000/svg">
<path d="M56 41.9724C56 47.4174 49 53.3407 30.2968 54.7739C12.6383 56.1264 0 51.3346 0 42.4499C0 33.3742 10.6094 30.7574 18.9211 30.7574C28.4376 30.7574 34.4498 34.6449 46.5939 36.0496C54.0314 36.9089 56 39.4885 56 41.9724Z" fill="#41A033"/>
<path d="M27.2505 31.8241C27.5297 31.8974 27.7677 32.0819 27.8773 32.3557L31.0483 40.405C34.4319 39.0293 39.799 37.4488 44.0926 36.8828C44.9583 36.7711 45.6789 37.2219 46.2974 37.7773C47.5785 38.9186 48.5063 41.9433 47.8113 43.6599C47.5049 44.407 46.2502 45.031 45.3939 45.182C40.7493 45.9914 35.2323 45.2571 31.6638 45.1859C30.7174 45.1652 30.106 43.6558 30.0418 43.4837L25.9111 32.9938C25.8198 32.767 25.8498 32.5299 25.95 32.3308L27.2505 31.8241Z" fill="#0F3D08"/>
<path d="M30.8707 41.7358C31.5782 41.449 31.9218 40.6489 31.638 39.9489L18.5617 6.96062C18.2776 6.25987 17.4742 5.9255 16.7668 6.21227C16.0593 6.49905 15.7154 7.29843 15.9995 7.99918L29.0758 40.9874C29.3596 41.6875 30.1632 42.0226 30.8707 41.7358Z" fill="#0F3D08"/>
<path d="M27.6098 31.8241C27.3306 31.8974 27.0927 32.0819 26.9831 32.3557L23.812 40.405C20.4284 39.0293 15.0614 37.4488 10.7678 36.8828C9.90208 36.7711 9.18147 37.2219 8.56294 37.7773C7.28187 38.9186 6.35405 41.9433 7.04909 43.6599C7.35541 44.407 8.61019 45.031 9.46642 45.182C14.111 45.9914 19.6281 45.2571 23.1966 45.1859C24.143 45.1652 24.7544 43.6558 24.8186 43.4837L28.9493 32.9938C29.0406 32.767 29.0105 32.5299 28.9103 32.3308L27.6098 31.8241Z" fill="#0F3D08"/>
<path d="M23.9896 41.7358C23.2821 41.449 22.9386 40.6489 23.2223 39.9489L36.2987 6.96062C36.5827 6.25987 37.3861 5.9255 38.0936 6.21227C38.8011 6.49905 39.1449 7.29843 38.8609 7.99918L25.7845 40.9874C25.5008 41.6875 24.6971 42.0226 23.9896 41.7358Z" fill="#0F3D08"/>
<path d="M45.0503 48.8237C47.7839 47.7033 49.0821 44.6023 47.9497 41.8974C46.8174 39.1924 43.6834 37.908 40.9497 39.0284C38.2161 40.1488 36.9179 43.2499 38.0503 45.9548C39.1826 48.6597 42.3166 49.9442 45.0503 48.8237Z" fill="white"/>
</svg>
