<svg width="56" height="56" viewBox="0 0 56 56" fill="none" xmlns="http://www.w3.org/2000/svg">
<rect x="9" y="3" width="38" height="38" fill="#C4CACA"/>
<path d="M56 39.9725C56 45.4175 49 51.3407 30.2968 52.7739C12.6383 54.1264 0 49.3347 0 40.45C0 31.3743 10.6094 28.7575 18.9211 28.7575C28.4376 28.7575 34.4498 32.645 46.5939 34.0497C54.0314 34.9089 56 37.4886 56 39.9725Z" fill="#41A033"/>
<path d="M40.0503 44.8237C42.7839 43.7033 44.0821 40.6023 42.9497 37.8974C41.8174 35.1924 38.6834 33.908 35.9497 35.0284C33.2161 36.1488 31.9179 39.2499 33.0503 41.9548C34.1826 44.6597 37.3166 45.9442 40.0503 44.8237Z" fill="white"/>
<path d="M3 4C3 2.89549 3.56517 2 4.26226 2L51.7377 2C52.4355 2 53 2.89549 53 4C53 5.10451 52.4355 6 51.7377 6L4.26226 6C3.56517 6 3 5.10451 3 4Z" fill="#FFAF00"/>
</svg>
