<svg width="42" height="42" viewBox="0 0 42 42" fill="none" xmlns="http://www.w3.org/2000/svg">
<circle cx="21" cy="21" r="21" fill="#9C04FA"/>
<path d="M22.3209 29.8889C21.5777 29.8889 20.7922 29.7664 19.9645 29.5213C19.1368 29.2762 18.326 28.9085 17.5321 28.4183C16.7382 27.9281 16.0118 27.3066 15.353 26.5538C14.7111 25.7835 14.1959 24.8907 13.8074 23.8753C13.4358 22.8423 13.25 21.6694 13.25 20.3564C13.25 19.0958 13.4358 17.9754 13.8074 16.995C14.1959 15.9971 14.7111 15.1305 15.353 14.3952C15.9949 13.6599 16.7128 13.0559 17.5068 12.5832C18.3007 12.093 19.1199 11.7342 19.9645 11.5066C20.8091 11.2615 21.6115 11.1389 22.3716 11.1389C23.2331 11.1389 23.9848 11.244 24.6267 11.454C25.2686 11.6641 25.7922 11.883 26.1976 12.1106C26.603 12.3206 26.8564 12.4694 26.9578 12.557C27.2618 12.7496 27.549 12.9684 27.8193 13.2135C28.0895 13.4586 28.2331 13.7825 28.25 14.1851C28.25 14.3952 28.2078 14.6053 28.1233 14.8154C28.0557 15.008 27.9459 15.218 27.7939 15.4456C27.5236 15.8483 27.2618 16.1459 27.0084 16.3385C26.772 16.5136 26.527 16.6011 26.2736 16.6011C26.0709 16.6011 25.8767 16.5486 25.6909 16.4435C25.522 16.3385 25.3024 16.1984 25.0321 16.0234C24.9139 15.9358 24.7449 15.8308 24.5253 15.7082C24.3057 15.5682 24.0101 15.4456 23.6385 15.3406C23.2669 15.218 22.7939 15.1568 22.2196 15.1568C21.6284 15.1568 21.0287 15.2706 20.4206 15.4982C19.8294 15.7082 19.2804 16.0321 18.7736 16.4698C18.2669 16.9075 17.8615 17.4677 17.5574 18.1505C17.2534 18.8157 17.1014 19.5948 17.1014 20.4877C17.1014 21.4155 17.2534 22.2121 17.5574 22.8774C17.8784 23.5426 18.2922 24.0941 18.799 24.5318C19.3057 24.9694 19.8547 25.3021 20.4459 25.5297C21.0541 25.7398 21.6453 25.8448 22.2196 25.8448C22.7264 25.8448 23.1571 25.7923 23.5118 25.6872C23.8834 25.5822 24.1959 25.4596 24.4493 25.3196C24.7196 25.162 24.9476 25.022 25.1334 24.8994C25.3193 24.7769 25.5051 24.6631 25.6909 24.558C25.8936 24.453 26.0963 24.4005 26.299 24.4005C26.5355 24.4005 26.772 24.4968 27.0084 24.6893C27.2618 24.8819 27.5152 25.1883 27.7686 25.6085C27.9206 25.836 28.0389 26.0636 28.1233 26.2912C28.2078 26.5013 28.2416 26.7114 28.2247 26.9215C28.2247 27.2891 28.0895 27.5955 27.8193 27.8406C27.549 28.0682 27.2618 28.2783 26.9578 28.4708C26.8226 28.5409 26.5608 28.6984 26.1723 28.9435C25.7838 29.1711 25.2686 29.3812 24.6267 29.5738C23.9848 29.7839 23.2162 29.8889 22.3209 29.8889Z" fill="white" stroke="white" stroke-width="0.6"/>
</svg>
