<svg width="56" height="56" viewBox="0 0 56 56" fill="none" xmlns="http://www.w3.org/2000/svg">
<path fill-rule="evenodd" clip-rule="evenodd" d="M50 28C50 40.1503 40.1503 50 28 50C15.8497 50 6 40.1503 6 28C6 24.3991 6.86511 21.0003 8.39884 18H18.2384C17.4472 19.0253 17 20.1908 17 21.4269C17 23.7322 18.5556 23.0943 20.9967 22.0934C22.8991 21.3134 25.3392 20.3129 28 20.3129C30.6608 20.3129 33.1009 21.3134 35.0033 22.0934C37.4444 23.0943 39 23.7322 39 21.4269C39 20.1908 38.5528 19.0253 37.7616 18H47.6012C49.1349 21.0003 50 24.3991 50 28ZM28 6C21.1683 6 15.0638 9.11399 11.0286 14H28H44.9714C40.9362 9.11399 34.8317 6 28 6ZM23.0004 29V31C23.0004 32.1046 22.105 33 21.0004 33C19.8958 33 19.0004 32.1046 19.0004 31V29C19.0004 27.8954 19.8958 27 21.0004 27C22.105 27 23.0004 27.8954 23.0004 29ZM37.0004 29V31C37.0004 32.1046 36.105 33 35.0004 33C33.8958 33 33.0004 32.1046 33.0004 31V29C33.0004 27.8954 33.8958 27 35.0004 27C36.105 27 37.0004 27.8954 37.0004 29ZM17.5712 37.5446C17.8227 36.7553 18.6664 36.3193 19.4558 36.5708C19.9763 36.7366 20.4736 36.9035 20.9578 37.0659L20.9579 37.066L20.9579 37.066C22.7994 37.6838 24.4508 38.2379 26.4686 38.4311C28.9455 38.6684 32.0227 38.3472 36.451 36.6042C37.2219 36.3008 38.0928 36.6798 38.3962 37.4506C38.6996 38.2215 38.3206 39.0924 37.5498 39.3958C32.7751 41.275 29.2207 41.7085 26.1826 41.4175C23.7888 41.1882 21.7415 40.4983 19.8653 39.8661L19.8652 39.8661L19.8651 39.8661L19.8646 39.8659C19.4158 39.7147 18.9767 39.5667 18.545 39.4292C17.7557 39.1777 17.3197 38.334 17.5712 37.5446Z" fill="white"/>
</svg>
