<svg width="44" height="44" viewBox="0 0 44 44" fill="none" xmlns="http://www.w3.org/2000/svg">
<path d="M10.2587 32.8857C9.56355 32.1905 9.56355 31.0634 10.2587 30.3682L30.3687 10.2583C31.0639 9.56309 32.191 9.56309 32.8861 10.2583C33.5813 10.9534 33.5813 12.0805 32.8861 12.7757L12.7762 32.8857C12.081 33.5809 10.9539 33.5809 10.2587 32.8857Z" fill="white"/>
<path d="M32.8862 32.8858C32.191 33.581 31.0639 33.581 30.3687 32.8858L10.2588 12.7758C9.56358 12.0807 9.56358 10.9536 10.2588 10.2584C10.9539 9.56321 12.081 9.56321 12.7762 10.2584L32.8862 30.3683C33.5813 31.0635 33.5813 32.1906 32.8862 32.8858Z" fill="white"/>
</svg>
