<svg width="40" height="40" viewBox="0 0 40 40" fill="none" xmlns="http://www.w3.org/2000/svg">
<rect opacity="0.7" width="40" height="40" rx="20" fill="#C1C5C9"/>
<path d="M12.7678 26.5165C12.182 25.9307 12.182 24.9809 12.7678 24.3952L24.3952 12.7677C24.981 12.182 25.9307 12.182 26.5165 12.7677C27.1023 13.3535 27.1023 14.3033 26.5165 14.8891L14.8891 26.5165C14.3033 27.1023 13.3536 27.1023 12.7678 26.5165Z" fill="white" stroke="white"/>
<path d="M26.5157 26.5164C25.93 27.1022 24.9802 27.1022 24.3944 26.5164L12.767 14.889C12.1812 14.3032 12.1812 13.3535 12.767 12.7677C13.3528 12.1819 14.3025 12.1819 14.8883 12.7677L26.5157 24.3951C27.1015 24.9809 27.1015 25.9306 26.5157 26.5164Z" fill="white" stroke="white"/>
</svg>
