<svg width="64" height="62" viewBox="0 0 64 62" fill="none" xmlns="http://www.w3.org/2000/svg">
<path d="M29.3472 2.78115C30.2453 0.017222 34.1555 0.0172196 35.0536 2.78115L40.4625 19.4282C40.8641 20.6642 42.016 21.5011 43.3157 21.5011L60.8194 21.5011C63.7256 21.5011 64.9339 25.22 62.5827 26.9282L48.4219 37.2166C47.3705 37.9805 46.9305 39.3346 47.3321 40.5707L52.7411 57.2177C53.6391 59.9817 50.4757 62.28 48.1245 60.5718L33.9637 50.2834C32.9123 49.5195 31.4885 49.5195 30.437 50.2834L16.2762 60.5718C13.9251 62.28 10.7617 59.9817 11.6597 57.2177L17.0687 40.5707C17.4703 39.3346 17.0303 37.9805 15.9788 37.2166L1.81804 26.9282C-0.533104 25.22 0.675221 21.5011 3.58139 21.5011L21.0851 21.5011C22.3848 21.5011 23.5367 20.6642 23.9383 19.4282L29.3472 2.78115Z" fill="#FFD643"/>
</svg>
