<svg width="48" height="48" viewBox="0 0 48 48" fill="none" xmlns="http://www.w3.org/2000/svg">
<path d="M22 13L32.5528 7.72361C33.2177 7.39116 34 7.87465 34 8.61803V31.259C34 32.0308 33.1628 32.5116 32.4961 32.1227L22 26V13Z" fill="#919599"/>
<path d="M36 15.7301L36 25.2685L36 26C38.7874 25.8097 41 23.4191 41 20.5C41 17.5809 38.7874 15.1903 36 15L36 15.7301Z" fill="#919599"/>
<path d="M7 19.5C7 15.9101 9.91015 13 13.5 13H22V26H13.5C9.91015 26 7 23.0899 7 19.5Z" fill="#919599"/>
<path d="M18.9 41C16.7461 41 15 39.2539 15 37.1L15 24L22.8 24L22.8 37.1C22.8 39.2539 21.0539 41 18.9 41Z" fill="#919599"/>
</svg>
