<svg width="150" height="150" viewBox="0 0 150 150" fill="none" xmlns="http://www.w3.org/2000/svg">
<rect width="150" height="150" rx="16" fill="#F5F6F7"/>
<path d="M10 61C10 57.6863 12.6863 55 16 55H134C137.314 55 140 57.6863 140 61V128C140 131.314 137.314 134 134 134H16C12.6863 134 10 131.314 10 128V61Z" fill="#010509"/>
<mask id="mask0_509_6918" style="mask-type:alpha" maskUnits="userSpaceOnUse" x="10" y="55" width="130" height="79">
<path d="M10 61C10 57.6863 12.6863 55 16 55H134C137.314 55 140 57.6863 140 61V128C140 131.314 137.314 134 134 134H16C12.6863 134 10 131.314 10 128V61Z" fill="#9C04FA"/>
</mask>
<g mask="url(#mask0_509_6918)">
<path d="M10 47H140V141H10V47Z" fill="url(#paint0_linear_509_6918)"/>
</g>
<path d="M71.9111 118.308H68.5791V101.172L65.7511 102.432L64.4351 99.408L68.5791 97.476H71.9111V118.308ZM81.4913 124.24H78.1793L80.4353 118.12L75.1553 104.392H78.1793L82.1633 114.448L86.0993 104.392H89.1713L81.4913 124.24ZM100.667 109.912C100.315 109.096 99.8113 108.464 99.1553 108.016C98.4993 107.552 97.7953 107.32 97.0433 107.32C96.2913 107.32 95.5633 107.552 94.8593 108.016C94.1713 108.48 93.6673 109.112 93.3473 109.912H100.667ZM90.3953 111.376C90.3953 110.128 90.6913 108.976 91.2833 107.92C91.8753 106.848 92.6753 106 93.6833 105.376C94.7073 104.736 95.8273 104.416 97.0433 104.416C98.2433 104.416 99.2673 104.688 100.115 105.232C100.979 105.76 101.627 106.32 102.059 106.912C102.507 107.488 102.779 107.896 102.875 108.136C103.387 109.08 103.643 110.296 103.643 111.784L103.619 112.528H93.3233C93.5153 113.376 93.9713 114.072 94.6913 114.616C95.4273 115.16 96.2113 115.432 97.0433 115.432C97.6993 115.432 98.2913 115.272 98.8193 114.952C99.3473 114.632 99.7713 114.248 100.091 113.8L102.803 114.976C102.259 115.904 101.483 116.696 100.475 117.352C99.4833 117.992 98.3393 118.312 97.0433 118.312C95.8273 118.312 94.7073 118 93.6833 117.376C92.6753 116.736 91.8753 115.888 91.2833 114.832C90.6913 113.76 90.3953 112.608 90.3953 111.376ZM112.233 115.552C112.889 115.552 113.497 115.376 114.057 115.024C114.633 114.656 115.097 114.168 115.449 113.56C115.801 112.936 115.977 112.248 115.977 111.496C115.977 110.744 115.801 110.064 115.449 109.456C115.097 108.832 114.633 108.344 114.057 107.992C113.497 107.624 112.889 107.44 112.233 107.44C111.561 107.44 110.937 107.616 110.361 107.968C109.801 108.32 109.345 108.808 108.993 109.432C108.657 110.056 108.489 110.744 108.489 111.496C108.489 112.248 108.657 112.936 108.993 113.56C109.345 114.168 109.801 114.656 110.361 115.024C110.937 115.376 111.561 115.552 112.233 115.552ZM105.489 111.496C105.489 110.264 105.777 109.12 106.353 108.064C106.945 106.992 107.737 106.144 108.729 105.52C109.737 104.88 110.841 104.56 112.041 104.56C112.889 104.56 113.609 104.696 114.201 104.968C114.809 105.24 115.449 105.664 116.121 106.24V104.488H119.001V118.24H116.121V116.776C115.593 117.32 115.001 117.736 114.345 118.024C113.689 118.312 112.921 118.456 112.041 118.456C110.841 118.456 109.737 118.144 108.729 117.52C107.737 116.88 106.945 116.024 106.353 114.952C105.777 113.88 105.489 112.728 105.489 111.496ZM125.088 106.48C125.264 106.064 125.592 105.712 126.072 105.424C126.552 105.12 127.08 104.888 127.656 104.728C128.232 104.568 128.736 104.488 129.168 104.488V107.368C128.384 107.368 127.68 107.56 127.056 107.944C126.432 108.328 125.944 108.832 125.592 109.456C125.256 110.08 125.088 110.744 125.088 111.448V118.24H122.208V104.488H125.088V106.48Z" fill="white"/>
<path d="M89.0748 28.9961L90.4379 30.012L89.0748 28.9961L83.2123 36.8619C81.2292 39.5228 81.4927 43.2346 83.832 45.5886L103.748 65.6294C106.367 68.2657 110.633 68.2657 113.252 65.6294L133.168 45.5886C135.507 43.2346 135.771 39.5228 133.788 36.862L127.925 28.9961C126.661 27.2996 124.669 26.3 122.553 26.3H94.4469C92.3309 26.3 90.3393 27.2996 89.0748 28.9961Z" fill="#492FEE" stroke="#F5F6F7" stroke-width="3.4" stroke-linecap="round" stroke-linejoin="round"/>
<path d="M109.454 57.9578C109.161 58.8921 107.839 58.8921 107.546 57.9578L102.948 43.2993C102.746 42.6551 103.227 42 103.902 42L113.097 42C113.772 42 114.254 42.6551 114.051 43.2993L109.454 57.9578Z" fill="#ADABFC"/>
<path d="M112.768 58.1879C112.32 58.6369 111.572 58.1745 111.774 57.5733L116.772 42.6818C116.908 42.2745 117.29 42 117.72 42L126.509 42C127.399 42 127.845 43.076 127.216 43.7063L112.768 58.1879Z" fill="#100499"/>
<path d="M104.151 58.1879C104.599 58.6369 105.347 58.1745 105.145 57.5733L100.147 42.6818C100.011 42.2745 99.6291 42 99.1994 42L90.4104 42C89.52 42 89.0736 43.076 89.7024 43.7063L104.151 58.1879Z" fill="white"/>
<path d="M49.5675 11.9083C49.368 10.7535 49.1267 9.45786 48.8345 8C48.5399 9.45786 48.301 10.7535 48.1015 11.9083C47.1853 17.1981 43.5738 21.8317 38 23.7095C43.5993 25.5945 47.1923 30.2544 48.1015 35.5108C48.301 36.6656 48.5399 37.9612 48.8345 39.4191C49.1267 37.9612 49.368 36.6656 49.5675 35.5108C50.0379 32.8094 51.2118 30.2899 52.9641 28.2206C54.7164 26.1513 56.9815 24.6095 59.5182 23.7596L59.6666 23.7095C54.1183 21.8413 50.486 17.2315 49.5675 11.9083Z" fill="#FF005C"/>
<path d="M72.3627 43.8383C72.5261 44.7739 72.7245 45.821 72.9696 47.0001C73.2118 45.8269 73.4102 44.7739 73.5736 43.8383C73.9673 41.631 74.9548 39.5743 76.429 37.8912C77.9033 36.2082 79.8079 34.9631 81.9363 34.2912C79.8087 33.6201 77.9047 32.3761 76.431 30.694C74.9572 29.0119 73.97 26.9562 73.5765 24.75C73.4102 23.8143 73.2118 22.7672 72.9696 21.5881C72.7245 22.7614 72.5261 23.8143 72.3627 24.75C71.9685 26.9567 70.9808 29.0128 69.5066 30.6953C68.0323 32.3778 66.128 33.6224 64 34.2941C66.1273 34.967 68.0311 36.212 69.5051 37.8942C70.9791 39.5765 71.9673 41.632 72.3627 43.8383Z" fill="#FF005C"/>
<path d="M84.0432 27.5C84.2053 26.7451 84.3373 26.0778 84.4466 25.4797C84.7075 24.0686 85.3631 22.7536 86.342 21.6774C87.321 20.6012 88.586 19.8049 89.9997 19.375C84.7218 17.7011 84.4353 13.077 84.0432 11.25C83.8811 12.0049 83.7492 12.6722 83.6399 13.2703C83.3782 14.6817 82.722 15.9968 81.7424 17.073C80.7628 18.1492 79.4972 18.9453 78.083 19.375C83.3684 21.0489 83.6662 25.673 84.0432 27.5Z" fill="#FF005C"/>
<defs>
<linearGradient id="paint0_linear_509_6918" x1="75" y1="39.5" x2="75" y2="141" gradientUnits="userSpaceOnUse">
<stop stop-color="#B196FF"/>
<stop offset="0.390625" stop-color="#905BFF"/>
<stop offset="0.671875" stop-color="#5B17BE"/>
<stop offset="1" stop-color="#3A0095"/>
</linearGradient>
</defs>
</svg>
