<svg width="150" height="150" viewBox="0 0 150 150" fill="none" xmlns="http://www.w3.org/2000/svg">
<rect width="150" height="150" rx="16" fill="#F5F6F7"/>
<path d="M10 61C10 57.6863 12.6863 55 16 55H134C137.314 55 140 57.6863 140 61V128C140 131.314 137.314 134 134 134H16C12.6863 134 10 131.314 10 128V61Z" fill="#010509"/>
<path d="M50.344 109.024C51.736 108.184 52.84 106.84 52.84 105.256C52.84 102.544 50.536 100.552 47.224 100.552C43.864 100.552 41.56 102.544 41.56 105.472H44.392C44.392 104.32 45.232 103.216 47.224 103.216C49.192 103.216 50.2 104.344 50.2 105.448C50.2 106.624 49.144 107.776 47.152 107.776H45.88V110.32H47.104C49.528 110.32 50.464 111.592 50.464 112.888C50.464 114.184 49.312 115.456 47.056 115.456C44.824 115.456 43.864 114.16 43.864 112.888H41.032C41.032 116.008 43.408 118.12 47.056 118.12C50.728 118.12 53.128 116.008 53.128 113.104C53.128 111.352 51.856 109.912 50.344 109.024ZM72.3248 111.232V118.24H75.1808V111.16C75.1808 107.488 72.5888 105.592 69.8768 105.592C67.6928 105.592 66.6128 106.792 65.7728 108.112C64.9328 106.624 63.8528 105.592 61.8608 105.592C60.5168 105.592 59.4608 106.456 58.7408 107.704V105.592H55.8848V118.24H58.7408V111.304C58.7408 109.648 60.0848 108.472 61.5248 108.472C63.3248 108.472 64.1168 109.648 64.1168 111.232V118.24H66.9488V111.232C66.9488 109.648 68.1488 108.448 69.7088 108.448C71.1728 108.448 72.3248 109.648 72.3248 111.232ZM83.8116 115.624C81.6516 115.624 80.2836 114.04 80.2836 111.928C80.2836 109.84 81.6516 108.256 83.8116 108.256C85.9716 108.256 87.3396 109.84 87.3396 111.928C87.3396 114.04 85.9716 115.624 83.8116 115.624ZM77.6436 111.928C77.6436 115.384 80.0916 118.336 83.8116 118.336C87.6996 118.336 89.9796 115.384 89.9796 111.928C89.9796 108.472 87.6996 105.52 83.8116 105.52C80.0916 105.52 77.6436 108.472 77.6436 111.928ZM101.16 111.4V118.24H104.016V111.328C104.016 107.296 101.496 105.592 98.5684 105.592C97.2964 105.592 95.9284 106.312 95.0884 107.512V105.592H92.2324V118.24H95.0884V111.496C95.0404 109.792 96.4084 108.4 98.1364 108.4C100.224 108.4 101.16 109.672 101.16 111.4ZM114.637 118.024L114.061 115.096C113.629 115.192 112.741 115.288 112.141 115.264C111.517 115.24 111.085 114.904 111.085 114.136V108.232H114.421V105.448H111.085V100.96H108.109V105.448H105.925V108.232H108.109V114.136C108.109 116.416 110.101 118.168 112.045 118.24C112.885 118.264 114.061 118.12 114.637 118.024ZM125.7 111.664V118.312H128.484V111.28C128.484 108.328 126.54 105.736 123.012 105.736C122.148 105.736 120.612 106.24 119.772 107.392V99.904H116.892V118.312H119.772V111.856C119.772 110.152 121.14 108.616 122.94 108.616C124.932 108.616 125.7 109.984 125.7 111.664Z" fill="white"/>
<path d="M89.0748 28.9961L90.4379 30.012L89.0748 28.9961L83.2123 36.8619C81.2292 39.5228 81.4927 43.2346 83.832 45.5886L103.748 65.6294C106.367 68.2657 110.633 68.2657 113.252 65.6294L133.168 45.5886C135.507 43.2346 135.771 39.5228 133.788 36.862L127.925 28.9961C126.661 27.2996 124.669 26.3 122.553 26.3H94.4469C92.3309 26.3 90.3393 27.2996 89.0748 28.9961Z" fill="#A52FEE" stroke="#F5F6F7" stroke-width="3.4" stroke-linecap="round" stroke-linejoin="round"/>
<path d="M109.454 57.9578C109.161 58.8921 107.839 58.8921 107.546 57.9578L102.948 43.2993C102.746 42.6551 103.227 42 103.902 42L113.097 42C113.772 42 114.254 42.6551 114.051 43.2993L109.454 57.9578Z" fill="#E7ABFC"/>
<path d="M112.767 58.1879C112.319 58.6369 111.571 58.1745 111.773 57.5733L116.771 42.6818C116.907 42.2745 117.289 42 117.719 42L126.508 42C127.398 42 127.844 43.076 127.216 43.7063L112.767 58.1879Z" fill="#6D17C2"/>
<path d="M104.151 58.1879C104.599 58.6369 105.347 58.1745 105.145 57.5733L100.147 42.6818C100.011 42.2745 99.6291 42 99.1994 42L90.4104 42C89.52 42 89.0736 43.076 89.7024 43.7063L104.151 58.1879Z" fill="white"/>
<path d="M49.5675 11.9083C49.368 10.7535 49.1267 9.45786 48.8345 8C48.5399 9.45786 48.301 10.7535 48.1015 11.9083C47.1853 17.1981 43.5738 21.8317 38 23.7095C43.5993 25.5945 47.1923 30.2544 48.1015 35.5108C48.301 36.6656 48.5399 37.9612 48.8345 39.4191C49.1267 37.9612 49.368 36.6656 49.5675 35.5108C50.0379 32.8094 51.2118 30.2899 52.9641 28.2206C54.7164 26.1513 56.9815 24.6095 59.5182 23.7596L59.6666 23.7095C54.1183 21.8413 50.486 17.2315 49.5675 11.9083Z" fill="#FF005C"/>
<path d="M72.3627 43.8381C72.5261 44.7737 72.7245 45.8208 72.9696 46.9999C73.2118 45.8267 73.4102 44.7737 73.5736 43.8381C73.9673 41.6308 74.9548 39.574 76.429 37.891C77.9033 36.208 79.8079 34.9629 81.9363 34.291C79.8087 33.6199 77.9047 32.3758 76.431 30.6938C74.9572 29.0117 73.97 26.956 73.5765 24.7497C73.4102 23.8141 73.2118 22.767 72.9696 21.5879C72.7245 22.7611 72.5261 23.8141 72.3627 24.7497C71.9685 26.9565 70.9808 29.0126 69.5066 30.6951C68.0323 32.3776 66.128 33.6222 64 34.2939C66.1273 34.9668 68.0311 36.2117 69.5051 37.894C70.9791 39.5763 71.9673 41.6318 72.3627 43.8381Z" fill="#FF005C"/>
<path d="M84.0442 27.5C84.2063 26.7451 84.3382 26.0778 84.4476 25.4797C84.7085 24.0686 85.3641 22.7536 86.343 21.6774C87.3219 20.6012 88.5869 19.8049 90.0007 19.375C84.7228 17.7011 84.4363 13.077 84.0442 11.25C83.8821 12.0049 83.7502 12.6722 83.6408 13.2703C83.3792 14.6817 82.7229 15.9968 81.7433 17.073C80.7637 18.1492 79.4982 18.9453 78.084 19.375C83.3694 21.0489 83.6672 25.673 84.0442 27.5Z" fill="#FF005C"/>
</svg>
