<svg width="48" height="48" viewBox="0 0 48 48" fill="none" xmlns="http://www.w3.org/2000/svg">
<circle cx="31.3022" cy="20.8481" r="14.8481" fill="#9D32CF"/>
<circle cx="19" cy="26" r="16.7" fill="#9D32CF" stroke="white" stroke-width="3.4"/>
<path d="M19.6483 34.534C18.9827 34.534 18.2792 34.4211 17.5379 34.1953C16.7966 33.9695 16.0705 33.6308 15.3594 33.1793C14.6484 32.7277 13.9979 32.1552 13.4079 31.4617C12.833 30.7521 12.3716 29.9296 12.0236 28.9943C11.6908 28.0428 11.5244 26.9622 11.5244 25.7527C11.5244 24.5915 11.6908 23.5594 12.0236 22.6563C12.3716 21.737 12.833 20.9387 13.4079 20.2614C13.9828 19.584 14.6257 19.0276 15.3368 18.5922C16.0478 18.1407 16.7815 17.81 17.5379 17.6004C18.2943 17.3746 19.0129 17.2617 19.6937 17.2617C20.4653 17.2617 21.1385 17.3585 21.7134 17.552C22.2882 17.7455 22.7572 17.9471 23.1203 18.1568C23.4834 18.3503 23.7103 18.4874 23.8011 18.568C24.0734 18.7454 24.3306 18.947 24.5726 19.1728C24.8147 19.3986 24.9433 19.6969 24.9584 20.0679C24.9584 20.2614 24.9206 20.4549 24.8449 20.6484C24.7844 20.8258 24.6861 21.0194 24.5499 21.229C24.3079 21.5999 24.0734 21.8741 23.8464 22.0515C23.6347 22.2128 23.4153 22.2934 23.1884 22.2934C23.0068 22.2934 22.8328 22.245 22.6664 22.1483C22.5152 22.0515 22.3185 21.9225 22.0764 21.7612C21.9705 21.6806 21.8192 21.5838 21.6226 21.4709C21.4259 21.3419 21.1612 21.229 20.8283 21.1322C20.4955 21.0194 20.0719 20.9629 19.5576 20.9629C19.0281 20.9629 18.491 21.0677 17.9464 21.2774C17.4169 21.4709 16.9252 21.7693 16.4714 22.1725C16.0175 22.5756 15.6545 23.0917 15.3821 23.7207C15.1098 24.3335 14.9737 25.0512 14.9737 25.8736C14.9737 26.7284 15.1098 27.4622 15.3821 28.075C15.6696 28.6878 16.0402 29.1959 16.4941 29.599C16.9479 30.0022 17.4396 30.3086 17.9691 30.5183C18.5137 30.7118 19.0432 30.8086 19.5576 30.8086C20.0114 30.8086 20.3972 30.7602 20.7149 30.6634C21.0477 30.5667 21.3276 30.4538 21.5545 30.3248C21.7966 30.1796 22.0008 30.0506 22.1672 29.9377C22.3336 29.8248 22.5 29.72 22.6664 29.6232C22.848 29.5265 23.0295 29.4781 23.2111 29.4781C23.4229 29.4781 23.6347 29.5668 23.8464 29.7442C24.0734 29.9216 24.3003 30.2038 24.5272 30.5909C24.6634 30.8005 24.7693 31.0102 24.8449 31.2198C24.9206 31.4133 24.9508 31.6069 24.9357 31.8004C24.9357 32.1391 24.8147 32.4213 24.5726 32.6471C24.3306 32.8567 24.0734 33.0503 23.8011 33.2277C23.68 33.2922 23.4455 33.4373 23.0976 33.6631C22.7496 33.8727 22.2882 34.0663 21.7134 34.2437C21.1385 34.4372 20.4501 34.534 19.6483 34.534Z" fill="white"/>
</svg>
