<svg width="56" height="58" viewBox="0 0 56 58" fill="none" xmlns="http://www.w3.org/2000/svg">
<rect x="8" y="5" width="38" height="38" fill="#C4CACA"/>
<path d="M56 41.9724C56 47.4174 49 53.3407 30.2968 54.7739C12.6383 56.1264 0 51.3346 0 42.4499C0 33.3742 10.6094 30.7574 18.9211 30.7574C28.4376 30.7574 34.4498 34.6449 46.5939 36.0496C54.0314 36.9089 56 39.4885 56 41.9724Z" fill="#41A033"/>
<path d="M3 6C3 4.89549 3.56517 4 4.26226 4L51.7377 4C52.4355 4 53 4.89549 53 6C53 7.10451 52.4355 8 51.7377 8L4.26226 8C3.56517 8 3 7.10451 3 6Z" fill="#FFAF00"/>
<path d="M27.2505 31.8254C27.5297 31.8987 27.7677 32.0831 27.8773 32.3569L31.0483 40.4062C34.4319 39.0305 39.799 37.45 44.0926 36.884C44.9583 36.7723 45.6789 37.2231 46.2974 37.7785C47.5785 38.9199 48.5063 41.9445 47.8113 43.6611C47.5049 44.4082 46.2502 45.0322 45.3939 45.1832C40.7493 45.9926 35.2323 45.2584 31.6638 45.1871C30.7174 45.1665 30.106 43.6571 30.0418 43.4849L25.9111 32.995C25.8198 32.7682 25.8498 32.5311 25.95 32.332L27.2505 31.8254Z" fill="#0F3D08"/>
<path d="M30.8707 41.737C31.5782 41.4502 31.9218 40.6502 31.638 39.9501L18.5617 6.96184C18.2776 6.26109 17.4742 5.92672 16.7668 6.2135C16.0593 6.50027 15.7154 7.29965 15.9995 8.0004L29.0758 40.9887C29.3596 41.6887 30.1632 42.0238 30.8707 41.737Z" fill="#0F3D08"/>
<path d="M27.6098 31.8254C27.3306 31.8987 27.0927 32.0831 26.9831 32.3569L23.812 40.4062C20.4284 39.0305 15.0614 37.45 10.7678 36.884C9.90208 36.7723 9.18147 37.2231 8.56294 37.7785C7.28187 38.9199 6.35405 41.9445 7.04909 43.6611C7.35541 44.4082 8.61019 45.0322 9.46642 45.1832C14.111 45.9926 19.6281 45.2584 23.1966 45.1871C24.143 45.1665 24.7544 43.6571 24.8186 43.4849L28.9493 32.995C29.0406 32.7682 29.0105 32.5311 28.9103 32.332L27.6098 31.8254Z" fill="#0F3D08"/>
<path d="M23.9896 41.737C23.2821 41.4502 22.9386 40.6502 23.2223 39.9501L36.2987 6.96184C36.5827 6.26109 37.3861 5.92672 38.0936 6.2135C38.8011 6.50027 39.1449 7.29965 38.8609 8.0004L25.7845 40.9887C25.5008 41.6887 24.6971 42.0238 23.9896 41.737Z" fill="#0F3D08"/>
<path d="M45.0503 48.8241C47.7839 47.7037 49.0821 44.6026 47.9497 41.8977C46.8174 39.1928 43.6834 37.9083 40.9497 39.0288C38.2161 40.1492 36.9179 43.2503 38.0503 45.9552C39.1826 48.6601 42.3166 49.9445 45.0503 48.8241Z" fill="white"/>
</svg>
