<svg width="64" height="62" viewBox="0 0 64 62" fill="none" xmlns="http://www.w3.org/2000/svg">
<path d="M28.9468 2.78115C29.8449 0.0172219 33.7551 0.0172195 34.6532 2.78115L40.0621 19.4282C40.4637 20.6642 41.6156 21.5011 42.9153 21.5011L60.419 21.5011C63.3252 21.5011 64.5335 25.22 62.1824 26.9282L48.0215 37.2166C46.9701 37.9805 46.5301 39.3346 46.9317 40.5707L52.3407 57.2177C53.2387 59.9817 50.0753 62.28 47.7242 60.5718L33.5634 50.2834C32.5119 49.5195 31.0881 49.5195 30.0366 50.2834L15.8758 60.5718C13.5247 62.28 10.3613 59.9817 11.2593 57.2177L16.6683 40.5707C17.0699 39.3346 16.6299 37.9805 15.5784 37.2166L1.41765 26.9282C-0.933495 25.22 0.27483 21.5011 3.181 21.5011L20.6847 21.5011C21.9844 21.5011 23.1363 20.6642 23.5379 19.4282L28.9468 2.78115Z" fill="#C1C5C9"/>
</svg>
