<svg width="150" height="150" viewBox="0 0 150 150" fill="none" xmlns="http://www.w3.org/2000/svg">
<rect width="150" height="150" rx="16" fill="#F5F6F7"/>
<path d="M10 61C10 57.6863 12.6863 55 16 55H134C137.314 55 140 57.6863 140 61V128C140 131.314 137.314 134 134 134H16C12.6863 134 10 131.314 10 128V61Z" fill="#96D645"/>
<path d="M50.344 109.024C51.736 108.184 52.84 106.84 52.84 105.256C52.84 102.544 50.536 100.552 47.224 100.552C43.864 100.552 41.56 102.544 41.56 105.472H44.392C44.392 104.32 45.232 103.216 47.224 103.216C49.192 103.216 50.2 104.344 50.2 105.448C50.2 106.624 49.144 107.776 47.152 107.776H45.88V110.32H47.104C49.528 110.32 50.464 111.592 50.464 112.888C50.464 114.184 49.312 115.456 47.056 115.456C44.824 115.456 43.864 114.16 43.864 112.888H41.032C41.032 116.008 43.408 118.12 47.056 118.12C50.728 118.12 53.128 116.008 53.128 113.104C53.128 111.352 51.856 109.912 50.344 109.024ZM72.3248 111.232V118.24H75.1808V111.16C75.1808 107.488 72.5888 105.592 69.8768 105.592C67.6928 105.592 66.6128 106.792 65.7728 108.112C64.9328 106.624 63.8528 105.592 61.8608 105.592C60.5168 105.592 59.4608 106.456 58.7408 107.704V105.592H55.8848V118.24H58.7408V111.304C58.7408 109.648 60.0848 108.472 61.5248 108.472C63.3248 108.472 64.1168 109.648 64.1168 111.232V118.24H66.9488V111.232C66.9488 109.648 68.1488 108.448 69.7088 108.448C71.1728 108.448 72.3248 109.648 72.3248 111.232ZM83.8116 115.624C81.6516 115.624 80.2836 114.04 80.2836 111.928C80.2836 109.84 81.6516 108.256 83.8116 108.256C85.9716 108.256 87.3396 109.84 87.3396 111.928C87.3396 114.04 85.9716 115.624 83.8116 115.624ZM77.6436 111.928C77.6436 115.384 80.0916 118.336 83.8116 118.336C87.6996 118.336 89.9796 115.384 89.9796 111.928C89.9796 108.472 87.6996 105.52 83.8116 105.52C80.0916 105.52 77.6436 108.472 77.6436 111.928ZM101.16 111.4V118.24H104.016V111.328C104.016 107.296 101.496 105.592 98.5684 105.592C97.2964 105.592 95.9284 106.312 95.0884 107.512V105.592H92.2324V118.24H95.0884V111.496C95.0404 109.792 96.4084 108.4 98.1364 108.4C100.224 108.4 101.16 109.672 101.16 111.4ZM114.637 118.024L114.061 115.096C113.629 115.192 112.741 115.288 112.141 115.264C111.517 115.24 111.085 114.904 111.085 114.136V108.232H114.421V105.448H111.085V100.96H108.109V105.448H105.925V108.232H108.109V114.136C108.109 116.416 110.101 118.168 112.045 118.24C112.885 118.264 114.061 118.12 114.637 118.024ZM125.7 111.664V118.312H128.484V111.28C128.484 108.328 126.54 105.736 123.012 105.736C122.148 105.736 120.612 106.24 119.772 107.392V99.904H116.892V118.312H119.772V111.856C119.772 110.152 121.14 108.616 122.94 108.616C124.932 108.616 125.7 109.984 125.7 111.664Z" fill="white"/>
<path d="M96.4778 32.8495C94.3895 32.2445 92.7138 32.2673 91.5959 32.4314L91.5945 32.4316C89.7433 32.7048 87.9766 33.5659 86.9916 35.0738C86.6475 35.5957 86.3731 36.1603 86.1755 36.7531L86.1754 36.7531L86.1721 36.7633C85.8665 37.6996 85.7294 38.6366 85.8643 39.6043C85.9368 40.1243 86.0827 40.6158 86.2876 41.0875C85.8435 41.3489 85.4354 41.6608 85.0697 42.0387C84.3903 42.741 83.9476 43.5781 83.6417 44.516L83.6416 44.516L83.6393 44.5233C83.4478 45.1195 83.3359 45.7383 83.3065 46.3637C83.2124 48.1629 84.1356 49.8963 85.472 51.2038L85.4748 51.2065C86.2816 51.9922 87.6194 52.9893 89.6578 53.7241C88.4444 55.5098 87.9522 57.1002 87.7658 58.2102C87.4533 60.0516 87.7317 61.9946 88.8689 63.393C89.2616 63.8801 89.7164 64.3139 90.2216 64.6835L90.2293 64.6891C91.0296 65.2676 91.8803 65.6844 92.8421 65.8545C93.3635 65.9466 93.8804 65.9598 94.397 65.9104C94.5098 66.4144 94.6824 66.8997 94.9316 67.3647C95.3928 68.2257 96.0556 68.9035 96.8563 69.4815L96.8563 69.4815L96.8656 69.4881C97.3742 69.8501 97.9274 70.145 98.5114 70.3659C100.193 71.0078 102.131 70.6746 103.792 69.8086C104.793 69.2876 106.165 68.327 107.501 66.6169C108.837 68.3272 110.208 69.2877 111.209 69.8086C112.871 70.6745 114.808 71.0078 116.49 70.366C117.075 70.1449 117.629 69.8489 118.138 69.4853L118.146 69.4796C118.946 68.9015 119.609 68.2245 120.071 67.3639C120.32 66.899 120.493 66.4139 120.605 65.91C121.123 65.9592 121.64 65.9456 122.162 65.853C123.122 65.6825 123.972 65.2664 124.771 64.6908L124.771 64.6908L124.782 64.6826C125.286 64.3131 125.741 63.8799 126.133 63.3937C127.271 61.9942 127.55 60.0504 127.236 58.2082C127.048 57.0998 126.555 55.509 125.342 53.7219C127.382 52.9888 128.72 51.9879 129.526 51.2012L129.527 51.2003C130.86 49.8974 131.788 48.1636 131.693 46.359C131.663 45.7345 131.552 45.1166 131.361 44.521L131.358 44.5119C131.052 43.5735 130.609 42.7364 129.929 42.0343C129.563 41.6564 129.155 41.3447 128.711 41.0833C128.916 40.6116 129.061 40.1202 129.134 39.6002C129.269 38.633 129.132 37.696 128.826 36.7592L128.827 36.7592L128.823 36.7486C128.625 36.1558 128.351 35.5912 128.007 35.069C127.021 33.5592 125.247 32.7056 123.411 32.4283L123.404 32.4273C122.287 32.2634 120.611 32.2379 118.522 32.8399C118.449 30.68 117.907 29.1034 117.406 28.0972L117.405 28.0959C116.571 26.4237 115.198 25.0166 113.454 24.5569C112.851 24.3939 112.23 24.3095 111.605 24.3059V24.3059H111.595C110.607 24.3059 109.673 24.4659 108.794 24.8909C108.317 25.1218 107.889 25.4143 107.5 25.7576C107.11 25.4143 106.682 25.1217 106.205 24.8909C105.326 24.4659 104.391 24.3059 103.404 24.3059V24.3058L103.393 24.3059C102.768 24.3096 102.145 24.3943 101.541 24.5578C99.8024 25.023 98.4309 26.4258 97.5957 28.0935L97.5943 28.0963C97.0915 29.1049 96.5494 30.685 96.4778 32.8495Z" fill="white" stroke="#F5F6F7" stroke-width="3.4"/>
<path d="M115.884 28.8548C115.19 27.464 114.144 26.4949 113.016 26.1995C112.553 26.0737 112.075 26.0087 111.595 26.0059C109.993 26.0059 108.927 26.5214 107.917 27.7838C107.88 27.8626 107.821 27.9293 107.747 27.976C107.673 28.0226 107.587 28.0474 107.5 28.0474C107.412 28.0474 107.327 28.0226 107.253 27.976C107.179 27.9293 107.12 27.8626 107.082 27.7838C106.072 26.5214 105.006 26.0059 103.404 26.0059C102.924 26.0087 102.446 26.0738 101.983 26.1995C100.854 26.5004 99.8094 27.4696 99.1157 28.8548C98.4042 30.282 97.4481 33.424 99.0212 38.4403C99.8216 40.9849 101.232 43.4123 102.995 45.2655C104.591 46.946 106.275 47.9484 107.499 47.9495C108.722 47.9495 110.409 46.946 112.005 45.2655C113.766 43.4123 115.177 40.9882 115.977 38.4403C117.553 33.424 116.595 30.282 115.884 28.8548Z" fill="#EE91A1"/>
<path d="M91.8427 34.1129C90.2985 34.3408 89.0489 35.03 88.413 36.0058C88.1494 36.4051 87.9394 36.8369 87.7882 37.2903C87.2935 38.8061 87.4546 39.9744 88.3518 41.3208C88.4156 41.3805 88.4609 41.4569 88.4827 41.5413C88.5044 41.6256 88.5016 41.7144 88.4745 41.7972C88.4475 41.88 88.3974 41.9534 88.33 42.009C88.2626 42.0645 88.1807 42.0998 88.0939 42.1108C86.5742 42.6772 85.7526 43.5258 85.2579 45.0426C85.1117 45.4979 85.0264 45.9703 85.0044 46.4477C84.9421 47.6083 85.5458 48.8972 86.6609 49.9881C87.8048 51.1022 90.5108 52.9753 95.7927 53.0395C98.4743 53.0693 101.227 52.4863 103.543 51.3876C105.642 50.3919 107.121 49.113 107.499 47.9579C107.877 46.7995 107.439 44.8944 106.326 42.8686C105.104 40.6293 103.219 38.545 101.032 37.0049C96.7244 33.9513 93.4258 33.8805 91.8427 34.1129Z" fill="#EE91A1"/>
<path d="M89.442 58.4927C89.1819 60.0239 89.4543 61.4201 90.1902 62.3229C90.4905 62.6957 90.8384 63.0279 91.2253 63.3109C92.5216 64.248 93.6878 64.4538 95.252 64.0234C95.4156 63.9886 95.5856 63.9993 95.7434 64.0544C95.8466 64.1868 95.9102 64.3456 95.9269 64.5124C95.998 66.1244 96.5561 67.1677 97.8513 68.1026C98.2417 68.3804 98.6666 68.6069 99.1153 68.7763C100.206 69.1934 101.625 69.0208 103.006 68.3006C104.425 67.5626 107.055 65.5811 108.744 60.6014C109.601 58.0722 109.891 55.2853 109.561 52.7562C109.262 50.4627 108.492 48.6626 107.502 47.949C106.512 47.2332 104.556 47.0639 102.277 47.4854C99.7568 47.9545 97.1842 49.0897 95.0319 50.6828C90.7873 53.8194 89.7055 56.9216 89.442 58.4927Z" fill="#EE91A1"/>
<path d="M111.996 68.3006C113.378 69.0208 114.797 69.1934 115.887 68.7763C116.336 68.607 116.761 68.3801 117.151 68.1015C118.447 67.1644 119.006 66.1244 119.077 64.5113C119.061 64.4258 119.069 64.3376 119.101 64.2567C119.134 64.1759 119.188 64.1058 119.259 64.0547C119.33 64.0036 119.413 63.9735 119.501 63.968C119.588 63.9624 119.675 63.9816 119.752 64.0234C121.316 64.4538 122.482 64.2447 123.778 63.3109C124.165 63.0276 124.513 62.6955 124.813 62.3229C125.549 61.419 125.822 60.0228 125.562 58.4927C125.295 56.9216 124.213 53.8194 119.976 50.6828C117.824 49.0897 115.25 47.9545 112.731 47.4854C110.447 47.0595 108.492 47.2332 107.506 47.949C106.516 48.6659 105.746 50.4627 105.447 52.7562C105.113 55.2853 105.407 58.0667 106.264 60.6003C107.947 65.5811 110.577 67.5626 111.996 68.3006Z" fill="#EE91A1"/>
<path d="M128.34 49.985C129.452 48.8985 130.059 47.6096 129.996 46.4446C129.974 45.9672 129.888 45.4949 129.743 45.0395C129.248 43.5227 128.425 42.6741 126.906 42.1076C126.753 42.04 126.622 41.9316 126.527 41.7945C126.521 41.6273 126.564 41.4619 126.649 41.3177C127.544 39.9712 127.706 38.8029 127.211 37.2872C127.06 36.8335 126.85 36.4014 126.587 36.0016C125.951 35.0269 124.697 34.3421 123.158 34.1097C121.575 33.8774 118.275 33.9416 113.968 36.9863C111.78 38.5352 109.9 40.6163 108.673 42.85C107.561 44.8802 107.122 46.7843 107.5 47.9393C107.879 49.0977 109.359 50.3822 111.458 51.369C113.774 52.4632 116.525 53.0496 119.208 53.0197C124.489 52.9821 127.196 51.1013 128.34 49.985Z" fill="#EE91A1"/>
<path d="M114.396 48.4031C114.306 48.26 114.188 48.1359 114.05 48.0382C113.912 47.9404 113.755 47.8708 113.59 47.8333C113.495 47.8122 113.398 47.8014 113.301 47.8013C113.096 47.8004 112.894 47.8485 112.711 47.9415C112.529 48.0345 112.372 48.1696 112.252 48.3356L109.251 47.6497C109.239 47.4665 109.198 47.2864 109.129 47.1164L111.542 45.2046C111.766 45.3252 112.02 45.3777 112.273 45.3557C112.526 45.3336 112.767 45.238 112.966 45.0807C113.176 44.9146 113.328 44.6877 113.403 44.4315C113.477 44.1753 113.469 43.9025 113.381 43.6508C113.293 43.399 113.128 43.1809 112.909 43.0266C112.691 42.8723 112.429 42.7894 112.161 42.7894C111.962 42.7898 111.766 42.836 111.587 42.9245C111.409 43.0129 111.253 43.1411 111.133 43.2992C111.012 43.4573 110.93 43.6409 110.893 43.8357C110.856 44.0305 110.864 44.2313 110.917 44.4224L108.503 46.3364C108.351 46.2315 108.184 46.1513 108.007 46.0986V43.024C108.282 42.909 108.509 42.7027 108.649 42.4401C108.789 42.1775 108.833 41.8749 108.774 41.5836C108.715 41.2922 108.557 41.0302 108.326 40.8419C108.095 40.6536 107.805 40.5508 107.506 40.5508C107.208 40.5508 106.918 40.6536 106.687 40.8419C106.456 41.0302 106.298 41.2922 106.239 41.5836C106.18 41.8749 106.224 42.1775 106.364 42.4401C106.504 42.7027 106.731 42.909 107.006 43.024V46.0963C106.876 46.1352 106.751 46.1886 106.634 46.2557C106.591 46.28 106.551 46.3054 106.511 46.3331L104.099 44.418C104.144 44.258 104.158 44.0908 104.139 43.9257C104.111 43.6794 104.012 43.4466 103.854 43.2551C103.696 43.0637 103.485 42.9218 103.248 42.8466C103.011 42.7715 102.757 42.7662 102.517 42.8315C102.276 42.8967 102.06 43.0298 101.894 43.2145C101.728 43.3993 101.62 43.6278 101.581 43.8727C101.543 44.1175 101.576 44.3682 101.678 44.5944C101.78 44.8207 101.945 45.0129 102.153 45.1478C102.362 45.2828 102.606 45.3548 102.855 45.3551C103.071 45.3552 103.283 45.3015 103.473 45.1991L105.886 47.1142C105.859 47.1791 105.837 47.2456 105.819 47.3133C105.789 47.4219 105.77 47.5331 105.762 47.6453L102.76 48.3279C102.641 48.1614 102.484 48.0258 102.301 47.9324C102.119 47.839 101.916 47.7906 101.711 47.7913C101.614 47.7913 101.517 47.8025 101.423 47.8245C101.113 47.8947 100.84 48.0759 100.657 48.3337C100.473 48.5914 100.391 48.9075 100.426 49.2216C100.462 49.5357 100.612 49.8258 100.849 50.0365C101.086 50.2471 101.392 50.3636 101.71 50.3636C101.807 50.3636 101.903 50.3525 101.998 50.3304C102.163 50.2936 102.32 50.2243 102.458 50.1267C102.597 50.029 102.714 49.905 102.804 49.7617C102.894 49.6213 102.954 49.4645 102.983 49.3004L105.991 48.6188C105.994 48.623 105.997 48.6275 105.999 48.6321C106.088 48.7859 106.201 48.9251 106.332 49.0448L104.992 51.8107H104.927C104.684 51.8114 104.446 51.88 104.24 52.0087C104.035 52.1374 103.869 52.321 103.763 52.5387C103.669 52.7347 103.625 52.9513 103.638 53.1684C103.65 53.3855 103.717 53.596 103.833 53.7802C103.949 53.9644 104.111 54.1163 104.302 54.2217C104.493 54.3271 104.708 54.3826 104.926 54.383C105.169 54.3821 105.407 54.3134 105.613 54.1847C105.819 54.0561 105.984 53.8725 106.09 53.655C106.2 53.4272 106.241 53.1721 106.206 52.9217C106.171 52.6712 106.063 52.4364 105.896 52.2466L107.236 49.4807C107.328 49.4953 107.42 49.5027 107.513 49.5028C107.604 49.5027 107.695 49.4953 107.786 49.4807L109.12 52.2466C109.009 52.3713 108.924 52.5159 108.868 52.6726C108.812 52.8319 108.788 53.0007 108.797 53.1693C108.807 53.338 108.85 53.503 108.924 53.655C109.03 53.8728 109.195 54.0566 109.401 54.1855C109.607 54.3144 109.845 54.3832 110.088 54.3841C110.306 54.3838 110.521 54.3285 110.712 54.2232C110.903 54.1179 111.065 53.9661 111.181 53.7821C111.297 53.598 111.365 53.3876 111.377 53.1706C111.389 52.9536 111.346 52.7369 111.252 52.5409C111.146 52.3233 110.981 52.1396 110.775 52.0109C110.569 51.8822 110.331 51.8136 110.088 51.8129H110.023L108.689 49.047C108.826 48.9234 108.942 48.7788 109.033 48.6188L112.04 49.3048C112.069 49.4683 112.129 49.6247 112.218 49.7651C112.308 49.9083 112.426 50.0325 112.564 50.1305C112.702 50.2284 112.859 50.2983 113.024 50.3359C113.119 50.3571 113.216 50.3678 113.313 50.368C113.544 50.3677 113.77 50.3059 113.969 50.1891C114.167 50.0723 114.331 49.9048 114.443 49.7038C114.554 49.5029 114.61 49.2759 114.604 49.0464C114.597 48.8169 114.529 48.5933 114.407 48.3987L114.396 48.4031Z" fill="white"/>
<path d="M65.0308 35.3555C64.918 36.2705 65.118 37.1203 65.581 37.685C65.7698 37.9192 65.985 38.1289 66.2221 38.3097C67.0197 38.9117 67.7199 39.0689 68.6381 38.8531C68.6856 38.8315 68.7377 38.8232 68.7893 38.8289C68.8409 38.8347 68.8901 38.8544 68.9321 38.886C68.9741 38.9177 69.0074 38.9601 69.0287 39.0093C69.05 39.0584 69.0586 39.1125 69.0535 39.1661C69.1394 40.1411 69.4998 40.7831 70.2974 41.3851C70.5362 41.5634 70.7945 41.7118 71.0668 41.8273C71.7272 42.1083 72.5658 42.0444 73.375 41.6501C74.1995 41.2506 75.7114 40.1238 76.5808 37.1682C77.0237 35.6432 77.1172 34.0318 76.854 32.4626C76.6129 31.0721 76.1064 29.9666 75.4973 29.5071C74.8882 29.0476 73.7187 28.8878 72.3709 29.0795C70.8518 29.3066 69.4048 29.8996 68.1456 30.811C65.7066 32.5758 65.1475 34.4165 65.0308 35.3555Z" fill="#EE91A1"/>
<path d="M43.3647 26.2688C42.805 25.2532 42.6485 24.1655 42.9375 23.2864C43.0537 22.9233 43.2126 22.5763 43.4111 22.2528C44.0815 21.1715 44.8426 20.6561 46.0366 20.4732C46.1033 20.4759 46.1693 20.461 46.228 20.4298C46.2868 20.3986 46.3363 20.3523 46.3716 20.2954C46.4069 20.2386 46.4269 20.1731 46.4294 20.1056C46.432 20.0381 46.417 19.9709 46.3861 19.9106C46.0354 18.7308 46.1663 17.81 46.8368 16.7287C47.0384 16.4072 47.2771 16.1115 47.5479 15.8475C48.204 15.2063 49.2328 14.8836 50.3799 14.9609C51.5478 15.0371 53.8725 15.6373 56.2816 18.6785C57.5178 20.2505 58.378 22.0889 58.7936 24.047C59.1526 25.7859 59.0629 27.3175 58.5508 28.1429C58.0387 28.9684 56.7198 29.7093 55.0251 30.1237C53.1099 30.5782 51.1106 30.571 49.187 30.1026C45.4614 29.1963 43.94 27.3106 43.3647 26.2688Z" fill="#EE91A1"/>
<path d="M84.3409 20.4594C83.7175 20.3239 83.1191 20.4005 82.7005 20.6703C82.527 20.7801 82.3688 20.9091 82.2291 21.0545C81.7634 21.544 81.6105 21.9982 81.7007 22.6218C81.7126 22.6548 81.715 22.6899 81.7078 22.7238C81.7005 22.7576 81.6838 22.789 81.6593 22.8147C81.6348 22.8405 81.6034 22.8598 81.5682 22.8707C81.533 22.8816 81.4952 22.8837 81.4585 22.8768C80.7812 22.8693 80.3158 23.066 79.8501 23.5554C79.712 23.7021 79.5933 23.8637 79.4964 24.0368C79.2606 24.4564 79.2513 25.0172 79.4714 25.5803C79.6942 26.1539 80.3744 27.2317 82.3558 28.0042C83.3786 28.399 84.4831 28.5676 85.5813 28.4968C86.5549 28.4288 87.349 28.1658 87.7044 27.792C88.0599 27.4182 88.2446 26.6526 88.1983 25.7456C88.1386 24.7224 87.8221 23.723 87.2742 22.827C86.2134 21.0917 84.9805 20.5989 84.3409 20.4594Z" fill="#EE91A1"/>
</svg>
