<svg width="150" height="150" viewBox="0 0 150 150" fill="none" xmlns="http://www.w3.org/2000/svg">
<rect width="150" height="150" rx="16" fill="#F5F6F7"/>
<path d="M10 61C10 57.6863 12.6863 55 16 55H134C137.314 55 140 57.6863 140 61V128C140 131.314 137.314 134 134 134H16C12.6863 134 10 131.314 10 128V61Z" fill="#9C04FA"/>
<mask id="mask0_308_7625" style="mask-type:alpha" maskUnits="userSpaceOnUse" x="10" y="55" width="130" height="79">
<path d="M10 61C10 57.6863 12.6863 55 16 55H134C137.314 55 140 57.6863 140 61V128C140 131.314 137.314 134 134 134H16C12.6863 134 10 131.314 10 128V61Z" fill="#9C04FA"/>
</mask>
<g mask="url(#mask0_308_7625)">
<path d="M10 55H140V134H10V55Z" fill="url(#paint0_linear_308_7625)"/>
</g>
<path d="M78.514 96.228H75.472L71.936 97.502L72.924 100.44L75.472 99.582V115H78.514V96.228ZM88.7531 112.27C86.3871 112.27 85.2951 110.632 85.2951 108.474C85.2951 106.368 86.3871 104.704 88.7531 104.704C90.6251 104.704 92.2371 106.264 92.2371 108.474C92.2371 110.736 90.6251 112.27 88.7531 112.27ZM82.1751 108.474C82.1751 112.114 84.4371 115.208 88.4671 115.208C89.6111 115.208 91.3791 114.766 92.4191 113.102V115H95.5651V95.396H92.4191V103.872C91.3791 102.364 89.7151 101.766 88.4671 101.766C84.4371 101.766 82.1751 104.886 82.1751 108.474ZM104.805 112.504C102.335 112.504 101.139 110.814 101.139 108.552C101.139 106.29 102.335 104.574 104.805 104.574C106.729 104.574 108.445 106.212 108.471 108.552C108.445 110.866 106.729 112.504 104.805 112.504ZM98.0189 108.552C98.0189 112.27 100.385 115.468 104.545 115.468C106.027 115.468 107.535 114.792 108.627 113.31V115.26H111.747V101.558H108.627V103.768C107.535 102.312 106.027 101.636 104.545 101.636C100.385 101.636 98.0189 104.808 98.0189 108.552ZM119.841 121.136L122.909 113.752L128.109 101.48H124.625L120.959 110.112L117.267 101.48H113.731L119.321 114.012L116.357 121.136H119.841Z" fill="white"/>
<path d="M89.0748 28.9961L90.4379 30.012L89.0748 28.9961L83.2123 36.8619C81.2292 39.5228 81.4927 43.2346 83.832 45.5886L103.748 65.6294C106.367 68.2657 110.633 68.2657 113.252 65.6294L133.168 45.5886C135.507 43.2346 135.771 39.5228 133.788 36.862L127.925 28.9961C126.661 27.2996 124.669 26.3 122.553 26.3H94.4469C92.3309 26.3 90.3393 27.2996 89.0748 28.9961Z" fill="#14B5E8" stroke="#F5F6F7" stroke-width="3.4" stroke-linecap="round" stroke-linejoin="round"/>
<path d="M109.454 57.9578C109.161 58.8921 107.839 58.8921 107.546 57.9578L102.948 43.2993C102.746 42.6551 103.227 42 103.902 42L113.097 42C113.772 42 114.254 42.6551 114.051 43.2993L109.454 57.9578Z" fill="#ABE8FC"/>
<g style="mix-blend-mode:multiply">
<path d="M112.768 58.1879C112.32 58.6369 111.572 58.1745 111.774 57.5733L116.772 42.6818C116.908 42.2745 117.29 42 117.72 42L126.509 42C127.399 42 127.845 43.076 127.216 43.7063L112.768 58.1879Z" fill="#14B5E8"/>
</g>
<path d="M104.151 58.1879C104.599 58.6369 105.347 58.1745 105.145 57.5733L100.147 42.6818C100.011 42.2745 99.6291 42 99.1994 42L90.4104 42C89.52 42 89.0736 43.076 89.7024 43.7063L104.151 58.1879Z" fill="white"/>
<path d="M49.5675 11.9083C49.368 10.7535 49.1267 9.45786 48.8345 8C48.5399 9.45786 48.301 10.7535 48.1015 11.9083C47.1853 17.1981 43.5738 21.8317 38 23.7095C43.5993 25.5945 47.1923 30.2544 48.1015 35.5108C48.301 36.6656 48.5399 37.9612 48.8345 39.4191C49.1267 37.9612 49.368 36.6656 49.5675 35.5108C50.0379 32.8094 51.2118 30.2899 52.9641 28.2206C54.7164 26.1513 56.9815 24.6095 59.5182 23.7596L59.6666 23.7095C54.1183 21.8413 50.486 17.2315 49.5675 11.9083Z" fill="#FFC400"/>
<path d="M72.3627 43.8383C72.5261 44.7739 72.7245 45.821 72.9696 47.0001C73.2118 45.8269 73.4102 44.7739 73.5736 43.8383C73.9673 41.631 74.9548 39.5743 76.429 37.8912C77.9033 36.2082 79.8079 34.9631 81.9363 34.2912C79.8087 33.6201 77.9047 32.3761 76.431 30.694C74.9572 29.0119 73.97 26.9562 73.5765 24.75C73.4102 23.8143 73.2118 22.7672 72.9696 21.5881C72.7245 22.7614 72.5261 23.8143 72.3627 24.75C71.9685 26.9567 70.9808 29.0128 69.5066 30.6953C68.0323 32.3778 66.128 33.6224 64 34.2941C66.1273 34.967 68.0311 36.212 69.5051 37.8942C70.9791 39.5765 71.9673 41.632 72.3627 43.8383Z" fill="#FFC400"/>
<path d="M84.0437 27.5C84.2058 26.7451 84.3377 26.0778 84.4471 25.4797C84.708 24.0686 85.3636 22.7536 86.3425 21.6774C87.3215 20.6012 88.5865 19.8049 90.0002 19.375C84.7223 17.7011 84.4358 13.077 84.0437 11.25C83.8816 12.0049 83.7497 12.6722 83.6404 13.2703C83.3787 14.6817 82.7224 15.9968 81.7428 17.073C80.7633 18.1492 79.4977 18.9453 78.0835 19.375C83.3689 21.0489 83.6667 25.673 84.0437 27.5Z" fill="#FFC400"/>
<defs>
<linearGradient id="paint0_linear_308_7625" x1="75" y1="55" x2="75" y2="134" gradientUnits="userSpaceOnUse">
<stop stop-color="#BB67EF"/>
<stop offset="0.291667" stop-color="#9C04FA"/>
<stop offset="0.635417" stop-color="#8E04FA"/>
<stop offset="1" stop-color="#5F00F5"/>
</linearGradient>
</defs>
</svg>
