<svg width="48" height="48" viewBox="0 0 48 48" fill="none" xmlns="http://www.w3.org/2000/svg">
<path d="M7 21C7 18.7909 8.79086 17 11 17H15C15.5523 17 16 17.4477 16 18V32C16 32.5523 15.5523 33 15 33H11C8.79086 33 7 31.2091 7 29V21Z" fill="#15A58B"/>
<path d="M42 21C42 18.7909 40.2091 17 38 17H34C33.4477 17 33 17.4477 33 18V32C33 32.5523 33.4477 33 34 33H38C40.2091 33 42 31.2091 42 29V21Z" fill="#15A58B"/>
<path d="M10.5 17C10.5 17.8284 11.1716 18.5 12 18.5C12.8284 18.5 13.5 17.8284 13.5 17H10.5ZM35.5 17C35.5 17.8284 36.1716 18.5 37 18.5C37.8284 18.5 38.5 17.8284 38.5 17H35.5ZM13.5 17V13H10.5V17H13.5ZM18 8.5H31V5.5H18V8.5ZM35.5 13V17H38.5V13H35.5ZM31 8.5C33.4853 8.5 35.5 10.5147 35.5 13H38.5C38.5 8.85786 35.1421 5.5 31 5.5V8.5ZM13.5 13C13.5 10.5147 15.5147 8.5 18 8.5V5.5C13.8579 5.5 10.5 8.85786 10.5 13H13.5Z" fill="#15A58B"/>
<path d="M28 40.5C27.1716 40.5 26.5 39.8284 26.5 39C26.5 38.1716 27.1716 37.5 28 37.5V40.5ZM35.5 29C35.5 28.1716 36.1716 27.5 37 27.5C37.8284 27.5 38.5 28.1716 38.5 29H35.5ZM28 37.5H35V40.5H28V37.5ZM35.5 37V29H38.5V37H35.5ZM35 37.5C35.2761 37.5 35.5 37.2761 35.5 37H38.5C38.5 38.933 36.933 40.5 35 40.5V37.5Z" fill="#15A58B"/>
<rect x="21" y="36" width="8" height="6" rx="3" fill="#15A58B"/>
</svg>
