<svg width="720" height="83" viewBox="0 0 720 83" fill="none" xmlns="http://www.w3.org/2000/svg">
<g filter="url(#filter0_d_308_7642)">
<path fill-rule="evenodd" clip-rule="evenodd" d="M457.85 43.6781C457.904 43.536 457.954 43.3925 458 43.2481V40.3076H458.392H466.608H467V43.248C467.046 43.3925 467.096 43.5359 467.15 43.6781C467.559 44.7539 468.185 45.7367 468.988 46.5671C469.792 47.3975 470.757 48.0584 471.826 48.5099C472.895 48.9614 474.046 49.1942 475.208 49.1942C476.371 49.1942 477.521 48.9614 478.59 48.5099C479.659 48.0584 480.624 47.3975 481.428 46.5671C482.232 45.7367 482.857 44.7539 483.266 43.6781C483.675 42.6024 483.859 41.4558 483.808 40.3076H492.399C492.348 41.4558 492.533 42.6024 492.942 43.6781C493.351 44.7539 493.976 45.7367 494.779 46.5671C495.583 47.3975 496.548 48.0584 497.617 48.5099C498.686 48.9614 499.837 49.1942 500.999 49.1942C502.162 49.1942 503.312 48.9614 504.381 48.5099C505.45 48.0584 506.415 47.3975 507.219 46.5671C508.023 45.7367 508.648 44.7539 509.057 43.6781C509.466 42.6024 509.65 41.4558 509.599 40.3076H518.207C518.156 41.4558 518.34 42.6024 518.749 43.6781C519.159 44.7539 519.784 45.7367 520.587 46.5671C521.391 47.3975 522.356 48.0584 523.425 48.5099C524.494 48.9614 525.645 49.1942 526.807 49.1942C527.97 49.1942 529.12 48.9614 530.189 48.5099C531.258 48.0584 532.223 47.3975 533.027 46.5671C533.831 45.7367 534.456 44.7539 534.865 43.6781C535.274 42.6024 535.458 41.4558 535.407 40.3076H543.998C543.947 41.4558 544.132 42.6024 544.541 43.6781C544.95 44.7539 545.575 45.7367 546.378 46.5671C547.182 47.3975 548.148 48.0584 549.216 48.5099C550.285 48.9614 551.436 49.1942 552.598 49.1942C553.761 49.1942 554.911 48.9614 555.98 48.5099C557.049 48.0584 558.015 47.3975 558.818 46.5671C559.622 45.7367 560.247 44.7539 560.656 43.6781C561.065 42.6024 561.249 41.4558 561.198 40.3076H569.806C569.755 41.4558 569.94 42.6024 570.349 43.6781C570.758 44.7539 571.383 45.7367 572.186 46.5671C572.99 47.3975 573.955 48.0584 575.024 48.5099C576.093 48.9614 577.244 49.1942 578.406 49.1942C579.569 49.1942 580.719 48.9614 581.788 48.5099C582.857 48.0584 583.822 47.3975 584.626 46.5671C585.43 45.7367 586.055 44.7539 586.464 43.6781C586.873 42.6024 587.057 41.4558 587.006 40.3076H595.598C595.546 41.4558 595.731 42.6024 596.14 43.6781C596.549 44.7539 597.174 45.7367 597.978 46.5671C598.781 47.3975 599.747 48.0584 600.816 48.5099C601.885 48.9614 603.035 49.1942 604.197 49.1942C605.36 49.1942 606.51 48.9614 607.579 48.5099C608.648 48.0584 609.614 47.3975 610.417 46.5671C611.221 45.7367 611.846 44.7539 612.255 43.6781C612.664 42.6024 612.849 41.4558 612.797 40.3076H621.406C621.354 41.4558 621.539 42.6024 621.948 43.6781C622.357 44.7539 622.982 45.7367 623.786 46.5671C624.589 47.3975 625.555 48.0584 626.624 48.5099C627.693 48.9614 628.843 49.1942 630.005 49.1942C631.168 49.1942 632.318 48.9614 633.387 48.5099C634.456 48.0584 635.422 47.3975 636.225 46.5671C637.029 45.7367 637.654 44.7539 638.063 43.6781C638.472 42.6024 638.656 41.4558 638.605 40.3076H647.197C647.145 41.4558 647.33 42.6024 647.739 43.6781C648.148 44.7539 648.773 45.7367 649.577 46.5671C650.38 47.3975 651.346 48.0584 652.415 48.5099C653.484 48.9614 654.634 49.1942 655.797 49.1942C656.959 49.1942 658.109 48.9614 659.178 48.5099C660.247 48.0584 661.213 47.3975 662.016 46.5671C662.82 45.7367 663.445 44.7539 663.854 43.6781C664.263 42.6024 664.448 41.4558 664.396 40.3076H673.005C672.953 41.4558 673.138 42.6024 673.547 43.6781C673.956 44.7539 674.581 45.7367 675.385 46.5671C676.188 47.3975 677.154 48.0584 678.223 48.5099C679.292 48.9614 680.442 49.1942 681.604 49.1942C682.767 49.1942 683.917 48.9614 684.986 48.5099C686.055 48.0584 687.021 47.3975 687.824 46.5671C688.628 45.7367 689.253 44.7539 689.662 43.6781C690.071 42.6024 690.256 41.4558 690.204 40.3076H698.796C698.744 41.4558 698.929 42.6024 699.338 43.6781C699.747 44.7539 700.372 45.7367 701.176 46.5671C701.979 47.3975 702.945 48.0584 704.014 48.5099C705.083 48.9614 706.233 49.1942 707.396 49.1942C708.558 49.1942 709.708 48.9614 710.777 48.5099C711.846 48.0584 712.812 47.3975 713.615 46.5671C714.419 45.7367 715.044 44.7539 715.453 43.6781C715.862 42.6024 716.047 41.4558 715.995 40.3076H724.604C724.552 41.4558 724.737 42.6024 725.146 43.6781C725.555 44.7539 726.18 45.7367 726.984 46.5671C727.787 47.3975 728.753 48.0584 729.822 48.5099C730.891 48.9614 732.041 49.1942 733.203 49.1942C734.366 49.1942 735.516 48.9614 736.585 48.5099C737.654 48.0584 738.62 47.3975 739.423 46.5671C740.227 45.7367 740.852 44.7539 741.261 43.6781C741.67 42.6024 741.855 41.4558 741.803 40.3076H750.395C750.344 41.4558 750.528 42.6024 750.937 43.6781C751.346 44.7539 751.971 45.7367 752.775 46.5671C753.578 47.3975 754.544 48.0584 755.613 48.5099C756.682 48.9614 757.832 49.1942 758.995 49.1942C760.157 49.1942 761.307 48.9614 762.376 48.5099C763.445 48.0584 764.411 47.3975 765.214 46.5671C766.018 45.7367 766.643 44.7539 767.052 43.6781C767.461 42.6024 767.646 41.4558 767.594 40.3076H776.203C776.151 41.4558 776.336 42.6024 776.745 43.6781C777.154 44.7539 777.779 45.7367 778.583 46.5671C779.386 47.3975 780.352 48.0584 781.421 48.5099C782.49 48.9614 783.64 49.1942 784.803 49.1942C785.965 49.1942 787.115 48.9614 788.184 48.5099C789.253 48.0584 790.219 47.3975 791.022 46.5671C791.826 45.7367 792.451 44.7539 792.86 43.6781C793.269 42.6024 793.454 41.4558 793.402 40.3076H801.994C801.943 41.4558 802.127 42.6024 802.536 43.6781C802.945 44.7539 803.57 45.7367 804.374 46.5671C805.178 47.3975 806.143 48.0584 807.212 48.5099C808.281 48.9614 809.431 49.1942 810.594 49.1942C811.756 49.1942 812.907 48.9614 813.976 48.5099C815.045 48.0584 816.01 47.3975 816.814 46.5671C817.617 45.7367 818.242 44.7539 818.651 43.6781C819.06 42.6024 819.245 41.4558 819.194 40.3076H827.802C827.75 41.4558 827.935 42.6024 828.344 43.6781C828.753 44.7539 829.378 45.7367 830.182 46.5671C830.985 47.3975 831.951 48.0584 833.02 48.5099C834.089 48.9614 835.239 49.1942 836.402 49.1942C837.564 49.1942 838.714 48.9614 839.783 48.5099C840.852 48.0584 841.818 47.3975 842.621 46.5671C843.425 45.7367 844.05 44.7539 844.459 43.6781C844.868 42.6024 845.053 41.4558 845.002 40.3076H853.593C853.542 41.4558 853.726 42.6024 854.135 43.6781C854.544 44.7539 855.169 45.7367 855.973 46.5671C856.777 47.3975 857.742 48.0584 858.811 48.5099C859.88 48.9614 861.03 49.1942 862.193 49.1942C863.355 49.1942 864.506 48.9614 865.575 48.5099C866.644 48.0584 867.609 47.3975 868.413 46.5671C869.216 45.7367 869.841 44.7539 870.25 43.6781C870.66 42.6024 870.844 41.4558 870.793 40.3076H879.401C879.35 41.4558 879.534 42.6024 879.943 43.6781C880.352 44.7539 880.977 45.7367 881.781 46.5671C882.584 47.3975 883.55 48.0584 884.619 48.5099C885.688 48.9614 886.838 49.1942 888.001 49.1942C889.163 49.1942 890.314 48.9614 891.383 48.5099C892.452 48.0584 893.417 47.3975 894.221 46.5671C895.024 45.7367 895.649 44.7539 896.058 43.6781C896.468 42.6024 896.652 41.4558 896.601 40.3076H905.192C905.141 41.4558 905.325 42.6024 905.734 43.6781C906.143 44.7539 906.768 45.7367 907.572 46.5671C908.376 47.3975 909.341 48.0584 910.41 48.5099C911.479 48.9614 912.629 49.1942 913.792 49.1942C914.954 49.1942 916.105 48.9614 917.174 48.5099C918.243 48.0584 919.208 47.3975 920.012 46.5671C920.815 45.7367 921.441 44.7539 921.85 43.6781C922.259 42.6024 922.443 41.4558 922.392 40.3076H931V71H922.392C922.443 69.8518 922.259 68.7052 921.85 67.6294C921.441 66.5536 920.815 65.5709 920.012 64.7405C919.208 63.91 918.243 63.2492 917.174 62.7977C916.105 62.3462 914.954 62.1134 913.792 62.1134C912.629 62.1134 911.479 62.3462 910.41 62.7977C909.341 63.2492 908.376 63.91 907.572 64.7405C906.768 65.5709 906.143 66.5536 905.734 67.6294C905.325 68.7052 905.141 69.8518 905.192 71H896.601C896.652 69.8518 896.468 68.7052 896.058 67.6294C895.649 66.5536 895.024 65.5709 894.221 64.7405C893.417 63.91 892.452 63.2492 891.383 62.7977C890.314 62.3462 889.163 62.1134 888.001 62.1134C886.838 62.1134 885.688 62.3462 884.619 62.7977C883.55 63.2492 882.584 63.91 881.781 64.7405C880.977 65.5709 880.352 66.5536 879.943 67.6294C879.534 68.7052 879.35 69.8518 879.401 71H870.793C870.844 69.8518 870.66 68.7052 870.25 67.6294C869.841 66.5536 869.216 65.5709 868.413 64.7405C867.609 63.91 866.644 63.2492 865.575 62.7977C864.506 62.3462 863.355 62.1134 862.193 62.1134C861.03 62.1134 859.88 62.3462 858.811 62.7977C857.742 63.2492 856.777 63.91 855.973 64.7405C855.169 65.5709 854.544 66.5536 854.135 67.6294C853.726 68.7052 853.542 69.8518 853.593 71H845.002C845.053 69.8518 844.868 68.7052 844.459 67.6294C844.05 66.5536 843.425 65.5709 842.621 64.7405C841.818 63.91 840.852 63.2492 839.783 62.7977C838.714 62.3462 837.564 62.1134 836.402 62.1134C835.239 62.1134 834.089 62.3462 833.02 62.7977C831.951 63.2492 830.985 63.91 830.182 64.7405C829.378 65.5709 828.753 66.5536 828.344 67.6294C827.935 68.7052 827.75 69.8518 827.802 71H819.194C819.245 69.8518 819.06 68.7052 818.651 67.6294C818.242 66.5536 817.617 65.5709 816.814 64.7405C816.01 63.91 815.045 63.2492 813.976 62.7977C812.907 62.3462 811.756 62.1134 810.594 62.1134C809.431 62.1134 808.281 62.3462 807.212 62.7977C806.143 63.2492 805.178 63.91 804.374 64.7405C803.57 65.5709 802.945 66.5536 802.536 67.6294C802.127 68.7052 801.943 69.8518 801.994 71H793.402C793.454 69.8518 793.269 68.7052 792.86 67.6294C792.451 66.5536 791.826 65.5709 791.022 64.7405C790.219 63.91 789.253 63.2492 788.184 62.7977C787.115 62.3462 785.965 62.1134 784.803 62.1134C783.64 62.1134 782.49 62.3462 781.421 62.7977C780.352 63.2492 779.386 63.91 778.583 64.7405C777.779 65.5709 777.154 66.5536 776.745 67.6294C776.336 68.7052 776.151 69.8518 776.203 71H767.594C767.646 69.8518 767.461 68.7052 767.052 67.6294C766.643 66.5536 766.018 65.5709 765.214 64.7405C764.411 63.91 763.445 63.2492 762.376 62.7977C761.307 62.3462 760.157 62.1134 758.995 62.1134C757.832 62.1134 756.682 62.3462 755.613 62.7977C754.544 63.2492 753.578 63.91 752.775 64.7405C751.971 65.5709 751.346 66.5536 750.937 67.6294C750.528 68.7052 750.344 69.8518 750.395 71H741.803C741.855 69.8518 741.67 68.7052 741.261 67.6294C740.852 66.5536 740.227 65.5709 739.423 64.7405C738.62 63.91 737.654 63.2492 736.585 62.7977C735.516 62.3462 734.366 62.1134 733.203 62.1134C732.041 62.1134 730.891 62.3462 729.822 62.7977C728.753 63.2492 727.787 63.91 726.984 64.7405C726.18 65.5709 725.555 66.5536 725.146 67.6294C724.737 68.7052 724.552 69.8518 724.604 71H715.995C716.047 69.8518 715.862 68.7052 715.453 67.6294C715.044 66.5536 714.419 65.5709 713.615 64.7405C712.812 63.91 711.846 63.2492 710.777 62.7977C709.708 62.3462 708.558 62.1134 707.396 62.1134C706.233 62.1134 705.083 62.3462 704.014 62.7977C702.945 63.2492 701.979 63.91 701.176 64.7405C700.372 65.5709 699.747 66.5536 699.338 67.6294C698.929 68.7052 698.744 69.8518 698.796 71H690.204C690.256 69.8518 690.071 68.7052 689.662 67.6294C689.253 66.5536 688.628 65.5709 687.824 64.7405C687.021 63.91 686.055 63.2492 684.986 62.7977C683.917 62.3462 682.767 62.1134 681.604 62.1134C680.442 62.1134 679.292 62.3462 678.223 62.7977C677.154 63.2492 676.188 63.91 675.385 64.7405C674.581 65.5709 673.956 66.5536 673.547 67.6294C673.138 68.7052 672.953 69.8518 673.005 71H664.396C664.448 69.8518 664.263 68.7052 663.854 67.6294C663.445 66.5536 662.82 65.5709 662.016 64.7405C661.213 63.91 660.247 63.2492 659.178 62.7977C658.109 62.3462 656.959 62.1134 655.797 62.1134C654.634 62.1134 653.484 62.3462 652.415 62.7977C651.346 63.2492 650.38 63.91 649.577 64.7405C648.773 65.5709 648.148 66.5536 647.739 67.6294C647.33 68.7052 647.145 69.8518 647.197 71H638.605C638.656 69.8518 638.472 68.7052 638.063 67.6294C637.654 66.5536 637.029 65.5709 636.225 64.7405C635.422 63.91 634.456 63.2492 633.387 62.7977C632.318 62.3462 631.168 62.1134 630.005 62.1134C628.843 62.1134 627.693 62.3462 626.624 62.7977C625.555 63.2492 624.589 63.91 623.786 64.7405C622.982 65.5709 622.357 66.5536 621.948 67.6294C621.539 68.7052 621.354 69.8518 621.406 71H612.797C612.849 69.8518 612.664 68.7052 612.255 67.6294C611.846 66.5536 611.221 65.5709 610.417 64.7405C609.614 63.91 608.648 63.2492 607.579 62.7977C606.51 62.3462 605.36 62.1134 604.197 62.1134C603.035 62.1134 601.885 62.3462 600.816 62.7977C599.747 63.2492 598.781 63.91 597.978 64.7405C597.174 65.5709 596.549 66.5536 596.14 67.6294C595.731 68.7052 595.546 69.8518 595.598 71H587.006C587.057 69.8518 586.873 68.7052 586.464 67.6294C586.055 66.5536 585.43 65.5709 584.626 64.7405C583.822 63.91 582.857 63.2492 581.788 62.7977C580.719 62.3462 579.569 62.1134 578.406 62.1134C577.244 62.1134 576.093 62.3462 575.024 62.7977C573.955 63.2492 572.99 63.91 572.186 64.7405C571.383 65.5709 570.758 66.5536 570.349 67.6294C569.94 68.7052 569.755 69.8518 569.806 71H561.198C561.249 69.8518 561.065 68.7052 560.656 67.6294C560.247 66.5536 559.622 65.5709 558.818 64.7405C558.015 63.91 557.049 63.2492 555.98 62.7977C554.911 62.3462 553.761 62.1134 552.598 62.1134C551.436 62.1134 550.285 62.3462 549.216 62.7977C548.148 63.2492 547.182 63.91 546.378 64.7405C545.575 65.5709 544.95 66.5536 544.541 67.6294C544.132 68.7052 543.947 69.8518 543.998 71H535.407C535.458 69.8518 535.274 68.7052 534.865 67.6294C534.456 66.5536 533.831 65.5709 533.027 64.7405C532.223 63.91 531.258 63.2492 530.189 62.7977C529.12 62.3462 527.97 62.1134 526.807 62.1134C525.645 62.1134 524.494 62.3462 523.425 62.7977C522.356 63.2492 521.391 63.91 520.587 64.7405C519.784 65.5709 519.159 66.5536 518.749 67.6294C518.34 68.7052 518.156 69.8518 518.207 71H509.599C509.65 69.8518 509.466 68.7052 509.057 67.6294C508.648 66.5536 508.023 65.5709 507.219 64.7405C506.415 63.91 505.45 63.2492 504.381 62.7977C503.312 62.3462 502.162 62.1134 500.999 62.1134C499.837 62.1134 498.686 62.3462 497.617 62.7977C496.548 63.2492 495.583 63.91 494.779 64.7405C493.976 65.5709 493.351 66.5536 492.942 67.6294C492.533 68.7052 492.348 69.8518 492.399 71H483.808C483.859 69.8518 483.675 68.7052 483.266 67.6294C482.857 66.5536 482.232 65.5709 481.428 64.7405C480.624 63.91 479.659 63.2492 478.59 62.7977C477.521 62.3462 476.371 62.1134 475.208 62.1134C474.046 62.1134 472.895 62.3462 471.826 62.7977C470.757 63.2492 469.792 63.91 468.988 64.7405C468.185 65.5709 467.559 66.5536 467.15 67.6294C467.096 67.7717 467.046 67.9151 467 68.0596V71H466.608H458.392H458V68.0595C457.954 67.915 457.904 67.7716 457.85 67.6294C457.441 66.5536 456.815 65.5709 456.012 64.7405C455.208 63.91 454.243 63.2492 453.174 62.7977C452.105 62.3462 450.954 62.1134 449.792 62.1134C448.629 62.1134 447.479 62.3462 446.41 62.7977C445.341 63.2492 444.376 63.91 443.572 64.7405C442.768 65.5709 442.143 66.5536 441.734 67.6294C441.325 68.7052 441.141 69.8518 441.192 71H432.601C432.652 69.8518 432.467 68.7052 432.058 67.6294C431.649 66.5536 431.024 65.5709 430.221 64.7405C429.417 63.91 428.452 63.2492 427.383 62.7977C426.314 62.3462 425.163 62.1134 424.001 62.1134C422.838 62.1134 421.688 62.3462 420.619 62.7977C419.55 63.2492 418.585 63.91 417.781 64.7405C416.977 65.5709 416.352 66.5536 415.943 67.6294C415.534 68.7052 415.35 69.8518 415.401 71H406.793C406.844 69.8518 406.66 68.7052 406.251 67.6294C405.841 66.5536 405.216 65.5709 404.413 64.7405C403.609 63.91 402.644 63.2492 401.575 62.7977C400.506 62.3462 399.355 62.1134 398.193 62.1134C397.03 62.1134 395.88 62.3462 394.811 62.7977C393.742 63.2492 392.777 63.91 391.973 64.7405C391.169 65.5709 390.544 66.5536 390.135 67.6294C389.726 68.7052 389.542 69.8518 389.593 71H381.002C381.053 69.8518 380.868 68.7052 380.459 67.6294C380.05 66.5536 379.425 65.5709 378.621 64.7405C377.818 63.91 376.852 63.2492 375.783 62.7977C374.715 62.3462 373.564 62.1134 372.402 62.1134C371.239 62.1134 370.089 62.3462 369.02 62.7977C367.951 63.2492 366.985 63.91 366.182 64.7405C365.378 65.5709 364.753 66.5536 364.344 67.6294C363.935 68.7052 363.751 69.8518 363.802 71H355.194C355.245 69.8518 355.06 68.7052 354.651 67.6294C354.242 66.5536 353.617 65.5709 352.814 64.7405C352.01 63.91 351.045 63.2492 349.976 62.7977C348.907 62.3462 347.756 62.1134 346.594 62.1134C345.431 62.1134 344.281 62.3462 343.212 62.7977C342.143 63.2492 341.178 63.91 340.374 64.7405C339.57 65.5709 338.945 66.5536 338.536 67.6294C338.127 68.7052 337.943 69.8518 337.994 71H329.402C329.454 69.8518 329.269 68.7052 328.86 67.6294C328.451 66.5536 327.826 65.5709 327.022 64.7405C326.219 63.91 325.253 63.2492 324.184 62.7977C323.115 62.3462 321.965 62.1134 320.803 62.1134C319.64 62.1134 318.49 62.3462 317.421 62.7977C316.352 63.2492 315.386 63.91 314.583 64.7405C313.779 65.5709 313.154 66.5536 312.745 67.6294C312.336 68.7052 312.151 69.8518 312.203 71H303.595C303.646 69.8518 303.461 68.7052 303.052 67.6294C302.643 66.5536 302.018 65.5709 301.215 64.7405C300.411 63.91 299.445 63.2492 298.376 62.7977C297.307 62.3462 296.157 62.1134 294.995 62.1134C293.832 62.1134 292.682 62.3462 291.613 62.7977C290.544 63.2492 289.578 63.91 288.775 64.7405C287.971 65.5709 287.346 66.5536 286.937 67.6294C286.528 68.7052 286.344 69.8518 286.395 71H277.803C277.855 69.8518 277.67 68.7052 277.261 67.6294C276.852 66.5536 276.227 65.5709 275.423 64.7405C274.62 63.91 273.654 63.2492 272.585 62.7977C271.516 62.3462 270.366 62.1134 269.204 62.1134C268.041 62.1134 266.891 62.3462 265.822 62.7977C264.753 63.2492 263.787 63.91 262.984 64.7405C262.18 65.5709 261.555 66.5536 261.146 67.6294C260.737 68.7052 260.552 69.8518 260.604 71H251.995C252.047 69.8518 251.862 68.7052 251.453 67.6294C251.044 66.5536 250.419 65.5709 249.615 64.7405C248.812 63.91 247.846 63.2492 246.777 62.7977C245.708 62.3462 244.558 62.1134 243.396 62.1134C242.233 62.1134 241.083 62.3462 240.014 62.7977C238.945 63.2492 237.979 63.91 237.176 64.7405C236.372 65.5709 235.747 66.5536 235.338 67.6294C234.929 68.7052 234.744 69.8518 234.796 71H226.204C226.256 69.8518 226.071 68.7052 225.662 67.6294C225.253 66.5536 224.628 65.5709 223.824 64.7405C223.021 63.91 222.055 63.2492 220.986 62.7977C219.917 62.3462 218.767 62.1134 217.604 62.1134C216.442 62.1134 215.292 62.3462 214.223 62.7977C213.154 63.2492 212.188 63.91 211.385 64.7405C210.581 65.5709 209.956 66.5536 209.547 67.6294C209.138 68.7052 208.953 69.8518 209.005 71H200.396C200.448 69.8518 200.263 68.7052 199.854 67.6294C199.445 66.5536 198.82 65.5709 198.016 64.7405C197.213 63.91 196.247 63.2492 195.178 62.7977C194.109 62.3462 192.959 62.1134 191.796 62.1134C190.634 62.1134 189.484 62.3462 188.415 62.7977C187.346 63.2492 186.38 63.91 185.577 64.7405C184.773 65.5709 184.148 66.5536 183.739 67.6294C183.33 68.7052 183.145 69.8518 183.197 71H174.605C174.657 69.8518 174.472 68.7052 174.063 67.6294C173.654 66.5536 173.029 65.5709 172.225 64.7405C171.422 63.91 170.456 63.2492 169.387 62.7977C168.318 62.3462 167.168 62.1134 166.005 62.1134C164.843 62.1134 163.692 62.3462 162.624 62.7977C161.555 63.2492 160.589 63.91 159.786 64.7405C158.982 65.5709 158.357 66.5536 157.948 67.6294C157.539 68.7052 157.354 69.8518 157.406 71H148.797C148.849 69.8518 148.664 68.7052 148.255 67.6294C147.846 66.5536 147.221 65.5709 146.417 64.7405C145.614 63.91 144.648 63.2492 143.579 62.7977C142.51 62.3462 141.36 62.1134 140.197 62.1134C139.035 62.1134 137.885 62.3462 136.816 62.7977C135.747 63.2492 134.781 63.91 133.978 64.7405C133.174 65.5709 132.549 66.5536 132.14 67.6294C131.731 68.7052 131.546 69.8518 131.598 71H123.006C123.057 69.8518 122.873 68.7052 122.464 67.6294C122.055 66.5536 121.43 65.5709 120.626 64.7405C119.822 63.91 118.857 63.2492 117.788 62.7977C116.719 62.3462 115.569 62.1134 114.406 62.1134C113.244 62.1134 112.093 62.3462 111.024 62.7977C109.955 63.2492 108.99 63.91 108.186 64.7405C107.383 65.5709 106.758 66.5536 106.349 67.6294C105.94 68.7052 105.755 69.8518 105.806 71H97.1982C97.2495 69.8518 97.0651 68.7052 96.656 67.6294C96.247 66.5536 95.6218 65.5709 94.8181 64.7405C94.0145 63.91 93.0491 63.2492 91.9801 62.7977C90.9112 62.3462 89.7608 62.1134 88.5983 62.1134C87.4359 62.1134 86.2855 62.3462 85.2165 62.7977C84.1475 63.2492 83.1821 63.91 82.3785 64.7405C81.5749 65.5709 80.9497 66.5536 80.5407 67.6294C80.1316 68.7052 79.9472 69.8518 79.9985 71H71.407C71.4583 69.8518 71.2739 68.7052 70.8648 67.6294C70.4558 66.5536 69.8306 65.5709 69.027 64.7405C68.2234 63.91 67.258 63.2492 66.189 62.7977C65.12 62.3462 63.9696 62.1134 62.8072 62.1134C61.6447 62.1134 60.4943 62.3462 59.4254 62.7977C58.3564 63.2492 57.391 63.91 56.5873 64.7405C55.7837 65.5709 55.1585 66.5536 54.7495 67.6294C54.3404 68.7052 54.156 69.8518 54.2073 71H45.5991C45.6504 69.8518 45.466 68.7052 45.0569 67.6294C44.6479 66.5536 44.0227 65.5709 43.2191 64.7405C42.4154 63.91 41.45 63.2492 40.3811 62.7977C39.3121 62.3462 38.1617 62.1134 36.9992 62.1134C35.8368 62.1134 34.6864 62.3462 33.6174 62.7977C32.5484 63.2492 31.583 63.91 30.7794 64.7405C29.9758 65.5709 29.3506 66.5536 28.9416 67.6294C28.5325 68.7052 28.3481 69.8518 28.3994 71H19.8079C19.8593 69.8518 19.6748 68.7052 19.2658 67.6294C18.8567 66.5536 18.2315 65.5709 17.4279 64.7405C16.6243 63.91 15.6589 63.2492 14.5899 62.7977C13.5209 62.3462 12.3705 62.1134 11.2081 62.1134C10.0457 62.1134 8.89525 62.3462 7.82627 62.7977C6.75729 63.2492 5.79188 63.91 4.98825 64.7405C4.18463 65.5709 3.55945 66.5536 3.15041 67.6294C2.74136 68.7052 2.55694 69.8518 2.60825 71H-6V40.3076H2.60825C2.55694 41.4558 2.74136 42.6024 3.15041 43.6781C3.55945 44.7539 4.18463 45.7367 4.98825 46.5671C5.79188 47.3975 6.75729 48.0584 7.82627 48.5099C8.89525 48.9614 10.0457 49.1942 11.2081 49.1942C12.3705 49.1942 13.5209 48.9614 14.5899 48.5099C15.6589 48.0584 16.6243 47.3975 17.4279 46.5671C18.2315 45.7367 18.8567 44.7539 19.2658 43.6781C19.6748 42.6024 19.8593 41.4558 19.8079 40.3076H28.3994C28.3481 41.4558 28.5325 42.6024 28.9416 43.6781C29.3506 44.7539 29.9758 45.7367 30.7794 46.5671C31.583 47.3975 32.5484 48.0584 33.6174 48.5099C34.6864 48.9614 35.8368 49.1942 36.9992 49.1942C38.1617 49.1942 39.3121 48.9614 40.3811 48.5099C41.45 48.0584 42.4154 47.3975 43.2191 46.5671C44.0227 45.7367 44.6479 44.7539 45.0569 43.6781C45.466 42.6024 45.6504 41.4558 45.5991 40.3076H54.2073C54.156 41.4558 54.3404 42.6024 54.7495 43.6781C55.1585 44.7539 55.7837 45.7367 56.5873 46.5671C57.391 47.3975 58.3564 48.0584 59.4254 48.5099C60.4943 48.9614 61.6447 49.1942 62.8072 49.1942C63.9696 49.1942 65.12 48.9614 66.189 48.5099C67.258 48.0584 68.2234 47.3975 69.027 46.5671C69.8306 45.7367 70.4558 44.7539 70.8648 43.6781C71.2739 42.6024 71.4583 41.4558 71.407 40.3076H79.9985C79.9472 41.4558 80.1316 42.6024 80.5407 43.6781C80.9497 44.7539 81.5749 45.7367 82.3785 46.5671C83.1821 47.3975 84.1475 48.0584 85.2165 48.5099C86.2855 48.9614 87.4359 49.1942 88.5983 49.1942C89.7608 49.1942 90.9112 48.9614 91.9801 48.5099C93.0491 48.0584 94.0145 47.3975 94.8181 46.5671C95.6218 45.7367 96.247 44.7539 96.656 43.6781C97.0651 42.6024 97.2495 41.4558 97.1982 40.3076H105.806C105.755 41.4558 105.94 42.6024 106.349 43.6781C106.758 44.7539 107.383 45.7367 108.186 46.5671C108.99 47.3975 109.955 48.0584 111.024 48.5099C112.093 48.9614 113.244 49.1942 114.406 49.1942C115.569 49.1942 116.719 48.9614 117.788 48.5099C118.857 48.0584 119.822 47.3975 120.626 46.5671C121.43 45.7367 122.055 44.7539 122.464 43.6781C122.873 42.6024 123.057 41.4558 123.006 40.3076H131.598C131.546 41.4558 131.731 42.6024 132.14 43.6781C132.549 44.7539 133.174 45.7367 133.978 46.5671C134.781 47.3975 135.747 48.0584 136.816 48.5099C137.885 48.9614 139.035 49.1942 140.197 49.1942C141.36 49.1942 142.51 48.9614 143.579 48.5099C144.648 48.0584 145.614 47.3975 146.417 46.5671C147.221 45.7367 147.846 44.7539 148.255 43.6781C148.664 42.6024 148.849 41.4558 148.797 40.3076H157.406C157.354 41.4558 157.539 42.6024 157.948 43.6781C158.357 44.7539 158.982 45.7367 159.786 46.5671C160.589 47.3975 161.555 48.0584 162.624 48.5099C163.692 48.9614 164.843 49.1942 166.005 49.1942C167.168 49.1942 168.318 48.9614 169.387 48.5099C170.456 48.0584 171.422 47.3975 172.225 46.5671C173.029 45.7367 173.654 44.7539 174.063 43.6781C174.472 42.6024 174.657 41.4558 174.605 40.3076H183.197C183.145 41.4558 183.33 42.6024 183.739 43.6781C184.148 44.7539 184.773 45.7367 185.577 46.5671C186.38 47.3975 187.346 48.0584 188.415 48.5099C189.484 48.9614 190.634 49.1942 191.796 49.1942C192.959 49.1942 194.109 48.9614 195.178 48.5099C196.247 48.0584 197.213 47.3975 198.016 46.5671C198.82 45.7367 199.445 44.7539 199.854 43.6781C200.263 42.6024 200.448 41.4558 200.396 40.3076H209.005C208.953 41.4558 209.138 42.6024 209.547 43.6781C209.956 44.7539 210.581 45.7367 211.385 46.5671C212.188 47.3975 213.154 48.0584 214.223 48.5099C215.292 48.9614 216.442 49.1942 217.604 49.1942C218.767 49.1942 219.917 48.9614 220.986 48.5099C222.055 48.0584 223.021 47.3975 223.824 46.5671C224.628 45.7367 225.253 44.7539 225.662 43.6781C226.071 42.6024 226.256 41.4558 226.204 40.3076H234.796C234.744 41.4558 234.929 42.6024 235.338 43.6781C235.747 44.7539 236.372 45.7367 237.176 46.5671C237.979 47.3975 238.945 48.0584 240.014 48.5099C241.083 48.9614 242.233 49.1942 243.396 49.1942C244.558 49.1942 245.708 48.9614 246.777 48.5099C247.846 48.0584 248.812 47.3975 249.615 46.5671C250.419 45.7367 251.044 44.7539 251.453 43.6781C251.862 42.6024 252.047 41.4558 251.995 40.3076H260.604C260.552 41.4558 260.737 42.6024 261.146 43.6781C261.555 44.7539 262.18 45.7367 262.984 46.5671C263.787 47.3975 264.753 48.0584 265.822 48.5099C266.891 48.9614 268.041 49.1942 269.204 49.1942C270.366 49.1942 271.516 48.9614 272.585 48.5099C273.654 48.0584 274.62 47.3975 275.423 46.5671C276.227 45.7367 276.852 44.7539 277.261 43.6781C277.67 42.6024 277.855 41.4558 277.803 40.3076H286.395C286.344 41.4558 286.528 42.6024 286.937 43.6781C287.346 44.7539 287.971 45.7367 288.775 46.5671C289.578 47.3975 290.544 48.0584 291.613 48.5099C292.682 48.9614 293.832 49.1942 294.995 49.1942C296.157 49.1942 297.307 48.9614 298.376 48.5099C299.445 48.0584 300.411 47.3975 301.215 46.5671C302.018 45.7367 302.643 44.7539 303.052 43.6781C303.461 42.6024 303.646 41.4558 303.595 40.3076H312.203C312.151 41.4558 312.336 42.6024 312.745 43.6781C313.154 44.7539 313.779 45.7367 314.583 46.5671C315.386 47.3975 316.352 48.0584 317.421 48.5099C318.49 48.9614 319.64 49.1942 320.803 49.1942C321.965 49.1942 323.115 48.9614 324.184 48.5099C325.253 48.0584 326.219 47.3975 327.022 46.5671C327.826 45.7367 328.451 44.7539 328.86 43.6781C329.269 42.6024 329.454 41.4558 329.402 40.3076H337.994C337.943 41.4558 338.127 42.6024 338.536 43.6781C338.945 44.7539 339.57 45.7367 340.374 46.5671C341.178 47.3975 342.143 48.0584 343.212 48.5099C344.281 48.9614 345.431 49.1942 346.594 49.1942C347.756 49.1942 348.907 48.9614 349.976 48.5099C351.045 48.0584 352.01 47.3975 352.814 46.5671C353.617 45.7367 354.242 44.7539 354.651 43.6781C355.06 42.6024 355.245 41.4558 355.194 40.3076H363.802C363.751 41.4558 363.935 42.6024 364.344 43.6781C364.753 44.7539 365.378 45.7367 366.182 46.5671C366.985 47.3975 367.951 48.0584 369.02 48.5099C370.089 48.9614 371.239 49.1942 372.402 49.1942C373.564 49.1942 374.715 48.9614 375.783 48.5099C376.852 48.0584 377.818 47.3975 378.621 46.5671C379.425 45.7367 380.05 44.7539 380.459 43.6781C380.868 42.6024 381.053 41.4558 381.002 40.3076H389.593C389.542 41.4558 389.726 42.6024 390.135 43.6781C390.544 44.7539 391.169 45.7367 391.973 46.5671C392.777 47.3975 393.742 48.0584 394.811 48.5099C395.88 48.9614 397.03 49.1942 398.193 49.1942C399.355 49.1942 400.506 48.9614 401.575 48.5099C402.644 48.0584 403.609 47.3975 404.413 46.5671C405.216 45.7367 405.841 44.7539 406.251 43.6781C406.66 42.6024 406.844 41.4558 406.793 40.3076H415.401C415.35 41.4558 415.534 42.6024 415.943 43.6781C416.352 44.7539 416.977 45.7367 417.781 46.5671C418.585 47.3975 419.55 48.0584 420.619 48.5099C421.688 48.9614 422.838 49.1942 424.001 49.1942C425.163 49.1942 426.314 48.9614 427.383 48.5099C428.452 48.0584 429.417 47.3975 430.221 46.5671C431.024 45.7367 431.649 44.7539 432.058 43.6781C432.467 42.6024 432.652 41.4558 432.601 40.3076H441.192C441.141 41.4558 441.325 42.6024 441.734 43.6781C442.143 44.7539 442.768 45.7367 443.572 46.5671C444.376 47.3975 445.341 48.0584 446.41 48.5099C447.479 48.9614 448.629 49.1942 449.792 49.1942C450.954 49.1942 452.105 48.9614 453.174 48.5099C454.243 48.0584 455.208 47.3975 456.012 46.5671C456.815 45.7367 457.441 44.7539 457.85 43.6781Z" fill="white"/>
</g>
<rect x="-6" width="720" height="50" fill="white"/>
<defs>
<filter id="filter0_d_308_7642" x="-14" y="36.3076" width="953" height="46.6924" filterUnits="userSpaceOnUse" color-interpolation-filters="sRGB">
<feFlood flood-opacity="0" result="BackgroundImageFix"/>
<feColorMatrix in="SourceAlpha" type="matrix" values="0 0 0 0 0 0 0 0 0 0 0 0 0 0 0 0 0 0 127 0" result="hardAlpha"/>
<feOffset dy="4"/>
<feGaussianBlur stdDeviation="4"/>
<feComposite in2="hardAlpha" operator="out"/>
<feColorMatrix type="matrix" values="0 0 0 0 0 0 0 0 0 0 0 0 0 0 0 0 0 0 0.24 0"/>
<feBlend mode="normal" in2="BackgroundImageFix" result="effect1_dropShadow_308_7642"/>
<feBlend mode="normal" in="SourceGraphic" in2="effect1_dropShadow_308_7642" result="shape"/>
</filter>
</defs>
</svg>
