<svg width="72" height="72" viewBox="0 0 72 72" fill="none" xmlns="http://www.w3.org/2000/svg">
<path d="M49.5004 42.4503H49.1116V32.8559C49.1116 26.7068 45.1919 21.4844 39.778 19.6446V19.6415L38.8424 19.3763C37.7712 19.0958 36.6553 18.9297 35.4993 18.9297C34.288 18.9297 33.1185 19.108 31.9997 19.4129L31.222 19.6415V19.6446C25.8081 21.486 21.8884 26.7068 21.8884 32.8559V42.4503H21.4996C19.5703 42.4503 18 44.057 18 46.031C18 48.005 19.5703 49.6116 21.4996 49.6116H29.686H30.4592H40.5408H41.314H49.5004C51.4297 49.6116 53 48.005 53 46.031C53 44.057 51.4297 42.4503 49.5004 42.4503Z" fill="white"/>
<path d="M31.9735 19.8751C33.0923 19.5702 34.2618 19.3919 35.473 19.3919C36.6291 19.3919 37.7435 19.558 38.8161 19.8385L39.7517 20.1037V20.1068V19.0809C39.7517 16.6664 38.5888 14 35.4745 14C32.4123 14 31.1973 16.6664 31.1973 19.0794V20.1022L31.9735 19.8751Z" fill="white"/>
<path d="M40.5403 51.9492H30.4588H29.6855C29.8867 55.0543 32.4134 57.5191 35.4988 57.5191C38.5842 57.5191 41.1109 55.0543 41.312 51.9492H40.5403Z" fill="white"/>
</svg>
