<svg width="56" height="56" viewBox="0 0 56 56" fill="none" xmlns="http://www.w3.org/2000/svg">
<path d="M33.5677 36.9751L33.9912 37.241C33.5677 36.9751 33.5676 36.9753 33.5676 36.9754L33.5674 36.9757L33.5669 36.9764L33.5657 36.9784L33.5622 36.9841L33.5508 37.0028C33.5414 37.0185 33.5283 37.0406 33.5122 37.0688C33.48 37.125 33.4355 37.2057 33.3829 37.3086C33.2779 37.514 33.1402 37.809 33.0049 38.1748C32.7353 38.9039 32.4698 39.9295 32.5028 41.0962L32.5028 41.0964C32.5157 41.5495 32.6346 42.126 32.8189 42.6902C33.0041 43.257 33.2675 43.8492 33.5926 44.3271L33.5936 44.3286C34.4893 45.6348 35.9627 46.4995 37.6361 46.4995H46.7508C48.8423 46.4995 50.6363 45.2437 51.4332 43.2567C52.5536 40.4639 52.797 37.8851 52.1375 35.3966L52.1374 35.3965C51.7623 33.982 50.8237 32.7758 49.5535 32.0896L33.5677 36.9751ZM33.5677 36.9751L33.5815 36.9532M33.5677 36.9751L33.5815 36.9532M33.5815 36.9532L33.5975 36.9327M33.5815 36.9532L33.5975 36.9327M33.5975 36.9327C33.931 36.5069 34.5047 36.1469 34.9696 35.8965M33.5975 36.9327L34.9696 35.8965M34.9696 35.8965C35.452 35.6367 35.9013 35.4513 36.0581 35.3926M34.9696 35.8965L36.0581 35.3926M36.0581 35.3926C36.0582 35.3926 36.0583 35.3925 36.0583 35.3925M36.0581 35.3926L36.0583 35.3925M36.0583 35.3925L45.6338 31.7988C45.6338 31.7988 45.6339 31.7988 45.6339 31.7987C46.9226 31.3147 48.3188 31.4223 49.5534 32.0896L36.0583 35.3925Z" fill="white" stroke="white"/>
<path d="M34.055 36.9338L33.0262 40.1531L31.329 37.2305L16.852 12.301C16.6272 11.914 16.5718 11.4514 16.6987 11.0222C17.1036 9.65305 18.9496 9.43174 19.6667 10.6664L34.0284 35.395L34.3627 35.9707L34.1601 36.6049L34.055 36.9338Z" fill="white" stroke="white" stroke-width="3"/>
<path d="M22.4333 36.9751L22.0098 37.241C22.4333 36.9751 22.4333 36.9753 22.4334 36.9754L22.4336 36.9757L22.4341 36.9764L22.4353 36.9784L22.4388 36.9841L22.4502 37.0028C22.4596 37.0185 22.4727 37.0406 22.4888 37.0688C22.521 37.125 22.5655 37.2057 22.6181 37.3086C22.7231 37.514 22.8608 37.809 22.9961 38.1748C23.2657 38.9039 23.5312 39.9295 23.4982 41.0962L23.4982 41.0964C23.4852 41.5495 23.3663 42.126 23.182 42.6902C22.9969 43.257 22.7334 43.8492 22.4084 44.3271L22.4074 44.3286C21.5117 45.6348 20.0383 46.4995 18.3648 46.4995H9.25017C7.15866 46.4995 5.36465 45.2437 4.56776 43.2567C3.44742 40.4639 3.20398 37.8851 3.86352 35.3966L3.86354 35.3965C4.23868 33.982 5.17729 32.7758 6.44747 32.0896L22.4333 36.9751ZM22.4333 36.9751L22.4195 36.9532M22.4333 36.9751L22.4195 36.9532M22.4195 36.9532L22.4035 36.9327M22.4195 36.9532L22.4035 36.9327M22.4035 36.9327C22.07 36.5069 21.4962 36.1469 21.0313 35.8965M22.4035 36.9327L21.0313 35.8965M21.0313 35.8965C20.549 35.6367 20.0997 35.4513 19.9429 35.3926M21.0313 35.8965L19.9429 35.3926M19.9429 35.3926C19.9428 35.3926 19.9427 35.3925 19.9426 35.3925M19.9429 35.3926L19.9426 35.3925M19.9426 35.3925L10.3672 31.7988C10.3672 31.7988 10.3671 31.7988 10.3671 31.7987C9.07835 31.3147 7.68222 31.4223 6.4476 32.0896L19.9426 35.3925Z" fill="white" stroke="white"/>
<path d="M21.946 36.9338L22.9748 40.1531L24.672 37.2305L39.149 12.301C39.3737 11.914 39.4292 11.4514 39.3023 11.0222C38.8974 9.65305 37.0514 9.43174 36.3343 10.6664L21.9726 35.395L21.6382 35.9707L21.8409 36.6049L21.946 36.9338Z" fill="white" stroke="white" stroke-width="3"/>
</svg>
