<svg width="52" height="52" viewBox="0 0 52 52" fill="none" xmlns="http://www.w3.org/2000/svg">
<path d="M12.4142 38.8712C11.6332 38.0902 11.6332 36.8239 12.4142 36.0428L36.0416 12.4154C36.8227 11.6344 38.089 11.6344 38.8701 12.4154C39.6511 13.1964 39.6511 14.4628 38.8701 15.2438L15.2426 38.8712C14.4616 39.6523 13.1953 39.6523 12.4142 38.8712Z" fill="#010509"/>
<path d="M12.5858 12.4142C13.3668 11.6332 14.6332 11.6332 15.4142 12.4142L39.0416 36.0416C39.8227 36.8227 39.8227 38.089 39.0416 38.8701C38.2606 39.6511 36.9943 39.6511 36.2132 38.8701L12.5858 15.2426C11.8047 14.4616 11.8047 13.1953 12.5858 12.4142Z" fill="#010509"/>
</svg>
