<svg width="150" height="150" viewBox="0 0 150 150" fill="none" xmlns="http://www.w3.org/2000/svg">
<rect width="150" height="150" rx="16" fill="#F5F6F7"/>
<path d="M10 61C10 57.6863 12.6863 55 16 55H134C137.314 55 140 57.6863 140 61V128C140 131.314 137.314 134 134 134H16C12.6863 134 10 131.314 10 128V61Z" fill="#010509"/>
<mask id="mask0_509_6943" style="mask-type:alpha" maskUnits="userSpaceOnUse" x="10" y="55" width="130" height="79">
<path d="M10 61C10 57.6863 12.6863 55 16 55H134C137.314 55 140 57.6863 140 61V128C140 131.314 137.314 134 134 134H16C12.6863 134 10 131.314 10 128V61Z" fill="#9C04FA"/>
</mask>
<g mask="url(#mask0_509_6943)">
<path d="M10 55H140V134H10V55Z" fill="url(#paint0_linear_509_6943)"/>
</g>
<path d="M38.8798 115.2C39.6078 115.2 40.2611 115.051 40.8398 114.752C41.4185 114.453 41.8665 114.061 42.1838 113.576C42.5198 113.091 42.6878 112.568 42.6878 112.008C42.6878 111.448 42.5198 110.935 42.1838 110.468C41.8665 109.983 41.4185 109.6 40.8398 109.32C40.2611 109.021 39.6078 108.872 38.8798 108.872C38.1518 108.872 37.4985 109.021 36.9198 109.32C36.3411 109.6 35.8931 109.983 35.5758 110.468C35.2585 110.935 35.0998 111.448 35.0998 112.008C35.0998 112.568 35.2585 113.091 35.5758 113.576C35.8931 114.061 36.3411 114.453 36.9198 114.752C37.4985 115.051 38.1518 115.2 38.8798 115.2ZM31.8798 112.008C31.8798 111.075 32.1038 110.141 32.5518 109.208L40.2798 97.336L43.1638 99.184L38.8798 105.624C39.2905 105.605 39.6451 105.624 39.9438 105.68C40.2425 105.717 40.4291 105.745 40.5038 105.764C41.5118 105.913 42.4265 106.268 43.2478 106.828C44.0691 107.369 44.7131 108.088 45.1798 108.984C45.6465 109.88 45.8798 110.888 45.8798 112.008C45.8798 113.221 45.5718 114.332 44.9558 115.34C44.3398 116.329 43.4998 117.113 42.4358 117.692C41.3718 118.252 40.1865 118.532 38.8798 118.532C37.5918 118.532 36.4065 118.252 35.3238 117.692C34.2598 117.113 33.4198 116.329 32.8038 115.34C32.1878 114.332 31.8798 113.221 31.8798 112.008ZM67.7862 110.656C67.7862 110.08 67.6342 109.544 67.3302 109.048C67.0422 108.536 66.6502 108.128 66.1542 107.824C65.6582 107.52 65.1142 107.368 64.5222 107.368C63.6102 107.368 62.8342 107.632 62.1942 108.16C61.5702 108.688 61.2582 109.424 61.2582 110.368V118.24H58.4502V110.656C58.4502 110.08 58.3142 109.544 58.0422 109.048C57.7702 108.536 57.3862 108.136 56.8902 107.848C56.3942 107.544 55.8262 107.392 55.1862 107.392C54.6262 107.392 54.0902 107.52 53.5782 107.776C53.0822 108.032 52.6822 108.384 52.3782 108.832C52.0902 109.28 51.9462 109.784 51.9462 110.344V118.24H49.0662V104.488H51.9462V106.048C52.8902 105.008 53.9702 104.488 55.1862 104.488C56.2902 104.488 57.2022 104.72 57.9222 105.184C58.6582 105.632 59.3062 106.232 59.8662 106.984C60.4102 106.232 61.0502 105.632 61.7862 105.184C62.5222 104.72 63.4342 104.488 64.5222 104.488C65.6422 104.488 66.6662 104.72 67.5942 105.184C68.5222 105.632 69.2582 106.296 69.8022 107.176C70.3462 108.04 70.6182 109.064 70.6182 110.248V118.24H67.7862V110.656ZM79.7911 115.456C80.4631 115.456 81.0871 115.28 81.6631 114.928C82.2391 114.56 82.6951 114.064 83.0311 113.44C83.3831 112.816 83.5591 112.128 83.5591 111.376C83.5591 110.624 83.3831 109.936 83.0311 109.312C82.6951 108.688 82.2391 108.2 81.6631 107.848C81.0871 107.48 80.4631 107.296 79.7911 107.296C79.1191 107.296 78.4951 107.48 77.9191 107.848C77.3431 108.2 76.8791 108.688 76.5271 109.312C76.1911 109.936 76.0231 110.624 76.0231 111.376C76.0231 112.128 76.1911 112.816 76.5271 113.44C76.8791 114.064 77.3431 114.56 77.9191 114.928C78.4951 115.28 79.1191 115.456 79.7911 115.456ZM73.2391 111.376C73.2391 110.128 73.5271 108.968 74.1031 107.896C74.6791 106.824 75.4711 105.976 76.4791 105.352C77.4871 104.712 78.5911 104.392 79.7911 104.392C80.9911 104.392 82.0951 104.712 83.1031 105.352C84.1111 105.976 84.9031 106.824 85.4791 107.896C86.0551 108.968 86.3431 110.128 86.3431 111.376C86.3431 112.608 86.0551 113.76 85.4791 114.832C84.9031 115.904 84.1111 116.76 83.1031 117.4C82.0951 118.024 80.9911 118.336 79.7911 118.336C78.5911 118.336 77.4871 118.024 76.4791 117.4C75.4711 116.76 74.6791 115.904 74.1031 114.832C73.5271 113.76 73.2391 112.608 73.2391 111.376ZM99.1038 110.944C99.1038 109.936 98.7758 109.088 98.1198 108.4C97.4798 107.696 96.5998 107.344 95.4798 107.344C94.8398 107.344 94.2398 107.488 93.6797 107.776C93.1198 108.064 92.6718 108.464 92.3358 108.976C92.0158 109.488 91.8638 110.048 91.8798 110.656V118.24H88.9998V104.488H91.8798V105.952C92.3918 105.52 92.9678 105.168 93.6078 104.896C94.2638 104.624 94.8878 104.488 95.4798 104.488C96.5838 104.488 97.6318 104.728 98.6238 105.208C99.6158 105.688 100.416 106.392 101.024 107.32C101.632 108.248 101.936 109.344 101.936 110.608V118.24H99.1038V110.944ZM109.309 113.608C109.309 114.2 109.477 114.64 109.813 114.928C110.149 115.216 110.597 115.36 111.157 115.36H112.837V118.216H111.157C110.181 118.216 109.333 118.024 108.613 117.64C107.893 117.24 107.341 116.704 106.957 116.032C106.573 115.344 106.381 114.576 106.381 113.728V107.368H104.005V104.56H106.381V100.36H109.309V104.56H112.885V107.368H109.309V113.608ZM125.705 111.4C125.705 110.776 125.561 110.168 125.273 109.576C124.985 108.984 124.569 108.504 124.025 108.136C123.497 107.752 122.881 107.56 122.177 107.56C121.537 107.56 120.945 107.728 120.401 108.064C119.857 108.4 119.425 108.848 119.105 109.408C118.801 109.952 118.649 110.528 118.649 111.136V118.312H115.769V99.904H118.649V105.952C119.177 105.504 119.761 105.176 120.401 104.968C121.057 104.744 121.649 104.632 122.177 104.632C123.457 104.632 124.585 104.944 125.561 105.568C126.537 106.192 127.281 107.008 127.793 108.016C128.321 109.008 128.585 110.048 128.585 111.136V118.312H125.705V111.4Z" fill="white"/>
<path d="M89.0748 28.9961L90.4379 30.012L89.0748 28.9961L83.2123 36.8619C81.2292 39.5228 81.4927 43.2346 83.832 45.5886L103.748 65.6294C106.367 68.2657 110.633 68.2657 113.252 65.6294L133.168 45.5886C135.507 43.2346 135.771 39.5228 133.788 36.862L127.925 28.9961C126.661 27.2996 124.669 26.3 122.553 26.3H94.4469C92.3309 26.3 90.3393 27.2996 89.0748 28.9961Z" fill="#A52FEE" stroke="#F5F6F7" stroke-width="3.4" stroke-linecap="round" stroke-linejoin="round"/>
<path d="M109.454 57.9578C109.161 58.8921 107.839 58.8921 107.546 57.9578L102.948 43.2993C102.746 42.6551 103.227 42 103.902 42L113.097 42C113.772 42 114.254 42.6551 114.051 43.2993L109.454 57.9578Z" fill="#E7ABFC"/>
<path d="M112.768 58.1879C112.32 58.6369 111.572 58.1745 111.774 57.5733L116.772 42.6818C116.908 42.2745 117.29 42 117.72 42L126.509 42C127.399 42 127.845 43.076 127.216 43.7063L112.768 58.1879Z" fill="#6D17C2"/>
<path d="M104.151 58.1879C104.599 58.6369 105.347 58.1745 105.145 57.5733L100.147 42.6818C100.011 42.2745 99.6291 42 99.1994 42L90.4104 42C89.52 42 89.0736 43.076 89.7024 43.7063L104.151 58.1879Z" fill="white"/>
<path d="M49.5675 11.9083C49.368 10.7535 49.1267 9.45786 48.8345 8C48.5399 9.45786 48.301 10.7535 48.1015 11.9083C47.1853 17.1981 43.5738 21.8317 38 23.7095C43.5993 25.5945 47.1923 30.2544 48.1015 35.5108C48.301 36.6656 48.5399 37.9612 48.8345 39.4191C49.1267 37.9612 49.368 36.6656 49.5675 35.5108C50.0379 32.8094 51.2118 30.2899 52.9641 28.2206C54.7164 26.1513 56.9815 24.6095 59.5182 23.7596L59.6666 23.7095C54.1183 21.8413 50.486 17.2315 49.5675 11.9083Z" fill="#FFC400"/>
<path d="M72.3627 43.8383C72.5261 44.7739 72.7245 45.821 72.9696 47.0001C73.2118 45.8269 73.4102 44.7739 73.5736 43.8383C73.9673 41.631 74.9548 39.5743 76.429 37.8912C77.9033 36.2082 79.8079 34.9631 81.9363 34.2912C79.8087 33.6201 77.9047 32.3761 76.431 30.694C74.9572 29.0119 73.97 26.9562 73.5765 24.75C73.4102 23.8143 73.2118 22.7672 72.9696 21.5881C72.7245 22.7614 72.5261 23.8143 72.3627 24.75C71.9685 26.9567 70.9808 29.0128 69.5066 30.6953C68.0323 32.3778 66.128 33.6224 64 34.2941C66.1273 34.967 68.0311 36.212 69.5051 37.8942C70.9791 39.5765 71.9673 41.632 72.3627 43.8383Z" fill="#FFC400"/>
<path d="M84.0432 27.5C84.2053 26.7451 84.3373 26.0778 84.4466 25.4797C84.7075 24.0686 85.3631 22.7536 86.342 21.6774C87.321 20.6012 88.586 19.8049 89.9997 19.375C84.7218 17.7011 84.4353 13.077 84.0432 11.25C83.8811 12.0049 83.7492 12.6722 83.6399 13.2703C83.3782 14.6817 82.722 15.9968 81.7424 17.073C80.7628 18.1492 79.4972 18.9453 78.083 19.375C83.3684 21.0489 83.6662 25.673 84.0432 27.5Z" fill="#FFC400"/>
<defs>
<linearGradient id="paint0_linear_509_6943" x1="75" y1="55" x2="75" y2="150" gradientUnits="userSpaceOnUse">
<stop stop-color="#CF80FF"/>
<stop offset="0.40625" stop-color="#8D11EE"/>
<stop offset="0.744792" stop-color="#5210A7"/>
<stop offset="0.9999" stop-color="#4C0087"/>
<stop offset="1" stop-color="#420D6C"/>
</linearGradient>
</defs>
</svg>
