<svg width="30" height="30" viewBox="0 0 30 30" fill="none" xmlns="http://www.w3.org/2000/svg">
<g opacity="0.6">
<path d="M6.5148 9.3439C5.73375 8.56285 5.73375 7.29652 6.5148 6.51547C7.29585 5.73443 8.56218 5.73443 9.34323 6.51547L23.4854 20.6576C24.2664 21.4387 24.2664 22.705 23.4854 23.486C22.7043 24.2671 21.438 24.2671 20.6569 23.486L6.5148 9.3439Z" fill="white"/>
<path d="M6.5148 23.4845C5.73375 22.7035 5.73375 21.4371 6.5148 20.6561L20.6569 6.51396C21.438 5.73291 22.7043 5.73292 23.4854 6.51396C24.2664 7.29501 24.2664 8.56134 23.4854 9.34239L9.34323 23.4845C8.56218 24.2656 7.29585 24.2656 6.5148 23.4845Z" fill="white"/>
</g>
</svg>
