<svg width="40" height="40" viewBox="0 0 40 40" fill="none" xmlns="http://www.w3.org/2000/svg">
<path fill-rule="evenodd" clip-rule="evenodd" d="M24.9 13C24.4367 15.2822 22.419 17 20 17C17.2386 17 15 14.7614 15 12C15 9.23858 17.2386 7 20 7C22.0309 7 23.779 8.21084 24.5618 9.94999L28.9536 7.54159C27.3146 4.25645 23.9208 2 20 2C14.4772 2 10 6.47715 10 12C10 17.5228 14.4772 22 20 22C25.1853 22 29.4489 18.0533 29.9506 13H24.9Z" fill="#C1C5C9"/>
<rect x="5" y="13" width="30" height="23" rx="4" fill="#C1C5C9"/>
<circle cx="20" cy="22.2" r="3.2" fill="white"/>
<rect x="18.8" y="22" width="2.4" height="9" rx="1.2" fill="white"/>
</svg>
