<svg width="100" height="100" viewBox="0 0 100 100" fill="none" xmlns="http://www.w3.org/2000/svg">
<g clip-path="url(#clip0_778_9552)">
<path d="M88.9719 19.5051C88.9719 18.1491 88.436 16.8486 87.4821 15.8897C86.5283 14.9309 85.2345 14.3922 83.8856 14.3922C82.5366 14.3922 81.2429 14.9309 80.289 15.8897C79.3351 16.8486 78.7992 18.1491 78.7992 19.5051C78.8018 20.6386 79.1845 21.7381 79.8855 22.6259C79.4524 23.8433 75.3349 34.7994 65.4632 34.615C65.4632 34.615 52.34 35.0724 52.8244 14.0012C53.6154 13.3223 54.1803 12.4159 54.443 11.4043C54.7057 10.3927 54.6536 9.32445 54.2937 8.34354C53.9337 7.36262 53.2833 6.5162 52.43 5.91836C51.5768 5.32052 50.5617 5 49.5216 5C48.4815 5 47.4664 5.32052 46.6132 5.91836C45.7599 6.5162 45.1095 7.36262 44.7495 8.34354C44.3896 9.32445 44.3375 10.3927 44.6002 11.4043C44.8629 12.4159 45.4278 13.3223 46.2188 14.0012C46.7032 35.0724 33.58 34.615 33.58 34.615C23.5908 34.8068 19.4953 23.5482 19.1504 22.589C19.8295 21.7058 20.1985 20.6214 20.1999 19.5051C20.2049 18.5176 19.9253 17.5499 19.3949 16.7187C18.8644 15.8876 18.106 15.2286 17.211 14.8214C16.3161 14.4142 15.323 14.2763 14.3518 14.4242C13.3805 14.5721 12.4726 14.9996 11.7379 15.655C11.0031 16.3104 10.4728 17.1656 10.2111 18.1174C9.94945 19.0692 9.96755 20.0767 10.2632 21.0184C10.5589 21.9601 11.1196 22.7955 11.8774 23.4238C12.6352 24.0521 13.5579 24.4464 14.5338 24.5589L21.3669 50.9939C21.3669 50.9939 18.3357 56.8962 24.6037 57.5455C24.6037 57.5455 39.87 55.1993 49.4629 55.5239C59.0557 55.1993 74.3221 57.5455 74.3221 57.5455C80.5901 56.8962 77.5588 50.9939 77.5588 50.9939L84.4874 24.5516C85.7201 24.4087 86.8578 23.8159 87.6845 22.8857C88.5111 21.9554 88.9693 20.7524 88.9719 19.5051Z" fill="#DCCAE7"/>
</g>
<path d="M49.5436 58.7446C49.0525 58.8947 48.6426 59.2395 48.4672 59.7338L43.4014 74.266C37.2895 72.0607 31.8481 67.5266 24.1762 66.825C22.6295 66.6878 21.3806 67.5402 20.3206 68.5712C18.1244 70.6908 16.6897 78.238 18.0468 81.24C18.6442 82.5462 20.9188 83.5664 22.4514 83.7741C30.7645 84.8835 36.3085 83.1873 42.6463 82.8077C44.3271 82.7039 45.3069 79.9776 45.4087 79.6671L52.0073 60.7286C52.1535 60.319 52.0833 59.8997 51.8911 59.553L49.5436 58.7446Z" fill="#7D1EB7"/>
<path d="M43.5181 77.5686C42.2495 77.1044 41.5954 75.7049 42.0572 74.443L59.7585 25.7576C60.2208 24.4945 61.6232 23.849 62.8918 24.3133C64.1603 24.7775 64.8149 26.1757 64.3526 27.4388L46.6513 76.1242C46.1895 77.3861 44.7866 78.0328 43.5181 77.5686Z" fill="#7D1EB7"/>
<path d="M50.3412 58.7446C50.8322 58.8947 51.2422 59.2395 51.4175 59.7338L56.4834 74.266C62.5952 72.0607 68.0367 67.5266 75.7086 66.825C77.2552 66.6878 78.5041 67.5402 79.5642 68.5712C81.7604 70.6908 83.1951 78.238 81.838 81.24C81.2406 82.5462 78.966 83.5664 77.4333 83.7741C69.1203 84.8835 63.5763 83.1873 57.2384 82.8077C55.5576 82.7039 54.5779 79.9776 54.4761 79.6671L47.8774 60.7286C47.7313 60.319 47.8014 59.8997 47.9937 59.553L50.3412 58.7446Z" fill="#7D1EB7"/>
<path d="M56.3667 77.5686C57.6353 77.1044 58.2894 75.7049 57.8276 74.443L40.1262 25.7576C39.664 24.4945 38.2616 23.849 36.993 24.3133C35.7244 24.7775 35.0699 26.1757 35.5321 27.4388L53.2335 76.1242C53.6953 77.3861 55.0982 78.0328 56.3667 77.5686Z" fill="#7D1EB7"/>
<defs>
<clipPath id="clip0_778_9552">
<rect width="78.9445" height="54.7349" fill="white" transform="translate(10.0273 5)"/>
</clipPath>
</defs>
</svg>
