<svg width="100" height="100" viewBox="0 0 100 100" fill="none" xmlns="http://www.w3.org/2000/svg">
<rect x="15" y="17" width="70" height="66" fill="#C0DCFF"/>
<mask id="mask0_778_9551" style="mask-type:alpha" maskUnits="userSpaceOnUse" x="15" y="19" width="70" height="64">
<rect x="15" y="19" width="70" height="64" fill="#5CE282"/>
</mask>
<g mask="url(#mask0_778_9551)">
<path d="M86.7539 62.5245C86.5699 71.5747 75.7903 81.1596 47.4751 82.8467C20.7412 84.4385 1.80239 76.0044 2.1026 61.2372C2.40927 46.1524 18.5322 35.5472 31.094 35.856C45.4767 36.2097 54.4318 49.5446 72.7383 52.3306C83.9499 54.0352 86.8379 58.396 86.7539 62.5245Z" fill="#8DCCA2"/>
<g style="mix-blend-mode:multiply">
<path d="M86.7539 62.5245C86.5699 71.5747 75.7903 81.1596 47.4751 82.8467C20.7412 84.4385 1.80239 76.0044 2.1026 61.2372C2.40927 46.1524 18.5322 35.5472 31.094 35.856C45.4767 36.2097 54.4318 49.5446 72.7383 52.3306C83.9499 54.0352 86.8379 58.396 86.7539 62.5245Z" fill="#8DCCA2"/>
</g>
<rect x="14.1396" y="61.1016" width="69.5392" height="21.7848" fill="#4EA367"/>
<path d="M86.7539 62.5245C86.5699 71.5747 75.7903 81.1596 47.4751 82.8467C20.7412 84.4385 1.80239 76.0044 2.1026 61.2372C2.40927 46.1524 18.5322 35.5472 31.094 35.856C45.4767 36.2097 54.4318 49.5446 72.7383 52.3306C83.9499 54.0352 86.8379 58.396 86.7539 62.5245Z" fill="#72C0EC"/>
<rect x="14.0273" y="61" width="70.9722" height="22" fill="#72C0EC"/>
</g>
<rect x="8" y="12" width="84" height="8" rx="4" fill="#50AFE4"/>
<path d="M73.459 55.8655V41.4109C73.459 41.4109 69.6813 40.9428 65.9944 41.9719C62.3726 42.982 59.6207 45.6519 56.4628 46.8826C53.8856 47.8867 49.9998 48.1043 49.9998 48.1043C49.9998 48.1043 52.4303 52.1569 56.1956 53.3279C60.0131 54.5151 60.7631 53.2886 65.8638 53.6773C69.5173 53.9558 73.459 55.8655 73.459 55.8655Z" fill="#1E7FE7"/>
<path d="M72.7686 72.2122C73.5969 72.2122 74.2686 71.7168 74.2686 71.1058V39.9854C74.2686 39.3737 73.5969 38.8789 72.7686 38.8789C71.9402 38.8789 71.2686 39.3737 71.2686 39.9854V71.1058C71.2686 71.7168 71.9402 72.2122 72.7686 72.2122Z" fill="#1E7FE7"/>
<path d="M61.315 73.8622C63.8266 72.8328 65.0192 69.9837 63.9789 67.4985C62.9385 65.0134 60.0592 63.8333 57.5476 64.8627C55.036 65.8921 53.8434 68.7412 54.8837 71.2263C55.9241 73.7115 58.8035 74.8916 61.315 73.8622Z" fill="white"/>
</svg>
