<svg width="100" height="100" viewBox="0 0 100 100" fill="none" xmlns="http://www.w3.org/2000/svg">
<path d="M91.5485 67.3347C91.5485 75.5555 80.9799 84.4984 52.742 86.6622C26.0812 88.7042 7 81.4696 7 68.0556C7 54.3532 23.0181 50.4023 35.567 50.4023C49.935 50.4023 59.0121 56.2717 77.3473 58.3924C88.5764 59.6897 91.5485 63.5845 91.5485 67.3347Z" fill="#8DCCC1"/>
<path d="M93 67.309C93 75.6709 82.2499 84.7673 53.5273 86.9683C26.4088 89.0454 7 81.6865 7 68.0423C7 54.1046 23.2931 50.0859 36.0574 50.0859C50.6721 50.0859 59.905 56.056 78.555 58.2132C89.9769 59.5328 93 63.4944 93 67.309Z" fill="#8DCCA2"/>
<path d="M93 67.309C93 75.6709 82.2499 84.7673 53.5273 86.9683C26.4088 89.0454 7 81.6865 7 68.0423C7 54.1046 23.2931 50.0859 36.0574 50.0859C50.6721 50.0859 59.905 56.056 78.555 58.2132C89.9769 59.5328 93 63.4944 93 67.309Z" fill="#F9CA53"/>
<g style="mix-blend-mode:multiply">
<path d="M41 70.9245C41 73.7559 36.747 76.0522 31.5 76.0522C26.253 76.0522 22 73.7566 22 70.9245C22 68.0924 26.253 65.7969 31.5 65.7969C36.747 65.7969 41 68.0924 41 70.9245Z" fill="#FFC978"/>
</g>
<g style="mix-blend-mode:multiply">
<path d="M41 70.9245C41 73.7559 36.747 76.0522 31.5 76.0522C26.253 76.0522 22 73.7566 22 70.9245C22 68.0924 26.253 65.7969 31.5 65.7969C36.747 65.7969 41 68.0924 41 70.9245Z" fill="#FFC978"/>
</g>
<path d="M41 70.9245C41 73.7559 36.747 76.0522 31.5 76.0522C26.253 76.0522 22 73.7566 22 70.9245C22 68.0924 26.253 65.7969 31.5 65.7969C36.747 65.7969 41 68.0924 41 70.9245Z" fill="#866534"/>
<path d="M69.4668 74.6635C73.5941 72.9719 75.554 68.2899 73.8444 64.2061C72.1348 60.1222 67.403 58.1829 63.2758 59.8745C59.1485 61.5662 57.1886 66.2481 58.8982 70.332C60.6078 74.4158 65.3396 76.3551 69.4668 74.6635Z" fill="white"/>
<path d="M29.6465 41.7036V14.7256C29.6465 14.7256 36.6972 13.852 43.5783 15.7727C50.338 17.6578 55.4742 22.641 61.368 24.9379C66.1782 26.8119 73.4305 27.2181 73.4305 27.2181C73.4305 27.2181 68.8943 34.7819 61.8667 36.9675C54.7418 39.1831 53.3421 36.894 43.8221 37.6196C37.0032 38.1393 29.6465 41.7036 29.6465 41.7036Z" fill="#F88000"/>
<path d="M30.2238 72.2131C29.0712 72.2131 28.1367 71.2885 28.1367 70.148V12.0651C28.1367 10.9235 29.0712 10 30.2238 10C31.3763 10 32.3108 10.9235 32.3108 12.0651V70.148C32.3108 71.2885 31.3763 72.2131 30.2238 72.2131Z" fill="#F88000"/>
</svg>
