<svg width="34" height="26" viewBox="0 0 34 26" fill="none" xmlns="http://www.w3.org/2000/svg">
<g clip-path="url(#clip0_221_1768)">
<path d="M33.9966 8.28749C33.9754 8.62164 33.8422 8.94969 33.5986 9.20357L17.9829 25.5891C17.7792 25.795 17.5296 25.9224 17.2691 25.9739H17.2682C17.1808 25.9922 17.0917 26.0001 17.0017 26.0001C16.9118 26.0001 16.8235 25.9913 16.7352 25.9739H16.7344C16.473 25.9224 16.2243 25.7942 16.0206 25.5891L0.404029 9.2027C0.160444 8.94794 0.0263451 8.62164 0.00512695 8.28662H33.9966V8.28749Z" fill="#B0EEFF"/>
<path d="M33.9966 8.2876C33.9754 8.62175 33.8421 8.94979 33.5986 9.20367L17.9828 25.5892C17.7791 25.7951 17.5296 25.9225 17.2691 25.974H17.2682C17.1808 25.9923 17.0917 26.0002 17.0017 26.0002V8.2876H33.9966Z" fill="#6C35AD"/>
<path d="M24.5884 8.2876L17.269 25.974H17.2682C17.1808 25.9923 17.0916 26.0002 17.0017 26.0002C16.9117 26.0002 16.8234 25.9914 16.7352 25.974H16.7343L9.41235 8.2876H24.5884Z" fill="#838CFF"/>
<path d="M33.9965 8.28736H24.5884L27.9137 0.25293C28.2345 0.412589 28.5222 0.646406 28.7505 0.941296L33.6961 7.28927C33.921 7.58154 34.0203 7.93838 33.9965 8.28736Z" fill="#AB56CF"/>
<path d="M9.41238 8.28746H0.00339271C-0.0203716 7.93761 0.0806269 7.57903 0.308934 7.28676L5.24937 0.942272C5.47853 0.647383 5.7654 0.41531 6.08622 0.253906L9.41238 8.28746Z" fill="#67C2FF"/>
<path d="M27.9137 0.253012L24.5884 8.28744H9.41234L6.08618 0.253012C6.41549 0.0889903 6.77959 0 7.15388 0H26.846C27.2203 0 27.5844 0.0881179 27.9137 0.253012Z" fill="#4A8BF0"/>
<path d="M27.9138 0.253116L24.5876 8.28667H17V0.000976562H26.8461C27.2204 0.000976562 27.5845 0.088222 27.9138 0.253116Z" fill="#6C35AD"/>
<path d="M17 0L9.41235 8.28744H24.5884L17 0Z" fill="#CEA9FF"/>
<path d="M0.728271 8.28757L8.17585 7.95778C8.44574 7.94557 8.62822 7.66987 8.5391 7.40814L6.2433 0.632661L9.43536 6.91869C9.60595 7.25459 10.0464 7.32176 10.3036 7.05043L16.6563 0.361328L11.2542 7.26942C11.0454 7.53639 11.2236 7.93336 11.5563 7.94295L23.2925 8.28757L11.2287 8.89218C10.7984 8.91399 10.5132 9.36156 10.6669 9.77598L16.4679 25.4383L9.42178 9.78209C9.20196 9.29351 8.74365 8.9646 8.22253 8.92097L0.728271 8.28757Z" fill="white"/>
</g>
<defs>
<clipPath id="clip0_221_1768">
<rect width="34" height="26" fill="white"/>
</clipPath>
</defs>
</svg>
