<svg width="110" height="146" viewBox="0 0 110 146" fill="none" xmlns="http://www.w3.org/2000/svg">
<path d="M68.9103 7.19149L69.2306 1.38672C62.6763 2.19748 56.5786 4.32317 50.1334 5.52909C50.0994 5.5359 50.0448 5.54272 49.9971 5.54953C49.6292 18.7533 47.8714 31.889 44.7715 44.7317C51.5642 43.9346 58.0366 40.8619 64.7407 39.2403L64.9315 38.3069C67.0027 28.0464 68.3312 17.6496 68.9103 7.19149Z" fill="#FCBB2D"/>
<path d="M23.7734 4.22656V43.9538C30.0483 44.8327 36.5003 45.2142 42.8229 44.9213C43.4769 44.894 44.1242 44.8054 44.7782 44.7305C47.8782 31.881 49.636 18.7521 50.0039 5.54831C47.34 5.92303 23.7734 6.76785 23.7734 4.22656Z" fill="#FFD101"/>
<path d="M69.7965 1.31171C69.6058 1.33215 69.4218 1.36621 69.2311 1.38665L68.9109 7.19142C68.3317 17.6427 67.0032 28.0395 64.932 38.3001L64.7412 39.2335C64.8093 39.2198 64.8707 39.1994 64.9388 39.179C73.4075 37.1691 81.883 38.8996 90.1677 41.0117L90.6855 0.81435C83.7225 0.473694 76.7255 0.535012 69.7965 1.31171Z" fill="#FFD101"/>
<path d="M103.677 131.309C104.126 131.533 104.545 131.766 104.935 132.005C110.805 128.403 110.386 123.094 103.677 119.739C96.5177 116.16 84.9182 116.16 77.7593 119.739C71.0497 123.094 70.6303 128.403 76.5012 132.005C76.8906 131.766 77.31 131.533 77.7593 131.309C84.9182 127.729 96.5177 127.729 103.677 131.309Z" fill="#176601"/>
<path d="M103.676 132.702C104.126 132.478 104.545 132.246 104.934 132.006C104.545 131.766 104.126 131.534 103.676 131.31C96.5174 127.73 84.9179 127.73 77.759 131.31C77.3097 131.534 76.8904 131.766 76.501 132.006C76.8904 132.246 77.3097 132.478 77.759 132.702C84.9179 136.282 96.5174 136.282 103.676 132.702Z" fill="#3D3727"/>
<path d="M93.7475 130.118L93.6802 0.402344L90.6848 0.454762L87.6895 0.507181L87.7568 130.103V135.03C87.7568 135.112 87.8242 135.187 87.8542 135.27C89.7562 135.457 91.7182 135.449 93.6202 135.262C93.6727 135.15 93.7475 135.03 93.7475 134.918V130.118Z" fill="#B1BDBF"/>
<g clip-path="url(#clip0_768_16061)">
<path d="M40.0163 136.247C42.7918 129.546 39.6099 121.864 32.9093 119.089C26.2087 116.313 18.5267 119.495 15.7512 126.196C12.9756 132.896 16.1575 140.578 22.8582 143.354C29.5588 146.129 37.2407 142.947 40.0163 136.247Z" fill="#F7F7F7"/>
<path d="M18.6164 121.922C17.8949 123.548 17.4812 125.347 17.4812 127.242C17.4812 134.496 23.3593 140.374 30.6131 140.374C34.2304 140.374 37.5014 138.912 39.8776 136.545C37.8381 141.144 33.2395 144.347 27.8809 144.347C20.6271 144.347 14.749 138.469 14.749 131.215C14.749 127.588 16.2306 124.298 18.6164 121.922Z" fill="#BCD0E3"/>
</g>
<defs>
<clipPath id="clip0_768_16061">
<rect width="40.6271" height="27.7165" fill="white" transform="translate(0.375977 118.094)"/>
</clipPath>
</defs>
</svg>
