<svg width="720" height="535" viewBox="0 0 720 535" fill="none" xmlns="http://www.w3.org/2000/svg">
<path d="M719.74 115H-0.259766V535H719.74V115Z" fill="#0D9EE8"/>
<path d="M754.568 72.1793C755.008 144.052 622.253 327.589 375.559 348.017C142.642 367.296 -24.6561 283.067 -25.3737 165.792C-26.1067 45.9956 -95.3403 -1.71365 117.708 5.51933C286.728 11.2575 449.473 98.5017 633.57 72.9197C719.208 61.0195 794.703 12.3953 754.568 72.1793Z" fill="#0D9EE8"/>
<mask id="mask0_810_15560" style="mask-type:alpha" maskUnits="userSpaceOnUse" x="-37" y="4" width="803" height="347">
<path d="M754.568 72.1793C755.008 144.052 622.253 327.589 375.559 348.017C142.642 367.296 -24.6561 283.067 -25.3737 165.792C-26.1067 45.9956 -95.3403 -1.71365 117.708 5.51933C286.728 11.2575 449.473 98.5017 633.57 72.9197C719.208 61.0195 794.703 12.3953 754.568 72.1793Z" fill="#00A789"/>
</mask>
<g mask="url(#mask0_810_15560)">
<path opacity="0.1" d="M634.95 118.438C632.442 118.864 629.865 119.645 627.488 120.624L472.338 42.1869C472.032 42.0343 471.496 42.0026 470.803 42.1297C469.424 42.3776 467.958 43.1531 467.521 43.865C467.334 44.1701 467.403 44.3989 467.615 44.5578C462.155 47.1512 456.964 49.8908 452.303 52.8656C452.154 52.9609 452.022 53.0563 451.879 53.1516C446.894 56.4124 443.443 60.0419 438.901 63.4235C438.876 63.4426 438.832 63.468 438.801 63.4934C436.823 64.8282 417.1 75.6277 414.892 74.5026L449.377 92.0716C455.585 89.688 461.513 86.9992 466.754 84.0753C467.297 83.7702 467.79 83.446 468.282 83.1282C473.492 79.772 476.437 75.5514 480.849 71.8711C480.892 71.8329 480.93 71.7948 480.973 71.763C486.084 67.5424 493.902 64.6948 502.081 62.1522L622.746 123.033C620.793 124.254 618.865 127.394 619.289 127.318C621.847 126.885 624.487 126.084 626.908 125.067C628.555 124.375 630.102 123.586 631.456 122.747C633.428 121.521 634.988 120.186 635.836 118.889C635.98 118.673 636.098 118.457 636.198 118.253C635.793 118.298 635.381 118.361 634.95 118.438Z" fill="#0D9EE8"/>
</g>
</svg>
