<svg width="720" height="535" viewBox="0 0 720 535" fill="none" xmlns="http://www.w3.org/2000/svg">
<path d="M719.741 115H-0.259277V535H719.741V115Z" fill="#FFCE50"/>
<path d="M754.568 72.1793C755.008 144.052 622.253 327.589 375.559 348.017C142.642 367.296 -24.6561 283.067 -25.3737 165.792C-26.1067 45.9956 -95.3403 -1.71365 117.708 5.51933C286.728 11.2575 449.473 98.5017 633.57 72.9197C719.208 61.0195 794.703 12.3953 754.568 72.1793Z" fill="#FFCE50"/>
<mask id="mask0_810_14266" style="mask-type:alpha" maskUnits="userSpaceOnUse" x="-37" y="4" width="803" height="347">
<path d="M754.568 72.1793C755.007 144.052 622.252 327.589 375.558 348.017C142.642 367.296 -24.6566 283.067 -25.3742 165.792C-26.1072 45.9956 -95.3408 -1.71365 117.708 5.51933C286.728 11.2575 449.473 98.5017 633.57 72.9197C719.208 61.0195 794.703 12.3953 754.568 72.1793Z" fill="#00A789"/>
</mask>
<g mask="url(#mask0_810_14266)">
<path opacity="0.1" d="M634.949 118.438C632.441 118.864 629.864 119.645 627.487 120.624L472.337 42.1869C472.031 42.0343 471.495 42.0026 470.802 42.1297C469.423 42.3776 467.957 43.1531 467.52 43.865C467.333 44.1701 467.402 44.3989 467.614 44.5578C462.154 47.1512 456.963 49.8908 452.302 52.8656C452.153 52.9609 452.021 53.0563 451.878 53.1516C446.893 56.4124 443.442 60.0419 438.9 63.4235C438.875 63.4426 438.831 63.468 438.8 63.4934C436.822 64.8282 417.099 75.6277 414.891 74.5026L449.376 92.0716C455.584 89.688 461.512 86.9992 466.753 84.0753C467.296 83.7702 467.789 83.446 468.281 83.1282C473.491 79.772 476.436 75.5514 480.848 71.8711C480.891 71.8329 480.929 71.7948 480.972 71.763C486.083 67.5424 493.901 64.6948 502.08 62.1522L622.745 123.033C620.792 124.254 618.864 127.394 619.288 127.318C621.846 126.885 624.486 126.084 626.907 125.067C628.554 124.375 630.101 123.586 631.455 122.747C633.427 121.521 634.987 120.186 635.835 118.889C635.979 118.673 636.097 118.457 636.197 118.253C635.792 118.298 635.38 118.361 634.949 118.438Z" fill="#FFCE50"/>
</g>
</svg>
