<svg width="80" height="80" viewBox="0 0 80 80" fill="none" xmlns="http://www.w3.org/2000/svg">
<path d="M36.9468 8.78115C37.8449 6.01722 41.7551 6.01722 42.6532 8.78115L48.0621 25.4282C48.4637 26.6642 49.6156 27.5011 50.9153 27.5011L68.419 27.5011C71.3252 27.5011 72.5335 31.22 70.1824 32.9282L56.0216 43.2166C54.9701 43.9805 54.5301 45.3346 54.9317 46.5707L60.3407 63.2177C61.2387 65.9817 58.0753 68.28 55.7242 66.5718L41.5634 56.2834C40.5119 55.5195 39.0881 55.5195 38.0366 56.2834L23.8758 66.5718C21.5247 68.28 18.3613 65.9817 19.2593 63.2177L24.6683 46.5707C25.0699 45.3346 24.6299 43.9805 23.5784 43.2166L9.41765 32.9282C7.06651 31.22 8.27483 27.5011 11.181 27.5011L28.6847 27.5011C29.9844 27.5011 31.1363 26.6642 31.5379 25.4282L36.9468 8.78115Z" fill="#E4E7EC"/>
</svg>
