<svg width="80" height="80" viewBox="0 0 80 80" fill="none" xmlns="http://www.w3.org/2000/svg">
<path d="M37.147 8.78115C38.0451 6.01722 41.9553 6.01722 42.8534 8.78115L48.2623 25.4282C48.6639 26.6642 49.8158 27.5011 51.1155 27.5011L68.6192 27.5011C71.5254 27.5011 72.7337 31.22 70.3825 32.9282L56.2217 43.2166C55.1703 43.9805 54.7303 45.3346 55.1319 46.5707L60.5409 63.2177C61.4389 65.9817 58.2755 68.28 55.9244 66.5718L41.7635 56.2834C40.7121 55.5195 39.2883 55.5195 38.2368 56.2834L24.076 66.5718C21.7249 68.28 18.5615 65.9817 19.4595 63.2177L24.8685 46.5707C25.2701 45.3346 24.8301 43.9805 23.7786 43.2166L9.61784 32.9282C7.2667 31.22 8.47503 27.5011 11.3812 27.5011L28.8849 27.5011C30.1846 27.5011 31.3365 26.6642 31.7381 25.4282L37.147 8.78115Z" fill="#FFD643"/>
</svg>
