<svg width="38" height="38" viewBox="0 0 38 38" fill="none" xmlns="http://www.w3.org/2000/svg">
<path d="M22.6263 25.4545C21.7281 24.5563 21.7281 23.1 22.6263 22.2018C23.5246 21.3036 24.9808 21.3036 25.879 22.2018L33.5969 29.9196C34.4951 30.8179 34.4951 32.2741 33.5969 33.1723C32.6987 34.0705 31.2424 34.0705 30.3442 33.1723L22.6263 25.4545Z" fill="#919599"/>
<path fill-rule="evenodd" clip-rule="evenodd" d="M16 24.6C20.7496 24.6 24.6 20.7496 24.6 16C24.6 11.2504 20.7496 7.4 16 7.4C11.2504 7.4 7.4 11.2504 7.4 16C7.4 20.7496 11.2504 24.6 16 24.6ZM16 29C23.1797 29 29 23.1797 29 16C29 8.8203 23.1797 3 16 3C8.8203 3 3 8.8203 3 16C3 23.1797 8.8203 29 16 29Z" fill="#919599"/>
</svg>
