<svg width="64" height="64" viewBox="0 0 64 64" fill="none" xmlns="http://www.w3.org/2000/svg">
<path fill-rule="evenodd" clip-rule="evenodd" d="M47.7929 15.2071C48.3452 15.2071 48.7929 15.6548 48.7929 16.2071L48.7929 25.7929C48.7929 26.3452 48.3452 26.7929 47.7929 26.7929C47.2406 26.7929 46.7929 26.3452 46.7929 25.7929L46.7929 18.6213L34.7114 30.7028C34.3209 31.0933 33.6877 31.0933 33.2972 30.7028C32.9067 30.3123 32.9067 29.6791 33.2972 29.2886L45.3787 17.2071H38.2071C37.6548 17.2071 37.2071 16.7594 37.2071 16.2071C37.2071 15.6548 37.6548 15.2071 38.2071 15.2071L47.7929 15.2071Z" fill="#010509" stroke="#010509"/>
<path d="M30.5 16H17C16.4477 16 16 16.4477 16 17V47C16 47.5523 16.4477 48 17 48H47C47.5523 48 48 47.5523 48 47V33.2462" stroke="black" stroke-width="3" stroke-linecap="round"/>
</svg>
