<svg width="374" height="760" viewBox="0 0 374 760" fill="none" xmlns="http://www.w3.org/2000/svg">
<path d="M28.2032 2.05751C29.0835 -0.685836 32.9165 -0.685839 33.7968 2.05751L39.0989 18.5806C39.4926 19.8074 40.6217 20.6381 41.8957 20.6381L59.0536 20.6381C61.9024 20.6381 63.0868 24.3292 60.7821 26.0247L46.9011 36.2365C45.8704 36.9948 45.4391 38.3388 45.8328 39.5656L51.1349 56.0887C52.0152 58.832 48.9143 61.1133 46.6096 59.4178L32.7285 49.206C31.6978 48.4478 30.3022 48.4478 29.2715 49.206L15.3904 59.4178C13.0857 61.1133 9.98479 58.832 10.8651 56.0887L16.1672 39.5656C16.5609 38.3388 16.1296 36.9948 15.0989 36.2365L1.21785 26.0247C-1.08684 24.3292 0.0976117 20.6381 2.94637 20.6381L20.1043 20.6381C21.3783 20.6381 22.5074 19.8074 22.9011 18.5806L28.2032 2.05751Z" fill="#E4E7EC"/>
<path d="M106.203 2.05751C107.084 -0.685836 110.916 -0.685839 111.797 2.05751L117.099 18.5806C117.493 19.8074 118.622 20.6381 119.896 20.6381L137.054 20.6381C139.902 20.6381 141.087 24.3292 138.782 26.0247L124.901 36.2365C123.87 36.9948 123.439 38.3388 123.833 39.5656L129.135 56.0887C130.015 58.832 126.914 61.1133 124.61 59.4178L110.729 49.206C109.698 48.4478 108.302 48.4478 107.271 49.206L93.3904 59.4178C91.0857 61.1133 87.9848 58.832 88.8651 56.0887L94.1672 39.5656C94.5609 38.3388 94.1296 36.9948 93.0989 36.2365L79.2179 26.0247C76.9132 24.3292 78.0976 20.6381 80.9464 20.6381L98.1043 20.6381C99.3783 20.6381 100.507 19.8074 100.901 18.5806L106.203 2.05751Z" fill="#E4E7EC"/>
<path d="M184.203 2.05751C185.084 -0.685836 188.916 -0.685839 189.797 2.05751L195.099 18.5806C195.493 19.8074 196.622 20.6381 197.896 20.6381L215.054 20.6381C217.902 20.6381 219.087 24.3292 216.782 26.0247L202.901 36.2365C201.87 36.9948 201.439 38.3388 201.833 39.5656L207.135 56.0887C208.015 58.832 204.914 61.1133 202.61 59.4178L188.729 49.206C187.698 48.4478 186.302 48.4478 185.271 49.206L171.39 59.4178C169.086 61.1133 165.985 58.832 166.865 56.0887L172.167 39.5656C172.561 38.3388 172.13 36.9948 171.099 36.2365L157.218 26.0247C154.913 24.3292 156.098 20.6381 158.946 20.6381L176.104 20.6381C177.378 20.6381 178.507 19.8074 178.901 18.5806L184.203 2.05751Z" fill="#E4E7EC"/>
<path d="M262.203 2.05751C263.084 -0.685836 266.916 -0.685839 267.797 2.05751L273.099 18.5806C273.493 19.8074 274.622 20.6381 275.896 20.6381L293.054 20.6381C295.902 20.6381 297.087 24.3292 294.782 26.0247L280.901 36.2365C279.87 36.9948 279.439 38.3388 279.833 39.5656L285.135 56.0887C286.015 58.832 282.914 61.1133 280.61 59.4178L266.729 49.206C265.698 48.4478 264.302 48.4478 263.271 49.206L249.39 59.4178C247.086 61.1133 243.985 58.832 244.865 56.0887L250.167 39.5656C250.561 38.3388 250.13 36.9948 249.099 36.2365L235.218 26.0247C232.913 24.3292 234.098 20.6381 236.946 20.6381L254.104 20.6381C255.378 20.6381 256.507 19.8074 256.901 18.5806L262.203 2.05751Z" fill="#E4E7EC"/>
<path d="M340.203 2.05751C341.084 -0.685836 344.916 -0.685839 345.797 2.05751L351.099 18.5806C351.493 19.8074 352.622 20.6381 353.896 20.6381L371.054 20.6381C373.902 20.6381 375.087 24.3292 372.782 26.0247L358.901 36.2365C357.87 36.9948 357.439 38.3388 357.833 39.5656L363.135 56.0887C364.015 58.832 360.914 61.1133 358.61 59.4178L344.729 49.206C343.698 48.4478 342.302 48.4478 341.271 49.206L327.39 59.4178C325.086 61.1133 321.985 58.832 322.865 56.0887L328.167 39.5656C328.561 38.3388 328.13 36.9948 327.099 36.2365L313.218 26.0247C310.913 24.3292 312.098 20.6381 314.946 20.6381L332.104 20.6381C333.378 20.6381 334.507 19.8074 334.901 18.5806L340.203 2.05751Z" fill="#E4E7EC"/>
<path d="M28.2032 72.0575C29.0835 69.3142 32.9165 69.3142 33.7968 72.0575L39.0989 88.5806C39.4926 89.8074 40.6217 90.6381 41.8957 90.6381L59.0536 90.6381C61.9024 90.6381 63.0868 94.3292 60.7821 96.0247L46.9011 106.237C45.8704 106.995 45.4391 108.339 45.8328 109.566L51.1349 126.089C52.0152 128.832 48.9143 131.113 46.6096 129.418L32.7285 119.206C31.6978 118.448 30.3022 118.448 29.2715 119.206L15.3904 129.418C13.0857 131.113 9.98479 128.832 10.8651 126.089L16.1672 109.566C16.5609 108.339 16.1296 106.995 15.0989 106.237L1.21785 96.0247C-1.08684 94.3292 0.0976117 90.6381 2.94637 90.6381L20.1043 90.6381C21.3783 90.6381 22.5074 89.8074 22.9011 88.5806L28.2032 72.0575Z" fill="#E4E7EC"/>
<path fill-rule="evenodd" clip-rule="evenodd" d="M31 70C29.8217 70 28.6434 70.6858 28.2032 72.0575L22.9011 88.5806C22.5074 89.8074 21.3783 90.6381 20.1043 90.6381L2.94638 90.6381C0.0976126 90.6381 -1.08684 94.3292 1.21785 96.0247L15.0989 106.237C16.1296 106.995 16.5609 108.339 16.1672 109.566L10.8651 126.089C9.98479 128.832 13.0857 131.113 15.3904 129.418L29.2715 119.206C29.7868 118.827 30.3934 118.637 31 118.637V70Z" fill="#FFD643"/>
<path d="M106.203 72.0575C107.084 69.3142 110.916 69.3142 111.797 72.0575L117.099 88.5806C117.493 89.8074 118.622 90.6381 119.896 90.6381L137.054 90.6381C139.902 90.6381 141.087 94.3292 138.782 96.0247L124.901 106.237C123.87 106.995 123.439 108.339 123.833 109.566L129.135 126.089C130.015 128.832 126.914 131.113 124.61 129.418L110.729 119.206C109.698 118.448 108.302 118.448 107.271 119.206L93.3904 129.418C91.0857 131.113 87.9848 128.832 88.8651 126.089L94.1672 109.566C94.5609 108.339 94.1296 106.995 93.0989 106.237L79.2179 96.0247C76.9132 94.3292 78.0976 90.6381 80.9464 90.6381L98.1043 90.6381C99.3783 90.6381 100.507 89.8074 100.901 88.5806L106.203 72.0575Z" fill="#E4E7EC"/>
<path d="M184.203 72.0575C185.084 69.3142 188.916 69.3142 189.797 72.0575L195.099 88.5806C195.493 89.8074 196.622 90.6381 197.896 90.6381L215.054 90.6381C217.902 90.6381 219.087 94.3292 216.782 96.0247L202.901 106.237C201.87 106.995 201.439 108.339 201.833 109.566L207.135 126.089C208.015 128.832 204.914 131.113 202.61 129.418L188.729 119.206C187.698 118.448 186.302 118.448 185.271 119.206L171.39 129.418C169.086 131.113 165.985 128.832 166.865 126.089L172.167 109.566C172.561 108.339 172.13 106.995 171.099 106.237L157.218 96.0247C154.913 94.3292 156.098 90.6381 158.946 90.6381L176.104 90.6381C177.378 90.6381 178.507 89.8074 178.901 88.5806L184.203 72.0575Z" fill="#E4E7EC"/>
<path d="M262.203 72.0575C263.084 69.3142 266.916 69.3142 267.797 72.0575L273.099 88.5806C273.493 89.8074 274.622 90.6381 275.896 90.6381L293.054 90.6381C295.902 90.6381 297.087 94.3292 294.782 96.0247L280.901 106.237C279.87 106.995 279.439 108.339 279.833 109.566L285.135 126.089C286.015 128.832 282.914 131.113 280.61 129.418L266.729 119.206C265.698 118.448 264.302 118.448 263.271 119.206L249.39 129.418C247.086 131.113 243.985 128.832 244.865 126.089L250.167 109.566C250.561 108.339 250.13 106.995 249.099 106.237L235.218 96.0247C232.913 94.3292 234.098 90.6381 236.946 90.6381L254.104 90.6381C255.378 90.6381 256.507 89.8074 256.901 88.5806L262.203 72.0575Z" fill="#E4E7EC"/>
<path d="M340.203 72.0575C341.084 69.3142 344.916 69.3142 345.797 72.0575L351.099 88.5806C351.493 89.8074 352.622 90.6381 353.896 90.6381L371.054 90.6381C373.902 90.6381 375.087 94.3292 372.782 96.0247L358.901 106.237C357.87 106.995 357.439 108.339 357.833 109.566L363.135 126.089C364.015 128.832 360.914 131.113 358.61 129.418L344.729 119.206C343.698 118.448 342.302 118.448 341.271 119.206L327.39 129.418C325.086 131.113 321.985 128.832 322.865 126.089L328.167 109.566C328.561 108.339 328.13 106.995 327.099 106.237L313.218 96.0247C310.913 94.3292 312.098 90.6381 314.946 90.6381L332.104 90.6381C333.378 90.6381 334.507 89.8074 334.901 88.5806L340.203 72.0575Z" fill="#E4E7EC"/>
<path d="M28.2032 142.058C29.0835 139.314 32.9165 139.314 33.7968 142.058L39.0989 158.581C39.4926 159.807 40.6217 160.638 41.8957 160.638L59.0536 160.638C61.9024 160.638 63.0868 164.329 60.7821 166.025L46.9011 176.237C45.8704 176.995 45.4391 178.339 45.8328 179.566L51.1349 196.089C52.0152 198.832 48.9143 201.113 46.6096 199.418L32.7285 189.206C31.6978 188.448 30.3022 188.448 29.2715 189.206L15.3904 199.418C13.0857 201.113 9.98479 198.832 10.8651 196.089L16.1672 179.566C16.5609 178.339 16.1296 176.995 15.0989 176.237L1.21785 166.025C-1.08684 164.329 0.0976117 160.638 2.94637 160.638L20.1043 160.638C21.3783 160.638 22.5074 159.807 22.9011 158.581L28.2032 142.058Z" fill="#FFD643"/>
<path d="M106.203 142.058C107.084 139.314 110.916 139.314 111.797 142.058L117.099 158.581C117.493 159.807 118.622 160.638 119.896 160.638L137.054 160.638C139.902 160.638 141.087 164.329 138.782 166.025L124.901 176.237C123.87 176.995 123.439 178.339 123.833 179.566L129.135 196.089C130.015 198.832 126.914 201.113 124.61 199.418L110.729 189.206C109.698 188.448 108.302 188.448 107.271 189.206L93.3904 199.418C91.0857 201.113 87.9848 198.832 88.8651 196.089L94.1672 179.566C94.5609 178.339 94.1296 176.995 93.0989 176.237L79.2179 166.025C76.9132 164.329 78.0976 160.638 80.9464 160.638L98.1043 160.638C99.3783 160.638 100.507 159.807 100.901 158.581L106.203 142.058Z" fill="#E4E7EC"/>
<path d="M184.203 142.058C185.084 139.314 188.916 139.314 189.797 142.058L195.099 158.581C195.493 159.807 196.622 160.638 197.896 160.638L215.054 160.638C217.902 160.638 219.087 164.329 216.782 166.025L202.901 176.237C201.87 176.995 201.439 178.339 201.833 179.566L207.135 196.089C208.015 198.832 204.914 201.113 202.61 199.418L188.729 189.206C187.698 188.448 186.302 188.448 185.271 189.206L171.39 199.418C169.086 201.113 165.985 198.832 166.865 196.089L172.167 179.566C172.561 178.339 172.13 176.995 171.099 176.237L157.218 166.025C154.913 164.329 156.098 160.638 158.946 160.638L176.104 160.638C177.378 160.638 178.507 159.807 178.901 158.581L184.203 142.058Z" fill="#E4E7EC"/>
<path d="M262.203 142.058C263.084 139.314 266.916 139.314 267.797 142.058L273.099 158.581C273.493 159.807 274.622 160.638 275.896 160.638L293.054 160.638C295.902 160.638 297.087 164.329 294.782 166.025L280.901 176.237C279.87 176.995 279.439 178.339 279.833 179.566L285.135 196.089C286.015 198.832 282.914 201.113 280.61 199.418L266.729 189.206C265.698 188.448 264.302 188.448 263.271 189.206L249.39 199.418C247.086 201.113 243.985 198.832 244.865 196.089L250.167 179.566C250.561 178.339 250.13 176.995 249.099 176.237L235.218 166.025C232.913 164.329 234.098 160.638 236.946 160.638L254.104 160.638C255.378 160.638 256.507 159.807 256.901 158.581L262.203 142.058Z" fill="#E4E7EC"/>
<path d="M340.203 142.058C341.084 139.314 344.916 139.314 345.797 142.058L351.099 158.581C351.493 159.807 352.622 160.638 353.896 160.638L371.054 160.638C373.902 160.638 375.087 164.329 372.782 166.025L358.901 176.237C357.87 176.995 357.439 178.339 357.833 179.566L363.135 196.089C364.015 198.832 360.914 201.113 358.61 199.418L344.729 189.206C343.698 188.448 342.302 188.448 341.271 189.206L327.39 199.418C325.086 201.113 321.985 198.832 322.865 196.089L328.167 179.566C328.561 178.339 328.13 176.995 327.099 176.237L313.218 166.025C310.913 164.329 312.098 160.638 314.946 160.638L332.104 160.638C333.378 160.638 334.507 159.807 334.901 158.581L340.203 142.058Z" fill="#E4E7EC"/>
<path d="M28.2032 212.058C29.0835 209.314 32.9165 209.314 33.7968 212.058L39.0989 228.581C39.4926 229.807 40.6217 230.638 41.8957 230.638L59.0536 230.638C61.9024 230.638 63.0868 234.329 60.7821 236.025L46.9011 246.237C45.8704 246.995 45.4391 248.339 45.8328 249.566L51.1349 266.089C52.0152 268.832 48.9143 271.113 46.6096 269.418L32.7285 259.206C31.6978 258.448 30.3022 258.448 29.2715 259.206L15.3904 269.418C13.0857 271.113 9.98479 268.832 10.8651 266.089L16.1672 249.566C16.5609 248.339 16.1296 246.995 15.0989 246.237L1.21785 236.025C-1.08684 234.329 0.0976117 230.638 2.94637 230.638L20.1043 230.638C21.3783 230.638 22.5074 229.807 22.9011 228.581L28.2032 212.058Z" fill="#FFD643"/>
<path d="M106.203 212.058C107.084 209.314 110.916 209.314 111.797 212.058L117.099 228.581C117.493 229.807 118.622 230.638 119.896 230.638L137.054 230.638C139.902 230.638 141.087 234.329 138.782 236.025L124.901 246.237C123.87 246.995 123.439 248.339 123.833 249.566L129.135 266.089C130.015 268.832 126.914 271.113 124.61 269.418L110.729 259.206C109.698 258.448 108.302 258.448 107.271 259.206L93.3904 269.418C91.0857 271.113 87.9848 268.832 88.8651 266.089L94.1672 249.566C94.5609 248.339 94.1296 246.995 93.0989 246.237L79.2179 236.025C76.9132 234.329 78.0976 230.638 80.9464 230.638L98.1043 230.638C99.3783 230.638 100.507 229.807 100.901 228.581L106.203 212.058Z" fill="#E4E7EC"/>
<path fill-rule="evenodd" clip-rule="evenodd" d="M109 210C107.822 210 106.643 210.686 106.203 212.058L100.901 228.581C100.507 229.807 99.3783 230.638 98.1043 230.638L80.9464 230.638C78.0976 230.638 76.9132 234.329 79.2179 236.025L93.0989 246.237C94.1296 246.995 94.5609 248.339 94.1672 249.566L88.8651 266.089C87.9848 268.832 91.0857 271.113 93.3904 269.418L107.271 259.206C107.787 258.827 108.393 258.637 109 258.637V210Z" fill="#FFD643"/>
<path d="M184.203 212.058C185.084 209.314 188.916 209.314 189.797 212.058L195.099 228.581C195.493 229.807 196.622 230.638 197.896 230.638L215.054 230.638C217.902 230.638 219.087 234.329 216.782 236.025L202.901 246.237C201.87 246.995 201.439 248.339 201.833 249.566L207.135 266.089C208.015 268.832 204.914 271.113 202.61 269.418L188.729 259.206C187.698 258.448 186.302 258.448 185.271 259.206L171.39 269.418C169.086 271.113 165.985 268.832 166.865 266.089L172.167 249.566C172.561 248.339 172.13 246.995 171.099 246.237L157.218 236.025C154.913 234.329 156.098 230.638 158.946 230.638L176.104 230.638C177.378 230.638 178.507 229.807 178.901 228.581L184.203 212.058Z" fill="#E4E7EC"/>
<path d="M262.203 212.058C263.084 209.314 266.916 209.314 267.797 212.058L273.099 228.581C273.493 229.807 274.622 230.638 275.896 230.638L293.054 230.638C295.902 230.638 297.087 234.329 294.782 236.025L280.901 246.237C279.87 246.995 279.439 248.339 279.833 249.566L285.135 266.089C286.015 268.832 282.914 271.113 280.61 269.418L266.729 259.206C265.698 258.448 264.302 258.448 263.271 259.206L249.39 269.418C247.086 271.113 243.985 268.832 244.865 266.089L250.167 249.566C250.561 248.339 250.13 246.995 249.099 246.237L235.218 236.025C232.913 234.329 234.098 230.638 236.946 230.638L254.104 230.638C255.378 230.638 256.507 229.807 256.901 228.581L262.203 212.058Z" fill="#E4E7EC"/>
<path d="M340.203 212.058C341.084 209.314 344.916 209.314 345.797 212.058L351.099 228.581C351.493 229.807 352.622 230.638 353.896 230.638L371.054 230.638C373.902 230.638 375.087 234.329 372.782 236.025L358.901 246.237C357.87 246.995 357.439 248.339 357.833 249.566L363.135 266.089C364.015 268.832 360.914 271.113 358.61 269.418L344.729 259.206C343.698 258.448 342.302 258.448 341.271 259.206L327.39 269.418C325.086 271.113 321.985 268.832 322.865 266.089L328.167 249.566C328.561 248.339 328.13 246.995 327.099 246.237L313.218 236.025C310.913 234.329 312.098 230.638 314.946 230.638L332.104 230.638C333.378 230.638 334.507 229.807 334.901 228.581L340.203 212.058Z" fill="#E4E7EC"/>
<path d="M28.2032 282.058C29.0835 279.314 32.9165 279.314 33.7968 282.058L39.0989 298.581C39.4926 299.807 40.6217 300.638 41.8957 300.638L59.0536 300.638C61.9024 300.638 63.0868 304.329 60.7821 306.025L46.9011 316.237C45.8704 316.995 45.4391 318.339 45.8328 319.566L51.1349 336.089C52.0152 338.832 48.9143 341.113 46.6096 339.418L32.7285 329.206C31.6978 328.448 30.3022 328.448 29.2715 329.206L15.3904 339.418C13.0857 341.113 9.98479 338.832 10.8651 336.089L16.1672 319.566C16.5609 318.339 16.1296 316.995 15.0989 316.237L1.21785 306.025C-1.08684 304.329 0.0976117 300.638 2.94637 300.638L20.1043 300.638C21.3783 300.638 22.5074 299.807 22.9011 298.581L28.2032 282.058Z" fill="#FFD643"/>
<path d="M106.203 282.058C107.084 279.314 110.916 279.314 111.797 282.058L117.099 298.581C117.493 299.807 118.622 300.638 119.896 300.638L137.054 300.638C139.902 300.638 141.087 304.329 138.782 306.025L124.901 316.237C123.87 316.995 123.439 318.339 123.833 319.566L129.135 336.089C130.015 338.832 126.914 341.113 124.61 339.418L110.729 329.206C109.698 328.448 108.302 328.448 107.271 329.206L93.3904 339.418C91.0857 341.113 87.9848 338.832 88.8651 336.089L94.1672 319.566C94.5609 318.339 94.1296 316.995 93.0989 316.237L79.2179 306.025C76.9132 304.329 78.0976 300.638 80.9464 300.638L98.1043 300.638C99.3783 300.638 100.507 299.807 100.901 298.581L106.203 282.058Z" fill="#FFD643"/>
<path d="M184.203 282.058C185.084 279.314 188.916 279.314 189.797 282.058L195.099 298.581C195.493 299.807 196.622 300.638 197.896 300.638L215.054 300.638C217.902 300.638 219.087 304.329 216.782 306.025L202.901 316.237C201.87 316.995 201.439 318.339 201.833 319.566L207.135 336.089C208.015 338.832 204.914 341.113 202.61 339.418L188.729 329.206C187.698 328.448 186.302 328.448 185.271 329.206L171.39 339.418C169.086 341.113 165.985 338.832 166.865 336.089L172.167 319.566C172.561 318.339 172.13 316.995 171.099 316.237L157.218 306.025C154.913 304.329 156.098 300.638 158.946 300.638L176.104 300.638C177.378 300.638 178.507 299.807 178.901 298.581L184.203 282.058Z" fill="#E4E7EC"/>
<path d="M262.203 282.058C263.084 279.314 266.916 279.314 267.797 282.058L273.099 298.581C273.493 299.807 274.622 300.638 275.896 300.638L293.054 300.638C295.902 300.638 297.087 304.329 294.782 306.025L280.901 316.237C279.87 316.995 279.439 318.339 279.833 319.566L285.135 336.089C286.015 338.832 282.914 341.113 280.61 339.418L266.729 329.206C265.698 328.448 264.302 328.448 263.271 329.206L249.39 339.418C247.086 341.113 243.985 338.832 244.865 336.089L250.167 319.566C250.561 318.339 250.13 316.995 249.099 316.237L235.218 306.025C232.913 304.329 234.098 300.638 236.946 300.638L254.104 300.638C255.378 300.638 256.507 299.807 256.901 298.581L262.203 282.058Z" fill="#E4E7EC"/>
<path d="M340.203 282.058C341.084 279.314 344.916 279.314 345.797 282.058L351.099 298.581C351.493 299.807 352.622 300.638 353.896 300.638L371.054 300.638C373.902 300.638 375.087 304.329 372.782 306.025L358.901 316.237C357.87 316.995 357.439 318.339 357.833 319.566L363.135 336.089C364.015 338.832 360.914 341.113 358.61 339.418L344.729 329.206C343.698 328.448 342.302 328.448 341.271 329.206L327.39 339.418C325.086 341.113 321.985 338.832 322.865 336.089L328.167 319.566C328.561 318.339 328.13 316.995 327.099 316.237L313.218 306.025C310.913 304.329 312.098 300.638 314.946 300.638L332.104 300.638C333.378 300.638 334.507 299.807 334.901 298.581L340.203 282.058Z" fill="#E4E7EC"/>
<path d="M28.2032 352.058C29.0835 349.314 32.9165 349.314 33.7968 352.058L39.0989 368.581C39.4926 369.807 40.6217 370.638 41.8957 370.638L59.0536 370.638C61.9024 370.638 63.0868 374.329 60.7821 376.025L46.9011 386.237C45.8704 386.995 45.4391 388.339 45.8328 389.566L51.1349 406.089C52.0152 408.832 48.9143 411.113 46.6096 409.418L32.7285 399.206C31.6978 398.448 30.3022 398.448 29.2715 399.206L15.3904 409.418C13.0857 411.113 9.98479 408.832 10.8651 406.089L16.1672 389.566C16.5609 388.339 16.1296 386.995 15.0989 386.237L1.21785 376.025C-1.08684 374.329 0.0976117 370.638 2.94637 370.638L20.1043 370.638C21.3783 370.638 22.5074 369.807 22.9011 368.581L28.2032 352.058Z" fill="#FFD643"/>
<path d="M106.203 352.058C107.084 349.314 110.916 349.314 111.797 352.058L117.099 368.581C117.493 369.807 118.622 370.638 119.896 370.638L137.054 370.638C139.902 370.638 141.087 374.329 138.782 376.025L124.901 386.237C123.87 386.995 123.439 388.339 123.833 389.566L129.135 406.089C130.015 408.832 126.914 411.113 124.61 409.418L110.729 399.206C109.698 398.448 108.302 398.448 107.271 399.206L93.3904 409.418C91.0857 411.113 87.9848 408.832 88.8651 406.089L94.1672 389.566C94.5609 388.339 94.1296 386.995 93.0989 386.237L79.2179 376.025C76.9132 374.329 78.0976 370.638 80.9464 370.638L98.1043 370.638C99.3783 370.638 100.507 369.807 100.901 368.581L106.203 352.058Z" fill="#FFD643"/>
<path d="M184.203 352.058C185.084 349.314 188.916 349.314 189.797 352.058L195.099 368.581C195.493 369.807 196.622 370.638 197.896 370.638L215.054 370.638C217.902 370.638 219.087 374.329 216.782 376.025L202.901 386.237C201.87 386.995 201.439 388.339 201.833 389.566L207.135 406.089C208.015 408.832 204.914 411.113 202.61 409.418L188.729 399.206C187.698 398.448 186.302 398.448 185.271 399.206L171.39 409.418C169.086 411.113 165.985 408.832 166.865 406.089L172.167 389.566C172.561 388.339 172.13 386.995 171.099 386.237L157.218 376.025C154.913 374.329 156.098 370.638 158.946 370.638L176.104 370.638C177.378 370.638 178.507 369.807 178.901 368.581L184.203 352.058Z" fill="#E4E7EC"/>
<path fill-rule="evenodd" clip-rule="evenodd" d="M187 350C185.822 350 184.643 350.686 184.203 352.058L178.901 368.581C178.507 369.807 177.378 370.638 176.104 370.638L158.946 370.638C156.098 370.638 154.913 374.329 157.218 376.025L171.099 386.237C172.13 386.995 172.561 388.339 172.167 389.566L166.865 406.089C165.985 408.832 169.086 411.113 171.39 409.418L185.271 399.206C185.787 398.827 186.393 398.637 187 398.637V350Z" fill="#FFD643"/>
<path d="M262.203 352.058C263.084 349.314 266.916 349.314 267.797 352.058L273.099 368.581C273.493 369.807 274.622 370.638 275.896 370.638L293.054 370.638C295.902 370.638 297.087 374.329 294.782 376.025L280.901 386.237C279.87 386.995 279.439 388.339 279.833 389.566L285.135 406.089C286.015 408.832 282.914 411.113 280.61 409.418L266.729 399.206C265.698 398.448 264.302 398.448 263.271 399.206L249.39 409.418C247.086 411.113 243.985 408.832 244.865 406.089L250.167 389.566C250.561 388.339 250.13 386.995 249.099 386.237L235.218 376.025C232.913 374.329 234.098 370.638 236.946 370.638L254.104 370.638C255.378 370.638 256.507 369.807 256.901 368.581L262.203 352.058Z" fill="#E4E7EC"/>
<path d="M340.203 352.058C341.084 349.314 344.916 349.314 345.797 352.058L351.099 368.581C351.493 369.807 352.622 370.638 353.896 370.638L371.054 370.638C373.902 370.638 375.087 374.329 372.782 376.025L358.901 386.237C357.87 386.995 357.439 388.339 357.833 389.566L363.135 406.089C364.015 408.832 360.914 411.113 358.61 409.418L344.729 399.206C343.698 398.448 342.302 398.448 341.271 399.206L327.39 409.418C325.086 411.113 321.985 408.832 322.865 406.089L328.167 389.566C328.561 388.339 328.13 386.995 327.099 386.237L313.218 376.025C310.913 374.329 312.098 370.638 314.946 370.638L332.104 370.638C333.378 370.638 334.507 369.807 334.901 368.581L340.203 352.058Z" fill="#E4E7EC"/>
<path d="M28.2032 422.058C29.0835 419.314 32.9165 419.314 33.7968 422.058L39.0989 438.581C39.4926 439.807 40.6217 440.638 41.8957 440.638L59.0536 440.638C61.9024 440.638 63.0868 444.329 60.7821 446.025L46.9011 456.237C45.8704 456.995 45.4391 458.339 45.8328 459.566L51.1349 476.089C52.0152 478.832 48.9143 481.113 46.6096 479.418L32.7285 469.206C31.6978 468.448 30.3022 468.448 29.2715 469.206L15.3904 479.418C13.0857 481.113 9.98479 478.832 10.8651 476.089L16.1672 459.566C16.5609 458.339 16.1296 456.995 15.0989 456.237L1.21785 446.025C-1.08684 444.329 0.0976117 440.638 2.94637 440.638L20.1043 440.638C21.3783 440.638 22.5074 439.807 22.9011 438.581L28.2032 422.058Z" fill="#FFD643"/>
<path d="M106.203 422.058C107.084 419.314 110.916 419.314 111.797 422.058L117.099 438.581C117.493 439.807 118.622 440.638 119.896 440.638L137.054 440.638C139.902 440.638 141.087 444.329 138.782 446.025L124.901 456.237C123.87 456.995 123.439 458.339 123.833 459.566L129.135 476.089C130.015 478.832 126.914 481.113 124.61 479.418L110.729 469.206C109.698 468.448 108.302 468.448 107.271 469.206L93.3904 479.418C91.0857 481.113 87.9848 478.832 88.8651 476.089L94.1672 459.566C94.5609 458.339 94.1296 456.995 93.0989 456.237L79.2179 446.025C76.9132 444.329 78.0976 440.638 80.9464 440.638L98.1043 440.638C99.3783 440.638 100.507 439.807 100.901 438.581L106.203 422.058Z" fill="#FFD643"/>
<path d="M184.203 422.058C185.084 419.314 188.916 419.314 189.797 422.058L195.099 438.581C195.493 439.807 196.622 440.638 197.896 440.638L215.054 440.638C217.902 440.638 219.087 444.329 216.782 446.025L202.901 456.237C201.87 456.995 201.439 458.339 201.833 459.566L207.135 476.089C208.015 478.832 204.914 481.113 202.61 479.418L188.729 469.206C187.698 468.448 186.302 468.448 185.271 469.206L171.39 479.418C169.086 481.113 165.985 478.832 166.865 476.089L172.167 459.566C172.561 458.339 172.13 456.995 171.099 456.237L157.218 446.025C154.913 444.329 156.098 440.638 158.946 440.638L176.104 440.638C177.378 440.638 178.507 439.807 178.901 438.581L184.203 422.058Z" fill="#FFD643"/>
<path d="M262.203 422.058C263.084 419.314 266.916 419.314 267.797 422.058L273.099 438.581C273.493 439.807 274.622 440.638 275.896 440.638L293.054 440.638C295.902 440.638 297.087 444.329 294.782 446.025L280.901 456.237C279.87 456.995 279.439 458.339 279.833 459.566L285.135 476.089C286.015 478.832 282.914 481.113 280.61 479.418L266.729 469.206C265.698 468.448 264.302 468.448 263.271 469.206L249.39 479.418C247.086 481.113 243.985 478.832 244.865 476.089L250.167 459.566C250.561 458.339 250.13 456.995 249.099 456.237L235.218 446.025C232.913 444.329 234.098 440.638 236.946 440.638L254.104 440.638C255.378 440.638 256.507 439.807 256.901 438.581L262.203 422.058Z" fill="#E4E7EC"/>
<path d="M340.203 422.058C341.084 419.314 344.916 419.314 345.797 422.058L351.099 438.581C351.493 439.807 352.622 440.638 353.896 440.638L371.054 440.638C373.902 440.638 375.087 444.329 372.782 446.025L358.901 456.237C357.87 456.995 357.439 458.339 357.833 459.566L363.135 476.089C364.015 478.832 360.914 481.113 358.61 479.418L344.729 469.206C343.698 468.448 342.302 468.448 341.271 469.206L327.39 479.418C325.086 481.113 321.985 478.832 322.865 476.089L328.167 459.566C328.561 458.339 328.13 456.995 327.099 456.237L313.218 446.025C310.913 444.329 312.098 440.638 314.946 440.638L332.104 440.638C333.378 440.638 334.507 439.807 334.901 438.581L340.203 422.058Z" fill="#E4E7EC"/>
<path d="M28.2032 492.058C29.0835 489.314 32.9165 489.314 33.7968 492.058L39.0989 508.581C39.4926 509.807 40.6217 510.638 41.8957 510.638L59.0536 510.638C61.9024 510.638 63.0868 514.329 60.7821 516.025L46.9011 526.237C45.8704 526.995 45.4391 528.339 45.8328 529.566L51.1349 546.089C52.0152 548.832 48.9143 551.113 46.6096 549.418L32.7285 539.206C31.6978 538.448 30.3022 538.448 29.2715 539.206L15.3904 549.418C13.0857 551.113 9.98479 548.832 10.8651 546.089L16.1672 529.566C16.5609 528.339 16.1296 526.995 15.0989 526.237L1.21785 516.025C-1.08684 514.329 0.0976117 510.638 2.94637 510.638L20.1043 510.638C21.3783 510.638 22.5074 509.807 22.9011 508.581L28.2032 492.058Z" fill="#FFD643"/>
<path d="M106.203 492.058C107.084 489.314 110.916 489.314 111.797 492.058L117.099 508.581C117.493 509.807 118.622 510.638 119.896 510.638L137.054 510.638C139.902 510.638 141.087 514.329 138.782 516.025L124.901 526.237C123.87 526.995 123.439 528.339 123.833 529.566L129.135 546.089C130.015 548.832 126.914 551.113 124.61 549.418L110.729 539.206C109.698 538.448 108.302 538.448 107.271 539.206L93.3904 549.418C91.0857 551.113 87.9848 548.832 88.8651 546.089L94.1672 529.566C94.5609 528.339 94.1296 526.995 93.0989 526.237L79.2179 516.025C76.9132 514.329 78.0976 510.638 80.9464 510.638L98.1043 510.638C99.3783 510.638 100.507 509.807 100.901 508.581L106.203 492.058Z" fill="#FFD643"/>
<path d="M184.203 492.058C185.084 489.314 188.916 489.314 189.797 492.058L195.099 508.581C195.493 509.807 196.622 510.638 197.896 510.638L215.054 510.638C217.902 510.638 219.087 514.329 216.782 516.025L202.901 526.237C201.87 526.995 201.439 528.339 201.833 529.566L207.135 546.089C208.015 548.832 204.914 551.113 202.61 549.418L188.729 539.206C187.698 538.448 186.302 538.448 185.271 539.206L171.39 549.418C169.086 551.113 165.985 548.832 166.865 546.089L172.167 529.566C172.561 528.339 172.13 526.995 171.099 526.237L157.218 516.025C154.913 514.329 156.098 510.638 158.946 510.638L176.104 510.638C177.378 510.638 178.507 509.807 178.901 508.581L184.203 492.058Z" fill="#FFD643"/>
<path d="M262.203 492.058C263.084 489.314 266.916 489.314 267.797 492.058L273.099 508.581C273.493 509.807 274.622 510.638 275.896 510.638L293.054 510.638C295.902 510.638 297.087 514.329 294.782 516.025L280.901 526.237C279.87 526.995 279.439 528.339 279.833 529.566L285.135 546.089C286.015 548.832 282.914 551.113 280.61 549.418L266.729 539.206C265.698 538.448 264.302 538.448 263.271 539.206L249.39 549.418C247.086 551.113 243.985 548.832 244.865 546.089L250.167 529.566C250.561 528.339 250.13 526.995 249.099 526.237L235.218 516.025C232.913 514.329 234.098 510.638 236.946 510.638L254.104 510.638C255.378 510.638 256.507 509.807 256.901 508.581L262.203 492.058Z" fill="#E4E7EC"/>
<path fill-rule="evenodd" clip-rule="evenodd" d="M265 490C263.822 490 262.643 490.686 262.203 492.058L256.901 508.581C256.507 509.807 255.378 510.638 254.104 510.638L236.946 510.638C234.098 510.638 232.913 514.329 235.218 516.025L249.099 526.237C250.13 526.995 250.561 528.339 250.167 529.566L244.865 546.089C243.985 548.832 247.086 551.113 249.39 549.418L263.271 539.206C263.787 538.827 264.393 538.637 265 538.637V490Z" fill="#FFD643"/>
<path d="M340.203 492.058C341.084 489.314 344.916 489.314 345.797 492.058L351.099 508.581C351.493 509.807 352.622 510.638 353.896 510.638L371.054 510.638C373.902 510.638 375.087 514.329 372.782 516.025L358.901 526.237C357.87 526.995 357.439 528.339 357.833 529.566L363.135 546.089C364.015 548.832 360.914 551.113 358.61 549.418L344.729 539.206C343.698 538.448 342.302 538.448 341.271 539.206L327.39 549.418C325.086 551.113 321.985 548.832 322.865 546.089L328.167 529.566C328.561 528.339 328.13 526.995 327.099 526.237L313.218 516.025C310.913 514.329 312.098 510.638 314.946 510.638L332.104 510.638C333.378 510.638 334.507 509.807 334.901 508.581L340.203 492.058Z" fill="#E4E7EC"/>
<path d="M28.2032 562.058C29.0835 559.314 32.9165 559.314 33.7968 562.058L39.0989 578.581C39.4926 579.807 40.6217 580.638 41.8957 580.638L59.0536 580.638C61.9024 580.638 63.0868 584.329 60.7821 586.025L46.9011 596.237C45.8704 596.995 45.4391 598.339 45.8328 599.566L51.1349 616.089C52.0152 618.832 48.9143 621.113 46.6096 619.418L32.7285 609.206C31.6978 608.448 30.3022 608.448 29.2715 609.206L15.3904 619.418C13.0857 621.113 9.98479 618.832 10.8651 616.089L16.1672 599.566C16.5609 598.339 16.1296 596.995 15.0989 596.237L1.21785 586.025C-1.08684 584.329 0.0976117 580.638 2.94637 580.638L20.1043 580.638C21.3783 580.638 22.5074 579.807 22.9011 578.581L28.2032 562.058Z" fill="#FFD643"/>
<path d="M106.203 562.058C107.084 559.314 110.916 559.314 111.797 562.058L117.099 578.581C117.493 579.807 118.622 580.638 119.896 580.638L137.054 580.638C139.902 580.638 141.087 584.329 138.782 586.025L124.901 596.237C123.87 596.995 123.439 598.339 123.833 599.566L129.135 616.089C130.015 618.832 126.914 621.113 124.61 619.418L110.729 609.206C109.698 608.448 108.302 608.448 107.271 609.206L93.3904 619.418C91.0857 621.113 87.9848 618.832 88.8651 616.089L94.1672 599.566C94.5609 598.339 94.1296 596.995 93.0989 596.237L79.2179 586.025C76.9132 584.329 78.0976 580.638 80.9464 580.638L98.1043 580.638C99.3783 580.638 100.507 579.807 100.901 578.581L106.203 562.058Z" fill="#FFD643"/>
<path d="M184.203 562.058C185.084 559.314 188.916 559.314 189.797 562.058L195.099 578.581C195.493 579.807 196.622 580.638 197.896 580.638L215.054 580.638C217.902 580.638 219.087 584.329 216.782 586.025L202.901 596.237C201.87 596.995 201.439 598.339 201.833 599.566L207.135 616.089C208.015 618.832 204.914 621.113 202.61 619.418L188.729 609.206C187.698 608.448 186.302 608.448 185.271 609.206L171.39 619.418C169.086 621.113 165.985 618.832 166.865 616.089L172.167 599.566C172.561 598.339 172.13 596.995 171.099 596.237L157.218 586.025C154.913 584.329 156.098 580.638 158.946 580.638L176.104 580.638C177.378 580.638 178.507 579.807 178.901 578.581L184.203 562.058Z" fill="#FFD643"/>
<path d="M262.203 562.058C263.084 559.314 266.916 559.314 267.797 562.058L273.099 578.581C273.493 579.807 274.622 580.638 275.896 580.638L293.054 580.638C295.902 580.638 297.087 584.329 294.782 586.025L280.901 596.237C279.87 596.995 279.439 598.339 279.833 599.566L285.135 616.089C286.015 618.832 282.914 621.113 280.61 619.418L266.729 609.206C265.698 608.448 264.302 608.448 263.271 609.206L249.39 619.418C247.086 621.113 243.985 618.832 244.865 616.089L250.167 599.566C250.561 598.339 250.13 596.995 249.099 596.237L235.218 586.025C232.913 584.329 234.098 580.638 236.946 580.638L254.104 580.638C255.378 580.638 256.507 579.807 256.901 578.581L262.203 562.058Z" fill="#FFD643"/>
<path d="M340.203 562.058C341.084 559.314 344.916 559.314 345.797 562.058L351.099 578.581C351.493 579.807 352.622 580.638 353.896 580.638L371.054 580.638C373.902 580.638 375.087 584.329 372.782 586.025L358.901 596.237C357.87 596.995 357.439 598.339 357.833 599.566L363.135 616.089C364.015 618.832 360.914 621.113 358.61 619.418L344.729 609.206C343.698 608.448 342.302 608.448 341.271 609.206L327.39 619.418C325.086 621.113 321.985 618.832 322.865 616.089L328.167 599.566C328.561 598.339 328.13 596.995 327.099 596.237L313.218 586.025C310.913 584.329 312.098 580.638 314.946 580.638L332.104 580.638C333.378 580.638 334.507 579.807 334.901 578.581L340.203 562.058Z" fill="#E4E7EC"/>
<path d="M28.2032 632.058C29.0835 629.314 32.9165 629.314 33.7968 632.058L39.0989 648.581C39.4926 649.807 40.6217 650.638 41.8957 650.638L59.0536 650.638C61.9024 650.638 63.0868 654.329 60.7821 656.025L46.9011 666.237C45.8704 666.995 45.4391 668.339 45.8328 669.566L51.1349 686.089C52.0152 688.832 48.9143 691.113 46.6096 689.418L32.7285 679.206C31.6978 678.448 30.3022 678.448 29.2715 679.206L15.3904 689.418C13.0857 691.113 9.98479 688.832 10.8651 686.089L16.1672 669.566C16.5609 668.339 16.1296 666.995 15.0989 666.237L1.21785 656.025C-1.08684 654.329 0.0976117 650.638 2.94637 650.638L20.1043 650.638C21.3783 650.638 22.5074 649.807 22.9011 648.581L28.2032 632.058Z" fill="#FFD643"/>
<path d="M106.203 632.058C107.084 629.314 110.916 629.314 111.797 632.058L117.099 648.581C117.493 649.807 118.622 650.638 119.896 650.638L137.054 650.638C139.902 650.638 141.087 654.329 138.782 656.025L124.901 666.237C123.87 666.995 123.439 668.339 123.833 669.566L129.135 686.089C130.015 688.832 126.914 691.113 124.61 689.418L110.729 679.206C109.698 678.448 108.302 678.448 107.271 679.206L93.3904 689.418C91.0857 691.113 87.9848 688.832 88.8651 686.089L94.1672 669.566C94.5609 668.339 94.1296 666.995 93.0989 666.237L79.2179 656.025C76.9132 654.329 78.0976 650.638 80.9464 650.638L98.1043 650.638C99.3783 650.638 100.507 649.807 100.901 648.581L106.203 632.058Z" fill="#FFD643"/>
<path d="M184.203 632.058C185.084 629.314 188.916 629.314 189.797 632.058L195.099 648.581C195.493 649.807 196.622 650.638 197.896 650.638L215.054 650.638C217.902 650.638 219.087 654.329 216.782 656.025L202.901 666.237C201.87 666.995 201.439 668.339 201.833 669.566L207.135 686.089C208.015 688.832 204.914 691.113 202.61 689.418L188.729 679.206C187.698 678.448 186.302 678.448 185.271 679.206L171.39 689.418C169.086 691.113 165.985 688.832 166.865 686.089L172.167 669.566C172.561 668.339 172.13 666.995 171.099 666.237L157.218 656.025C154.913 654.329 156.098 650.638 158.946 650.638L176.104 650.638C177.378 650.638 178.507 649.807 178.901 648.581L184.203 632.058Z" fill="#FFD643"/>
<path d="M262.203 632.058C263.084 629.314 266.916 629.314 267.797 632.058L273.099 648.581C273.493 649.807 274.622 650.638 275.896 650.638L293.054 650.638C295.902 650.638 297.087 654.329 294.782 656.025L280.901 666.237C279.87 666.995 279.439 668.339 279.833 669.566L285.135 686.089C286.015 688.832 282.914 691.113 280.61 689.418L266.729 679.206C265.698 678.448 264.302 678.448 263.271 679.206L249.39 689.418C247.086 691.113 243.985 688.832 244.865 686.089L250.167 669.566C250.561 668.339 250.13 666.995 249.099 666.237L235.218 656.025C232.913 654.329 234.098 650.638 236.946 650.638L254.104 650.638C255.378 650.638 256.507 649.807 256.901 648.581L262.203 632.058Z" fill="#FFD643"/>
<path d="M340.203 632.058C341.084 629.314 344.916 629.314 345.797 632.058L351.099 648.581C351.493 649.807 352.622 650.638 353.896 650.638L371.054 650.638C373.902 650.638 375.087 654.329 372.782 656.025L358.901 666.237C357.87 666.995 357.439 668.339 357.833 669.566L363.135 686.089C364.015 688.832 360.914 691.113 358.61 689.418L344.729 679.206C343.698 678.448 342.302 678.448 341.271 679.206L327.39 689.418C325.086 691.113 321.985 688.832 322.865 686.089L328.167 669.566C328.561 668.339 328.13 666.995 327.099 666.237L313.218 656.025C310.913 654.329 312.098 650.638 314.946 650.638L332.104 650.638C333.378 650.638 334.507 649.807 334.901 648.581L340.203 632.058Z" fill="#E4E7EC"/>
<path fill-rule="evenodd" clip-rule="evenodd" d="M343 630C341.822 630 340.643 630.686 340.203 632.058L334.901 648.581C334.507 649.807 333.378 650.638 332.104 650.638L314.946 650.638C312.098 650.638 310.913 654.329 313.218 656.025L327.099 666.237C328.13 666.995 328.561 668.339 328.167 669.566L322.865 686.089C321.985 688.832 325.086 691.113 327.39 689.418L341.271 679.206C341.787 678.827 342.393 678.637 343 678.637V630Z" fill="#FFD643"/>
<path d="M28.2032 702.058C29.0835 699.314 32.9165 699.314 33.7968 702.058L39.0989 718.581C39.4926 719.807 40.6217 720.638 41.8957 720.638L59.0536 720.638C61.9024 720.638 63.0868 724.329 60.7821 726.025L46.9011 736.237C45.8704 736.995 45.4391 738.339 45.8328 739.566L51.1349 756.089C52.0152 758.832 48.9143 761.113 46.6096 759.418L32.7285 749.206C31.6978 748.448 30.3022 748.448 29.2715 749.206L15.3904 759.418C13.0857 761.113 9.98479 758.832 10.8651 756.089L16.1672 739.566C16.5609 738.339 16.1296 736.995 15.0989 736.237L1.21785 726.025C-1.08684 724.329 0.0976117 720.638 2.94637 720.638L20.1043 720.638C21.3783 720.638 22.5074 719.807 22.9011 718.581L28.2032 702.058Z" fill="#FFD643"/>
<path d="M106.203 702.058C107.084 699.314 110.916 699.314 111.797 702.058L117.099 718.581C117.493 719.807 118.622 720.638 119.896 720.638L137.054 720.638C139.902 720.638 141.087 724.329 138.782 726.025L124.901 736.237C123.87 736.995 123.439 738.339 123.833 739.566L129.135 756.089C130.015 758.832 126.914 761.113 124.61 759.418L110.729 749.206C109.698 748.448 108.302 748.448 107.271 749.206L93.3904 759.418C91.0857 761.113 87.9848 758.832 88.8651 756.089L94.1672 739.566C94.5609 738.339 94.1296 736.995 93.0989 736.237L79.2179 726.025C76.9132 724.329 78.0976 720.638 80.9464 720.638L98.1043 720.638C99.3783 720.638 100.507 719.807 100.901 718.581L106.203 702.058Z" fill="#FFD643"/>
<path d="M184.203 702.058C185.084 699.314 188.916 699.314 189.797 702.058L195.099 718.581C195.493 719.807 196.622 720.638 197.896 720.638L215.054 720.638C217.902 720.638 219.087 724.329 216.782 726.025L202.901 736.237C201.87 736.995 201.439 738.339 201.833 739.566L207.135 756.089C208.015 758.832 204.914 761.113 202.61 759.418L188.729 749.206C187.698 748.448 186.302 748.448 185.271 749.206L171.39 759.418C169.086 761.113 165.985 758.832 166.865 756.089L172.167 739.566C172.561 738.339 172.13 736.995 171.099 736.237L157.218 726.025C154.913 724.329 156.098 720.638 158.946 720.638L176.104 720.638C177.378 720.638 178.507 719.807 178.901 718.581L184.203 702.058Z" fill="#FFD643"/>
<path d="M262.203 702.058C263.084 699.314 266.916 699.314 267.797 702.058L273.099 718.581C273.493 719.807 274.622 720.638 275.896 720.638L293.054 720.638C295.902 720.638 297.087 724.329 294.782 726.025L280.901 736.237C279.87 736.995 279.439 738.339 279.833 739.566L285.135 756.089C286.015 758.832 282.914 761.113 280.61 759.418L266.729 749.206C265.698 748.448 264.302 748.448 263.271 749.206L249.39 759.418C247.086 761.113 243.985 758.832 244.865 756.089L250.167 739.566C250.561 738.339 250.13 736.995 249.099 736.237L235.218 726.025C232.913 724.329 234.098 720.638 236.946 720.638L254.104 720.638C255.378 720.638 256.507 719.807 256.901 718.581L262.203 702.058Z" fill="#FFD643"/>
<path d="M340.203 702.058C341.084 699.314 344.916 699.314 345.797 702.058L351.099 718.581C351.493 719.807 352.622 720.638 353.896 720.638L371.054 720.638C373.902 720.638 375.087 724.329 372.782 726.025L358.901 736.237C357.87 736.995 357.439 738.339 357.833 739.566L363.135 756.089C364.015 758.832 360.914 761.113 358.61 759.418L344.729 749.206C343.698 748.448 342.302 748.448 341.271 749.206L327.39 759.418C325.086 761.113 321.985 758.832 322.865 756.089L328.167 739.566C328.561 738.339 328.13 736.995 327.099 736.237L313.218 726.025C310.913 724.329 312.098 720.638 314.946 720.638L332.104 720.638C333.378 720.638 334.507 719.807 334.901 718.581L340.203 702.058Z" fill="#FFD643"/>
</svg>
